<svg xmlns="http://www.w3.org/2000/svg" width="20" height="20" viewBox="0 0 100 100"><path d="M71.018 77.768C82.41 70.621 90.002 57.846 90.002 43.27 90.002 20.877 72.093 2.723 50 2.723c-22.092 0-39.998 18.154-39.998 40.547 0 22.395 17.906 40.547 39.998 40.547 3.25 0 6.406-.402 9.43-1.146 3.797 6.908 9.582 11.797 21.861 9.46v-6.873c0 .001-7.875-1.979-10.273-7.49m-.28-29.137c0 6.771-2.154 12.914-5.654 17.453-4.396-4.68-11.287-8.527-20.031-8.037v7.968s5.931.235 9.992 7.213a16.75 16.75 0 0 1-4.737.69c-11.285 0-20.429-11.321-20.429-25.289V38.183c0-13.967 9.144-25.289 20.429-25.289s20.431 11.322 20.431 25.289v10.448z" fill="#fff"/></svg>
