<svg width="86" height="18" viewBox="0 0 86 18" fill="none" xmlns="http://www.w3.org/2000/svg">
<path fill-rule="evenodd" clip-rule="evenodd" d="M27.8526 4.7556C25.5057 4.7556 23.6033 6.54363 23.6033 9.00996C23.6033 11.4539 25.5181 13.2643 27.8526 13.2643C30.1996 13.2643 32.102 11.4638 32.102 9.00996C32.102 6.54363 30.1996 4.7556 27.8526 4.7556ZM27.8526 11.5785C26.5686 11.5785 25.4635 10.5112 25.4635 8.99999C25.4635 7.46632 26.5711 6.42144 27.8526 6.42144C29.1366 6.42144 30.2418 7.46632 30.2418 8.99999C30.2443 10.5212 29.1366 11.5785 27.8526 11.5785ZM18.5816 4.7556C16.2347 4.7556 14.3323 6.54363 14.3323 9.00996C14.3323 11.4539 16.2471 13.2643 18.5816 13.2643C20.9285 13.2643 22.8309 11.4638 22.8309 9.00996C22.8309 6.54363 20.9261 4.7556 18.5816 4.7556ZM18.5816 11.5785C17.2976 11.5785 16.1924 10.5112 16.1924 8.99999C16.1924 7.46632 17.3001 6.42144 18.5816 6.42144C19.8656 6.42144 20.9708 7.46632 20.9708 8.99999C20.9708 10.5212 19.8656 11.5785 18.5816 11.5785ZM7.54973 6.05485V7.85535H11.8537C11.7221 8.86533 11.3893 9.61096 10.8801 10.1222C10.2493 10.7556 9.27578 11.4439 7.55966 11.4439C4.91469 11.4439 2.84591 9.29924 2.84591 6.64338C2.84591 3.98752 4.91469 1.84288 7.55966 1.84288C8.98769 1.84288 10.0283 2.40897 10.8007 3.13216L12.0722 1.85535C10.9994 0.822933 9.57133 0.0324097 7.5696 0.0324097C3.94115 0.0324097 0.896332 2.99999 0.896332 6.63341C0.896332 10.2768 3.93867 13.2344 7.5696 13.2344C9.52911 13.2344 10.9994 12.591 12.1617 11.379C13.3463 10.1895 13.7213 8.51121 13.7213 7.1571C13.7213 6.73565 13.689 6.3566 13.622 6.0349H7.54724C7.54973 6.03241 7.54973 6.05485 7.54973 6.05485ZM52.6731 7.45635C52.318 6.50124 51.2451 4.74563 49.0446 4.74563C46.8641 4.74563 45.0511 6.46882 45.0511 8.99999C45.0511 11.389 46.8442 13.2544 49.2557 13.2544C51.1929 13.2544 52.3204 12.0648 52.7849 11.3666L51.3469 10.399C50.8701 11.1097 50.2069 11.576 49.2657 11.576C48.3145 11.576 47.6489 11.1421 47.2068 10.2868L52.8718 7.93016C52.8718 7.93266 52.6731 7.45635 52.6731 7.45635ZM46.8964 8.87779C46.8517 7.2344 48.168 6.39899 49.1092 6.39899C49.8518 6.39899 50.4702 6.76558 50.6813 7.29924L46.8964 8.87779ZM42.2944 13H44.1546V0.501237H42.2944V13ZM39.2397 5.70074H39.1726C38.7529 5.19949 37.9557 4.74563 36.9374 4.74563C34.8239 4.74563 32.8768 6.61346 32.8768 9.01246C32.8768 11.4015 34.814 13.2469 36.9374 13.2469C37.9432 13.2469 38.7529 12.7905 39.1726 12.2793H39.2397V12.8903C39.2397 14.5137 38.3754 15.389 36.9821 15.389C35.8422 15.389 35.1344 14.5661 34.8463 13.8778L33.2295 14.5561C33.6939 15.6783 34.9332 17.0673 36.9796 17.0673C39.1602 17.0673 41.0079 15.778 41.0079 12.6334V4.99999H39.2496V5.70074C39.2521 5.70074 39.2397 5.70074 39.2397 5.70074ZM37.1038 11.5785C35.8198 11.5785 34.7469 10.5012 34.7469 9.01246C34.7469 7.51121 35.8198 6.42393 37.1038 6.42393C38.3754 6.42393 39.3613 7.52368 39.3613 9.01246C39.3738 10.5012 38.3779 11.5785 37.1038 11.5785ZM61.3829 0.501237H56.9348V13H58.795V8.26682H61.3853C63.4442 8.26682 65.4683 6.76807 65.4683 4.38902C65.4683 2.00997 63.4516 0.501237 61.3829 0.501237ZM61.4375 6.52119H58.7925V2.23191H61.4375C62.8308 2.23191 63.618 3.38652 63.618 4.37655C63.618 5.3566 62.8208 6.52119 61.4375 6.52119ZM72.9239 4.73316C71.5728 4.73316 70.1796 5.33415 69.6034 6.64338L71.2524 7.33166C71.6076 6.64338 72.2583 6.40897 72.9462 6.40897C73.9098 6.40897 74.8834 6.98752 74.9057 8.01994V8.15211C74.5729 7.96258 73.8428 7.67331 72.9686 7.67331C71.1879 7.67331 69.3823 8.65086 69.3823 10.4838C69.3823 12.1621 70.8427 13.2394 72.4694 13.2394C73.7186 13.2394 74.4065 12.6733 74.8362 12.0174H74.9032V12.985H76.6963V8.197C76.6963 5.96757 75.0473 4.73316 72.9239 4.73316ZM72.6904 11.5785C72.0819 11.5785 71.2301 11.2793 71.2301 10.5112C71.2301 9.54363 72.293 9.17705 73.1995 9.17705C74.0191 9.17705 74.4065 9.3541 74.8933 9.59849C74.7592 10.7207 73.8154 11.5686 72.6904 11.5785ZM83.238 4.99999L81.1021 10.4214H81.0351L78.8223 4.99999H76.8205L80.141 12.5785L78.2486 16.7905H80.1857L85.2943 4.99999H83.238ZM66.494 13H68.3541V0.501237H66.494V13Z" fill="white"/>
</svg>
