<?xml version="1.0" encoding="iso-8859-1"?>
<!-- Generator: Adobe Illustrator 19.0.0, SVG Export Plug-In . SVG Version: 6.00 Build 0)  -->
<svg version="1.1" id="Layer_1" xmlns="http://www.w3.org/2000/svg" xmlns:xlink="http://www.w3.org/1999/xlink" x="0px" y="0px"
	 viewBox="0 0 512 512" style="enable-background:new 0 0 512 512;" xml:space="preserve">
<g>
	<g>
		<path d="M233.739,0c-30.684,0-55.652,24.968-55.652,55.652c0,30.684,24.968,55.652,55.652,55.652s55.652-24.968,55.652-55.652
			C289.391,24.968,264.424,0,233.739,0z"/>
	</g>
</g>
<g>
	<g>
		<path d="M478.609,211.478h-18.174c-10.978-18.163-25.652-34.869-43.044-49.033V77.913c0-9.217-7.479-16.696-16.696-16.696
			c-37.772,0-71.88,21.185-88.913,53.978c-3.544-0.628-7.164-0.937-10.742-1.414c-16.339,18.892-40.421,30.914-67.301,30.914
			c-20.044,0-38.5-6.74-53.399-17.959C112.226,151.998,62.229,205.963,52.014,270.47h-1.927c-4.457,0-8.652-1.74-11.804-4.892
			c-3.152-3.152-4.892-7.347-4.892-11.804s1.74-8.652,4.892-11.804c6.521-6.521,6.521-17.087,0-23.609s-17.087-6.521-23.609,0
			C5.207,227.818,0,240.394,0,253.774s5.207,25.956,14.674,35.413c9.456,9.468,22.033,14.674,35.413,14.674h0.264
			c2.277,39.665,19.711,77.601,49.823,108.269v66.479c0,18.413,14.978,33.391,33.391,33.391h66.783
			c18.413,0,33.391-14.978,33.391-33.391v-13.434c22.478,3.065,44.305,3.065,66.783,0v13.434c0,18.413,14.978,33.391,33.391,33.391
			h66.783c18.413,0,33.391-14.978,33.391-33.391V412.13c19.435-19.782,33.717-42.674,41.902-67.086h2.62
			c18.413,0,33.391-14.978,33.391-33.391V244.87C512,226.456,497.022,211.478,478.609,211.478z M272.696,233.739h-77.913
			c-9.217,0-16.696-7.479-16.696-16.696c0-9.217,7.479-16.696,16.696-16.696h77.913c9.217,0,16.696,7.479,16.696,16.696
			C289.391,226.261,281.913,233.739,272.696,233.739z M372.87,256c-9.22,0-16.696-7.475-16.696-16.696
			c0-9.22,7.475-16.696,16.696-16.696s16.696,7.475,16.696,16.696C389.565,248.525,382.09,256,372.87,256z"/>
	</g>
</g>
<g>
</g>
<g>
</g>
<g>
</g>
<g>
</g>
<g>
</g>
<g>
</g>
<g>
</g>
<g>
</g>
<g>
</g>
<g>
</g>
<g>
</g>
<g>
</g>
<g>
</g>
<g>
</g>
<g>
</g>
</svg>
