<?xml version="1.0" encoding="iso-8859-1"?>
<!-- Generator: Adobe Illustrator 19.0.0, SVG Export Plug-In . SVG Version: 6.00 Build 0)  -->
<svg version="1.1" id="Layer_1" xmlns="http://www.w3.org/2000/svg" xmlns:xlink="http://www.w3.org/1999/xlink" x="0px" y="0px"
	 viewBox="0 0 512.014 512.014" style="enable-background:new 0 0 512.014 512.014;" xml:space="preserve">
<g transform="translate(0 -1)">
	<g>
		<g>
			<path d="M234.674,342.341v-192c0-11.776-9.536-21.333-21.333-21.333h-192c-11.797,0-21.333,9.557-21.333,21.333v192
				c0,11.776,9.536,21.333,21.333,21.333h192C225.138,363.674,234.674,354.117,234.674,342.341z M128.007,299.674H85.34
				c-11.797,0-21.333-9.557-21.333-21.333s9.536-21.333,21.333-21.333h42.667c11.797,0,21.333,9.557,21.333,21.333
				S139.804,299.674,128.007,299.674z M149.34,235.674h-64c-11.797,0-21.333-9.557-21.333-21.333s9.536-21.333,21.333-21.333h64
				c11.797,0,21.333,9.557,21.333,21.333S161.138,235.674,149.34,235.674z"/>
			<path d="M142.84,101.675c40.981-39.659,133.376-46.848,192.597-21.632l-6.507,2.176c-11.179,3.733-17.216,15.808-13.483,26.987
				c2.965,8.939,11.285,14.592,20.224,14.592c2.24,0,4.501-0.363,6.741-1.109l48.341-16.107c0.235-0.085,0.405-0.277,0.64-0.363
				c1.259-0.469,2.325-1.301,3.499-2.027c1.301-0.789,2.645-1.472,3.712-2.496c0.192-0.171,0.427-0.235,0.619-0.405
				c0.725-0.747,1.024-1.685,1.621-2.517c0.917-1.237,1.856-2.389,2.496-3.797c0.576-1.28,0.789-2.624,1.088-3.968
				c0.299-1.323,0.683-2.56,0.725-3.904c0.064-1.579-0.277-3.072-0.555-4.629c-0.192-0.96-0.043-1.92-0.363-2.88l-21.333-64
				c-3.733-11.179-15.68-17.237-26.987-13.483c-11.157,3.712-17.195,15.808-13.483,26.987l3.051,9.088
				C270.648,9.217,165.88,20.011,113.165,71.019c-8.448,8.171-8.683,21.696-0.491,30.165
				C120.888,109.633,134.371,109.889,142.84,101.675z"/>
			<path d="M369.174,412.342c-40.981,39.659-133.376,46.848-192.597,21.632l22.187-7.403c11.157-3.712,17.195-15.808,13.483-26.987
				c-3.733-11.157-15.723-17.237-26.987-13.483l-64,21.333c-0.256,0.085-0.405,0.277-0.64,0.363
				c-1.344,0.491-2.475,1.365-3.712,2.133c-1.216,0.768-2.475,1.408-3.499,2.389c-0.192,0.171-0.427,0.213-0.619,0.405
				c-0.725,0.747-1.024,1.685-1.621,2.517c-0.917,1.237-1.856,2.389-2.496,3.797c-0.576,1.28-0.789,2.624-1.088,3.968
				c-0.299,1.301-0.683,2.539-0.725,3.904c-0.064,1.579,0.277,3.072,0.555,4.629c0.192,0.96,0.043,1.92,0.363,2.88l21.333,64
				c2.987,8.939,11.285,14.592,20.224,14.592c2.24,0,4.501-0.341,6.763-1.109c11.157-3.712,17.195-15.808,13.483-26.987
				l-3.051-9.088c27.136,10.496,58.069,15.936,89.173,15.936c54.699,0,109.525-16.256,143.147-48.768
				c8.448-8.171,8.683-21.696,0.491-30.165C391.147,404.385,377.665,404.15,369.174,412.342z"/>
			<path d="M490.674,129.008h-192c-11.797,0-21.333,9.557-21.333,21.333v192c0,11.776,9.536,21.333,21.333,21.333h192
				c11.797,0,21.333-9.557,21.333-21.333v-192C512.007,138.565,502.471,129.008,490.674,129.008z M405.34,299.674h-42.667
				c-11.797,0-21.333-9.557-21.333-21.333s9.536-21.333,21.333-21.333h42.667c11.797,0,21.333,9.557,21.333,21.333
				S417.138,299.674,405.34,299.674z M426.674,235.674h-64c-11.797,0-21.333-9.557-21.333-21.333s9.536-21.333,21.333-21.333h64
				c11.797,0,21.333,9.557,21.333,21.333S438.471,235.674,426.674,235.674z"/>
		</g>
	</g>
</g>
<g>
</g>
<g>
</g>
<g>
</g>
<g>
</g>
<g>
</g>
<g>
</g>
<g>
</g>
<g>
</g>
<g>
</g>
<g>
</g>
<g>
</g>
<g>
</g>
<g>
</g>
<g>
</g>
<g>
</g>
</svg>
