<svg width="179" height="45" viewBox="0 0 179 45" fill="none" xmlns="http://www.w3.org/2000/svg">
<path fill-rule="evenodd" clip-rule="evenodd" d="M26.5664 0.599779C28.22 1.32897 29.9038 3.12679 30.4569 4.75375C30.6854 5.42543 30.8093 6.96168 30.7365 8.21336C30.5713 11.0532 29.3672 12.8533 26.7319 14.1993C20.7815 17.2386 13.9712 12.0091 15.5514 5.61405C16.0189 3.72322 17.7521 1.58331 19.5737 0.649398C21.2209 -0.19546 24.7069 -0.220105 26.5664 0.599779ZM20.0127 2.1873C18.352 2.98188 17.1238 4.95781 17.1245 6.83516C17.1245 7.67739 17.3093 8.66224 17.5348 9.02371C17.8906 9.59352 17.918 9.52419 17.7413 8.50089C17.3168 6.04354 18.9098 3.03084 21.1301 2.09233C21.6982 1.85211 21.9341 1.6533 21.6548 1.65035C21.3756 1.64739 20.6366 1.88892 20.0127 2.1873ZM83.8739 5.96763C84.1315 6.2177 84.2801 7.47628 84.2801 9.40424V12.4465L86.9036 12.5425L89.5271 12.6384L89.6409 13.6082C89.8003 14.9696 88.9835 15.4316 86.4158 15.4316H84.2801V20.3713C84.2801 27.1114 84.8109 28.2057 88.3423 28.7459C90.172 29.0259 90.7119 29.3989 90.7119 30.3834C90.7119 31.5549 89.8088 32.0357 87.7726 31.9479C85.7114 31.8589 84.5184 31.3515 83.1979 30.0019C81.4779 28.2442 81.2335 27.1282 81.2335 21.0285V15.4316H80.24C79.6936 15.4316 78.846 15.2837 78.3568 15.1033C77.61 14.8276 77.4841 14.6032 77.5731 13.7067C77.6764 12.665 77.7231 12.6361 79.4563 12.5392L81.2335 12.4396V9.40096C81.2335 6.20325 81.484 5.5733 82.7568 5.5733C83.1478 5.5733 83.6505 5.75075 83.8739 5.96763ZM72.643 12.8977C73.5969 13.3706 74.9947 14.4382 75.7489 15.2699C77.8896 17.631 78.1869 18.9004 78.1869 25.6876C78.1869 31.4714 78.176 31.5585 77.4252 31.8299C76.0745 32.3183 75.3213 31.7807 75.2042 30.2454L75.0993 28.8642L73.7797 30.0213C72.0587 31.5309 69.2948 32.3265 66.5227 32.1103C62.9209 31.8296 59.9142 29.8346 58.317 26.6655C57.5293 25.1026 57.376 24.3734 57.3726 22.1698C57.3621 15.7277 61.7435 11.648 68.3699 11.9299C70.2863 12.0114 71.334 12.2487 72.643 12.8977ZM104.298 12.3788C106.806 13.155 109.666 15.9071 110.501 18.3487C111.317 20.7338 111.106 24.8815 110.069 26.8324C109.12 28.6158 107.28 30.3358 105.311 31.2772C104.032 31.8891 103.186 32.0265 100.698 32.0265C98.0492 32.0265 97.4003 31.9068 95.728 31.1096C91.4451 29.068 89.3091 24.5157 90.35 19.6477C91.6154 13.7317 97.9697 10.4203 104.298 12.3788ZM123.636 12.1636C124.336 12.3525 125.521 13.0725 126.27 13.7639C127.518 14.9167 127.659 14.9706 127.965 14.4152C128.982 12.5707 133.869 11.2767 136.56 12.1389C138.202 12.6647 139.987 14.2046 140.913 15.8933C141.593 17.1328 141.659 17.7838 141.751 24.1398C141.806 27.9701 141.711 31.2417 141.539 31.4925C141.092 32.1415 139.421 32.0498 138.892 31.3475C138.556 30.9013 138.443 29.184 138.443 24.5374C138.443 19.5123 138.339 18.1114 137.899 17.2117C136.576 14.5063 132.71 13.9417 130.462 16.1256C128.946 17.5991 128.626 19.3477 128.626 26.167C128.626 31.4537 128.611 31.5598 127.864 31.8296C127.039 32.127 126.233 31.9535 125.838 31.3932C125.701 31.1993 125.586 28.3789 125.582 25.1256C125.574 18.5077 125.35 17.286 123.896 15.9334C122.457 14.595 119.812 14.3919 118.132 15.4911C115.985 16.8953 115.764 17.7638 115.757 24.797C115.754 28.231 115.619 31.244 115.457 31.4925C115.033 32.1421 113.355 32.0495 112.826 31.3475C112.26 30.595 112.17 13.7922 112.727 12.781C113.197 11.9296 114.894 11.9342 115.511 12.7889C115.968 13.4225 116 13.4202 117.618 12.6246C119.405 11.7463 121.494 11.5865 123.636 12.1636ZM156.121 12.1606C159.297 13.0167 161.918 16.1569 162.551 19.8642C162.918 22.0189 162.904 22.1257 162.16 22.7107C161.46 23.2608 160.68 23.3183 153.934 23.3183H146.482L146.702 24.3849C146.823 24.9715 147.349 25.9639 147.871 26.5903C150.168 29.345 153.93 30.0065 157.537 28.2895C159.745 27.2386 160.692 27.284 160.995 28.4551C161.264 29.4932 160.763 30.0196 158.465 31.1152C156.795 31.9111 156.168 32.0248 153.506 32.0127C150.889 32.0008 150.217 31.8763 148.737 31.13C146.72 30.1133 145.058 28.3881 144.076 26.2925C143.546 25.1608 143.372 24.1096 143.363 21.9706C143.352 19.3776 143.449 18.9573 144.539 16.8772C145.785 14.4974 147.749 12.8294 150.076 12.1748C151.547 11.7607 154.612 11.7535 156.121 12.1606ZM167.352 15.9774C169.82 19.1107 170.433 19.7151 170.737 19.3125C170.942 19.0424 172.316 17.3192 173.791 15.4832C176.229 12.4491 176.575 12.1455 177.593 12.1455C178.507 12.1455 178.752 12.2973 178.927 12.9713C179.044 13.4255 178.996 13.9801 178.821 14.2036C178.645 14.4271 177.286 16.0888 175.799 17.8962C174.313 19.7036 172.983 21.3686 172.843 21.5964C172.681 21.8589 173.779 23.479 175.842 26.0234C178.309 29.0673 179.071 30.2368 178.995 30.8671C178.912 31.5608 178.7 31.7107 177.71 31.7761C176.574 31.8513 176.402 31.7015 173.479 28.0812C171.803 26.006 170.356 24.3081 170.263 24.3081C170.17 24.3081 168.723 26.006 167.047 28.0812C164.124 31.7015 163.952 31.8513 162.816 31.7761C161.82 31.7103 161.615 31.5628 161.529 30.8504C161.451 30.1938 162.156 29.1334 164.661 26.1401C166.439 24.0156 167.893 22.1349 167.893 21.9608C167.893 21.7866 166.522 19.9415 164.847 17.8604C161.249 13.3923 160.909 12.1422 163.295 12.1478C164.228 12.1501 164.66 12.5573 167.352 15.9774ZM17.312 14.661C18.3899 15.6078 18.0338 16.747 15.7877 19.5393C13.6019 22.2565 12.4354 22.894 11.3098 21.9874C10.3664 21.2273 10.7682 19.8896 12.6944 17.379C15.3195 13.9565 16.0324 13.5368 17.312 14.661ZM64.9848 15.2805C62.1829 16.5009 60.5841 18.9432 60.5841 22.0038C60.5841 29.6046 70.6857 32.0567 74.2093 25.311C74.8274 24.1276 75.1402 23.0166 75.1402 22.0038C75.1402 19.8567 73.6839 17.1874 71.8326 15.9416C70.0588 14.7481 66.9062 14.4438 64.9848 15.2805ZM97.8207 15.2982C95.0405 16.4674 93.42 18.9366 93.42 22.0038C93.42 26.1884 96.5317 29.2451 100.772 29.226C106.964 29.1984 110.215 21.9726 106.175 17.215C104.277 14.9798 100.59 14.1339 97.8207 15.2982ZM150.46 15.2414C149.185 15.7954 147.398 17.6057 146.926 18.8212C146.179 20.7466 145.989 20.6894 153.132 20.6894H159.697L159.363 19.4131C158.939 17.7901 157.267 15.8102 155.828 15.2266C154.424 14.6571 151.787 14.6646 150.46 15.2414ZM28.5084 16.9925C29.2224 17.772 31.1299 22.6223 31.1316 23.6633C31.1336 24.7405 30.5537 25.2899 29.4143 25.2899C28.2407 25.2899 28.0484 25.0333 26.5965 21.5293C25.2123 18.1893 25.1632 17.8505 25.9388 17.0185C26.6473 16.2584 27.8253 16.2466 28.5084 16.9925ZM10.3241 23.7994C12.3291 24.94 13.6845 27.561 13.457 29.8583C13.2262 32.1911 12.2167 33.8351 10.3092 34.984C6.01884 37.5678 0.461775 35.0829 0.061989 30.4018C-0.163124 27.7663 0.196718 26.5025 1.60697 24.9761C3.85877 22.5385 7.29301 22.0748 10.3241 23.7994ZM4.55984 24.7651C2.57682 25.6146 1.11003 28.1771 1.55958 30.0068C1.79857 30.9792 1.82802 30.9355 2.05517 29.2701C2.35171 27.0986 3.13097 26.0073 5.07438 25.0435C6.66473 24.2548 6.26054 24.0363 4.55984 24.7651ZM38.7231 27.5551C40.3886 28.2826 42.3787 30.1761 43.1986 31.8129C44.0791 33.5706 44.2233 37.4354 43.4793 39.3265C42.0934 42.8489 38.76 45 34.6877 45C29.1753 45 25.3988 41.3324 25.3893 35.9698C25.3833 32.5509 26.6314 30.317 29.8828 27.9284C31.7331 26.5689 36.0485 26.3868 38.7231 27.5551ZM31.1316 29.069C27.8917 30.7314 26.2042 34.914 27.524 37.9161C27.9042 38.7807 27.9329 38.6486 27.8128 36.5882C27.6107 33.1112 28.9702 30.6732 31.8956 29.2674C32.6864 28.8876 34.6877 28.4117 34.6877 28.2474C34.6101 28.0831 32.6887 28.27 31.1316 29.069ZM19.8739 31.2361C23.2201 32.1129 24.0245 32.6048 24.0245 33.7757C24.0245 35.7069 22.9839 35.8702 18.439 34.6524C14.7698 33.6695 13.9621 32.8782 14.8964 31.1832C15.3537 30.3538 16.5558 30.3666 19.8739 31.2361Z" fill="white"/>
</svg>
