<?xml version="1.0" encoding="UTF-8"?><!DOCTYPE svg PUBLIC "-//W3C//DTD SVG 1.1//EN" "http://www.w3.org/Graphics/SVG/1.1/DTD/svg11.dtd"><svg xmlns="http://www.w3.org/2000/svg" xmlns:xlink="http://www.w3.org/1999/xlink" xmlns:serif="http://www.serif.com/"><symbol id="arrow-down" viewBox="0 0 11 8"><g fill="none">
<path d="M6.27611 7.04478C5.87592 7.53733 5.12408 7.53733 4.72389 7.04478L0.324855 1.63059C-0.206125 0.977077 0.258936 8.12147e-08 1.10097 1.35535e-07L9.89903 7.03103e-07C10.7411 7.57423e-07 11.2061 0.977079 10.6751 1.63059L6.27611 7.04478Z" fill="#EA3F3F"/>
</g></symbol><symbol id="arrow-right-dark" viewBox="0 0 17 10"><g fill="none">
<path d="M1 5H15M15 5L10.3333 9M15 5L10.3333 1" stroke="#004188" stroke-width="1.5" stroke-linecap="round"/>
</g></symbol><symbol id="arrow-right-light" viewBox="0 0 17 10"><g fill="none">
<path d="M1 5H15M15 5L10.3333 9M15 5L10.3333 1" stroke="white" stroke-width="1.5" stroke-linecap="round"/>
</g></symbol><symbol id="arrow-up" viewBox="0 0 11 8"><g fill="none">
<path d="M6.27611 0.955216C5.87592 0.462673 5.12408 0.462674 4.72389 0.955217L0.324855 6.36941C-0.206125 7.02292 0.258936 8 1.10097 8L9.89903 8C10.7411 8 11.2061 7.02292 10.6751 6.36941L6.27611 0.955216Z" fill="#28A745"/>
</g></symbol><symbol id="auth" viewBox="0 0 15 14"><g fill="none">
<path d="M9.41176 1L12.4706 1C13.3153 1 14 1.67157 14 2.5V11.5C14 12.3284 13.3153 13 12.4706 13H9.41176M10.1765 7L1 7M10.1765 7L7.11765 10M10.1765 7L7.11765 4" stroke="white" stroke-width="1.5" stroke-linecap="round" stroke-linejoin="round"/>
</g></symbol><symbol id="calendar" viewBox="0 0 18 20"><g fill="none">
<path d="M12 1V5M6 1V5M1 9H17M17 9V17C17 18.1046 16.1046 19 15 19H3C1.89543 19 1 18.1046 1 17V5C1 3.89543 1.89543 3 3 3H15C16.1046 3 17 3.89543 17 5V9Z" stroke="#212529" stroke-width="1.5" stroke-linecap="round" stroke-linejoin="round"/>
</g></symbol><symbol id="done-small" viewBox="0 0 14 11"><g fill="none">
<path d="M1.79999 5.97142L5.09999 9.39999L12.8 1.39999" stroke="#0FD4E2" stroke-width="2" stroke-linecap="round"/>
</g></symbol><symbol id="download" viewBox="0 0 16 17"><g fill="none">
<path d="M15 10.625V14.125C15 15.0915 14.2165 15.875 13.25 15.875H2.75C1.7835 15.875 1 15.0915 1 14.125V10.625M8 11.5L8 1M8 11.5L4.5 8M8 11.5L11.5 8" stroke="white" stroke-width="1.5" stroke-linecap="round" stroke-linejoin="round"/>
</g></symbol><symbol id="exchange-cycle-dark" viewBox="0 0 16 16"><g fill="none">
<path d="M5.08835 6.72752H1M1 6.72752C1.63636 6.09115 4.51111 1.00024 8 1.00024C11.4889 1.00024 14.3915 3.46918 15 6.72752M1 6.72752V2.70053M10.9116 9.27297H15M15 9.27297C14.3636 9.90933 12.1364 15.0002 8 15.0002C4.51111 15.0002 1.60854 12.5313 1 9.27297M15 9.27297V13.3099" stroke="#0056B3" stroke-width="1.5" stroke-linecap="round" stroke-linejoin="round"/>
</g></symbol><symbol id="exchange-cycle-light" viewBox="0 0 16 16"><g fill="none">
<path d="M5.08835 6.72727H1M1 6.72727C1.63636 6.09091 4.51111 1 8 1C11.4889 1 14.3915 3.46894 15 6.72727M1 6.72727V2.70028M10.9116 9.27273H15M15 9.27273C14.3636 9.90909 12.1364 15 8 15C4.51111 15 1.60854 12.5311 1 9.27273M15 9.27273V13.3097" stroke="white" stroke-width="1.5" stroke-linecap="round" stroke-linejoin="round"/>
</g></symbol><symbol id="github" viewBox="0 0 496 512"><!--! Font Awesome Pro 6.1.1 by @fontawesome - https://fontawesome.com License - https://fontawesome.com/license (Commercial License) Copyright 2022 Fonticons, Inc. --><path d="M165.9 397.4c0 2-2.3 3.6-5.2 3.6-3.3.3-5.6-1.3-5.6-3.6 0-2 2.3-3.6 5.2-3.6 3-.3 5.6 1.3 5.6 3.6zm-31.1-4.5c-.7 2 1.3 4.3 4.3 4.9 2.6 1 5.6 0 6.2-2s-1.3-4.3-4.3-5.2c-2.6-.7-5.5.3-6.2 2.3zm44.2-1.7c-2.9.7-4.9 2.6-4.6 4.9.3 2 2.9 3.3 5.9 2.6 2.9-.7 4.9-2.6 4.6-4.6-.3-1.9-3-3.2-5.9-2.9zM244.8 8C106.1 8 0 113.3 0 252c0 110.9 69.8 205.8 169.5 239.2 12.8 2.3 17.3-5.6 17.3-12.1 0-6.2-.3-40.4-.3-61.4 0 0-70 15-84.7-29.8 0 0-11.4-29.1-27.8-36.6 0 0-22.9-15.7 1.6-15.4 0 0 24.9 2 38.6 25.8 21.9 38.6 58.6 27.5 72.9 20.9 2.3-16 8.8-27.1 16-33.7-55.9-6.2-112.3-14.3-112.3-110.5 0-27.5 7.6-41.3 23.6-58.9-2.6-6.5-11.1-33.3 2.6-67.9 20.9-6.5 69 27 69 27 20-5.6 41.5-8.5 62.8-8.5s42.8 2.9 62.8 8.5c0 0 48.1-33.6 69-27 13.7 34.7 5.2 61.4 2.6 67.9 16 17.7 25.8 31.5 25.8 58.9 0 96.5-58.9 104.2-114.8 110.5 9.2 7.9 17 22.9 17 46.4 0 33.7-.3 75.4-.3 83.6 0 6.5 4.6 14.4 17.3 12.1C428.2 457.8 496 362.9 496 252 496 113.3 383.5 8 244.8 8zM97.2 352.9c-1.3 1-1 3.3.7 5.2 1.6 1.6 3.9 2.3 5.2 1 1.3-1 1-3.3-.7-5.2-1.6-1.6-3.9-2.3-5.2-1zm-10.8-8.1c-.7 1.3.3 2.9 2.3 3.9 1.6 1 3.6.7 4.3-.7.7-1.3-.3-2.9-2.3-3.9-2-.6-3.6-.3-4.3.7zm32.4 35.6c-1.6 1.3-1 4.3 1.3 6.2 2.3 2.3 5.2 2.6 6.5 1 1.3-1.3.7-4.3-1.3-6.2-2.2-2.3-5.2-2.6-6.5-1zm-11.4-14.7c-1.6 1-1.6 3.6 0 5.9 1.6 2.3 4.3 3.3 5.6 2.3 1.6-1.3 1.6-3.9 0-6.2-1.4-2.3-4-3.3-5.6-2z"/></symbol><symbol id="hamburger" viewBox="0 0 31 20"><g fill="none">
<path d="M1 1H30M1 10H30M1 19H30" stroke="white" stroke-width="1.5" stroke-linecap="round" stroke-linejoin="round"/>
</g></symbol><symbol id="medium" viewBox="0 0 512 512"><g style="fill-rule:evenodd;clip-rule:evenodd;stroke-linejoin:round;stroke-miterlimit:2;"><path d="M60.713,135.684c0.637,-6.285 -1.759,-12.499 -6.453,-16.728l-47.807,-57.59l0,-8.603l148.437,0l114.735,251.627l100.872,-251.627l141.503,0.001l0,8.602l-40.874,39.189c-3.525,2.685 -5.272,7.102 -4.541,11.472l0,287.947c-0.731,4.37 1.016,8.786 4.541,11.471l39.917,39.19l0,8.602l-200.782,0l0,-8.602l41.35,-40.147c4.065,-4.061 4.065,-5.257 4.065,-11.468l0,-232.749l-114.973,292.009l-15.536,0l-133.859,-292.009l0,195.709c-1.114,8.228 1.618,16.513 7.41,22.462l53.784,65.235l0,8.603l-152.502,0l0,-8.603l53.784,-65.235c5.749,-5.96 8.321,-14.301 6.929,-22.462l0,-226.296Z" id="Shape" style="fill-rule:nonzero;"/></g></symbol><symbol id="minus" viewBox="0 0 18 2"><g fill="none">
<path d="M1 1L17 1" stroke="#0056B3" stroke-width="1.5" stroke-linecap="round" stroke-linejoin="round"/>
</g></symbol><symbol id="plus" viewBox="0 0 18 18"><g fill="none">
<path d="M9 1V17M1 9L17 9" stroke="#0056B3" stroke-width="1.5" stroke-linecap="round" stroke-linejoin="round"/>
</g></symbol><symbol id="search" viewBox="0 0 18 18"><g fill="none">
<path d="M17 17L13.1333 13.1333M15.2223 8.1111C15.2223 12.0385 12.0385 15.2222 8.11115 15.2222C4.18377 15.2222 1 12.0385 1 8.1111C1 4.18375 4.18377 1 8.11115 1C12.0385 1 15.2223 4.18375 15.2223 8.1111Z" stroke="#ADADAD" stroke-width="1.5" stroke-linecap="round" stroke-linejoin="round"/>
</g></symbol><symbol id="sort-down-arrow" viewBox="0 0 11 6"><g fill="none">
<path d="M6.17828 5.3739C5.79522 5.72749 5.20478 5.72749 4.82172 5.3739L0.879369 1.7348C0.21047 1.11736 0.64734 1.06271e-07 1.55765 1.64996e-07L9.44235 6.73642e-07C10.3527 7.32367e-07 10.7895 1.11736 10.1206 1.7348L6.17828 5.3739Z" fill="#D3DAE2"/>
</g></symbol><symbol id="telegram" viewBox="0 0 448 512"><path d="M446.7 98.6l-67.6 318.8c-5.1 22.5-18.4 28.1-37.3 17.5l-103-75.9-49.7 47.8c-5.5 5.5-10.1 10.1-20.7 10.1l7.4-104.9 190.9-172.5c8.3-7.4-1.8-11.5-12.9-4.1L117.8 284 16.2 252.2c-22.1-6.9-22.5-22.1 4.6-32.7L418.2 66.4c18.4-6.9 34.5 4.1 28.5 32.2z"/></symbol><symbol id="twitter" viewBox="0 0 512 512"><!--! Font Awesome Pro 6.1.1 by @fontawesome - https://fontawesome.com License - https://fontawesome.com/license (Commercial License) Copyright 2022 Fonticons, Inc. --><path d="M459.37 151.716c.325 4.548.325 9.097.325 13.645 0 138.72-105.583 298.558-298.558 298.558-59.452 0-114.68-17.219-161.137-47.106 8.447.974 16.568 1.299 25.34 1.299 49.055 0 94.213-16.568 130.274-44.832-46.132-.975-84.792-31.188-98.112-72.772 6.498.974 12.995 1.624 19.818 1.624 9.421 0 18.843-1.3 27.614-3.573-48.081-9.747-84.143-51.98-84.143-102.985v-1.299c13.969 7.797 30.214 12.67 47.431 13.319-28.264-18.843-46.781-51.005-46.781-87.391 0-19.492 5.197-37.36 14.294-52.954 51.655 63.675 129.3 105.258 216.365 109.807-1.624-7.797-2.599-15.918-2.599-24.04 0-57.828 46.782-104.934 104.934-104.934 30.213 0 57.502 12.67 76.67 33.137 23.715-4.548 46.456-13.32 66.599-25.34-7.798 24.366-24.366 44.833-46.132 57.827 21.117-2.273 41.584-8.122 60.426-16.243-14.292 20.791-32.161 39.308-52.628 54.253z"/></symbol><symbol id="up-down-arrows" viewBox="0 0 10 14"><g fill="none">
<path d="M9 4.13045L5 1L1 4.13045M1 9.86955L5 13L9 9.86955" stroke="#ADADAD" stroke-width="1.5" stroke-linecap="round"/>
</g></symbol><symbol id="youtube" viewBox="0 0 512 512"><g style="fill-rule:evenodd;clip-rule:evenodd;stroke-linejoin:round;stroke-miterlimit:2;"><path d="M501.303,132.765c-5.887,-22.03 -23.235,-39.377 -45.265,-45.265c-39.932,-10.7 -200.038,-10.7 -200.038,-10.7c0,0 -160.107,0 -200.039,10.7c-22.026,5.888 -39.377,23.235 -45.264,45.265c-10.697,39.928 -10.697,123.238 -10.697,123.238c0,0 0,83.308 10.697,123.232c5.887,22.03 23.238,39.382 45.264,45.269c39.932,10.696 200.039,10.696 200.039,10.696c0,0 160.106,0 200.038,-10.696c22.03,-5.887 39.378,-23.239 45.265,-45.269c10.696,-39.924 10.696,-123.232 10.696,-123.232c0,0 0,-83.31 -10.696,-123.238Zm-296.506,200.039l0,-153.603l133.019,76.802l-133.019,76.801Z" style="fill-rule:nonzero;"/></g></symbol></svg>