<?xml version="1.0" encoding="UTF-8"?><!DOCTYPE svg PUBLIC "-//W3C//DTD SVG 1.1//EN" "http://www.w3.org/Graphics/SVG/1.1/DTD/svg11.dtd"><svg xmlns="http://www.w3.org/2000/svg" xmlns:xlink="http://www.w3.org/1999/xlink" xmlns:serif="http://www.serif.com/"><defs>
<linearGradient id="paint0_linear" x1="8.87945" y1="2.15958" x2="-3.51664" y2="14.755" gradientUnits="userSpaceOnUse">
<stop stop-color="#00A0FF"/>
<stop offset="0.00657445" stop-color="#00A1FF"/>
<stop offset="0.2601" stop-color="#00BEFF"/>
<stop offset="0.5122" stop-color="#00D2FF"/>
<stop offset="0.7604" stop-color="#00DFFF"/>
<stop offset="1" stop-color="#00E3FF"/>
</linearGradient>
<linearGradient id="paint1_linear" x1="17.9124" y1="10.5003" x2="-0.249922" y2="10.5003" gradientUnits="userSpaceOnUse">
<stop stop-color="#FFE000"/>
<stop offset="0.4087" stop-color="#FFBD00"/>
<stop offset="0.7754" stop-color="#FFA500"/>
<stop offset="1" stop-color="#FF9C00"/>
</linearGradient>
<linearGradient id="paint2_linear" x1="11.1519" y1="12.1955" x2="-5.65816" y2="29.2759" gradientUnits="userSpaceOnUse">
<stop stop-color="#FF3A44"/>
<stop offset="1" stop-color="#C31162"/>
</linearGradient>
<linearGradient id="paint3_linear" x1="-2.00507" y1="-4.14512" x2="5.5014" y2="3.48195" gradientUnits="userSpaceOnUse">
<stop stop-color="#32A071"/>
<stop offset="0.0685" stop-color="#2DA771"/>
<stop offset="0.4762" stop-color="#15CF74"/>
<stop offset="0.8009" stop-color="#06E775"/>
<stop offset="1" stop-color="#00F076"/>
</linearGradient>
</defs><symbol id="apk-android" viewBox="0 0 82 24"><g fill="none">
    <path d="M24.749 16.3202C24.749 15.6371 24.8869 15.0905 25.0248 14.5441C25.1627 13.9975 25.5765 13.451 25.9903 13.0411C26.404 12.6312 26.8178 12.358 27.3695 12.0846C27.9212 11.8114 28.4728 11.6748 29.1625 11.6748C29.7142 11.6748 30.1279 11.8115 30.5418 11.9481C30.9555 12.0847 31.3692 12.358 31.6451 12.6312V11.9481H33.8519V20.6923H31.6451V20.0093C31.2313 20.2825 30.9555 20.5557 30.5418 20.6923C30.1279 20.829 29.7142 20.9656 29.1625 20.9656C28.4728 20.9656 27.9212 20.829 27.3695 20.5557C26.8178 20.2824 26.404 20.0092 25.9903 19.5992C25.5765 19.1894 25.3007 18.7795 25.0248 18.0964C24.749 17.4132 24.749 17.0034 24.749 16.3202ZM29.4383 18.9162C29.5763 18.9162 29.8521 18.9162 29.99 18.9162C30.1279 18.9162 30.4038 18.7795 30.5418 18.7795C30.6797 18.6429 30.9555 18.5063 31.0934 18.3697C31.2313 18.233 31.5072 17.9598 31.6451 17.8231V15.0906C31.5072 14.8173 31.2313 14.6807 31.0934 14.5441C30.9555 14.4075 30.6797 14.2708 30.5418 14.1341C30.4038 13.9974 30.1279 13.9975 29.99 13.9975C29.8521 13.9975 29.5763 13.9975 29.4383 13.9975C29.0246 13.9975 28.7488 13.9974 28.4728 14.1341C28.197 14.2708 27.9212 14.4074 27.7833 14.6807C27.5074 14.9539 27.3695 15.2272 27.2316 15.5004C27.0937 15.7736 27.0937 16.1836 27.0937 16.4568C27.0937 16.7301 27.0937 17.14 27.2316 17.4132C27.3695 17.6865 27.5074 17.9598 27.7833 18.233C28.0591 18.5062 28.3349 18.6429 28.4728 18.7795C28.7488 18.9162 29.0246 18.9162 29.4383 18.9162ZM39.2309 13.9975C38.1275 13.9975 37.3 14.6806 37.3 15.7737V20.6923H35.0931V15.7737C35.0931 13.7242 36.8861 11.8115 39.2309 11.8115C41.5755 11.8115 43.3685 13.7242 43.3685 15.7737V20.6923H41.1618V15.7737C41.1618 14.6806 40.1963 13.9975 39.2309 13.9975ZM44.334 16.3202C44.334 15.6371 44.4719 15.0905 44.6098 14.5441C44.7477 13.9975 45.1615 13.451 45.5753 13.0411C45.9891 12.6312 46.4028 12.358 46.9545 12.0846C47.5062 11.8114 48.0579 11.6748 48.7475 11.6748C49.2992 11.6748 49.713 11.8115 50.1267 11.9481C50.5405 12.0847 50.9543 12.358 51.2301 12.6312V9.21553H53.4369V20.5557H51.2301V19.8726C50.8164 20.1458 50.5405 20.419 50.1267 20.5557C49.713 20.6923 49.2992 20.829 48.7475 20.829C48.0579 20.829 47.5062 20.6923 46.9545 20.4191C46.4028 20.1458 45.9891 19.8726 45.5753 19.4627C45.1615 19.0528 44.8857 18.6429 44.6098 17.9598C44.334 17.2767 44.334 17.0034 44.334 16.3202ZM49.0234 18.9162C49.1613 18.9162 49.4371 18.9162 49.575 18.9162C49.713 18.9162 49.9888 18.7795 50.1267 18.7795C50.2646 18.6429 50.5405 18.5063 50.6784 18.3697C50.8164 18.233 51.0922 17.9598 51.2301 17.8231V15.0906C51.0922 14.8173 50.8164 14.6807 50.6784 14.5441C50.5405 14.4075 50.2646 14.2708 50.1267 14.1341C49.9888 13.9974 49.713 13.9975 49.575 13.9975C49.4371 13.9975 49.1613 13.9975 49.0234 13.9975C48.6095 13.9975 48.3337 13.9974 48.0579 14.1341C47.7821 14.2708 47.5062 14.4074 47.3683 14.6807C47.0924 14.9539 46.9545 15.2272 46.8166 15.5004C46.6786 15.7736 46.6786 16.1836 46.6786 16.4568C46.6786 16.7301 46.6786 17.14 46.8166 17.4132C46.9545 17.6865 47.0924 17.9598 47.3683 18.233C47.6441 18.5062 47.92 18.6429 48.0579 18.7795C48.3337 18.9162 48.6095 18.9162 49.0234 18.9162ZM63.6431 18.9162C63.9189 18.9162 64.1948 18.9162 64.6086 18.7795C64.8844 18.6429 65.1603 18.5062 65.2982 18.233C65.574 17.9598 65.7119 17.6865 65.8498 17.4132C65.9878 17.14 65.9878 16.7301 65.9878 16.4568C65.9878 16.1836 65.9878 15.7736 65.8498 15.5004C65.7119 15.2272 65.574 14.9539 65.2982 14.6807C65.0224 14.4074 64.7465 14.2708 64.6086 14.1341C64.3327 13.9974 64.0569 13.9975 63.6431 13.9975C63.3673 13.9975 63.0915 13.9974 62.6777 14.1341C62.4018 14.2708 62.126 14.4074 61.988 14.6807C61.7122 14.9539 61.5743 15.2272 61.4364 15.5004C61.2985 15.7736 61.2985 16.1836 61.2985 16.4568C61.2985 16.7301 61.2985 17.14 61.4364 17.4132C61.5743 17.6865 61.7122 17.9598 61.988 18.233C62.2639 18.5062 62.5397 18.6429 62.6777 18.7795C62.9535 18.7795 63.3673 18.9162 63.6431 18.9162ZM63.6431 20.9656C63.0915 20.9656 62.4018 20.829 61.8501 20.5557C61.2985 20.2824 60.7467 20.0092 60.333 19.5992C59.9192 19.1894 59.6434 18.7795 59.3676 18.0964C59.0916 17.5499 58.9537 17.0034 58.9537 16.3202C58.9537 15.7737 59.0916 15.0905 59.3676 14.5441C59.6434 13.9975 59.9192 13.451 60.333 13.0411C60.7467 12.6312 61.2985 12.358 61.8501 12.0846C62.4018 11.8114 62.9535 11.6748 63.6431 11.6748C64.1948 11.6748 64.8844 11.8114 65.4361 12.0846C65.9878 12.358 66.5395 12.6312 66.9533 13.0411C67.367 13.451 67.6428 13.8609 67.9188 14.5441C68.1946 15.0905 68.3325 15.6371 68.3325 16.3202C68.3325 17.0034 68.1946 17.5499 67.9188 18.0964C67.6428 18.6429 67.367 19.1894 66.9533 19.5992C66.5395 20.0092 65.9878 20.2824 65.4361 20.5557C64.8844 20.829 64.3327 20.9656 63.6431 20.9656ZM70.2634 11.2649C70.1255 11.2649 69.8497 11.2649 69.7117 11.1283C69.5738 10.9917 69.4358 10.9917 69.2979 10.8551C69.16 10.7185 69.0221 10.5819 69.0221 10.4452C68.8842 10.3085 68.8842 10.1719 68.8842 9.8987C68.8842 9.76199 68.8842 9.48876 69.0221 9.35215C69.16 9.21544 69.16 9.07883 69.2979 8.94221C69.4358 8.80559 69.5738 8.66898 69.7117 8.66898C69.8497 8.53236 69.9876 8.53236 70.2634 8.53236C70.4013 8.53236 70.6772 8.53236 70.8151 8.66898C70.953 8.80559 71.0909 8.80559 71.2289 8.94221C71.3668 9.07883 71.5047 9.21544 71.5047 9.35215C71.6426 9.48876 71.6426 9.62538 71.6426 9.8987C71.6426 10.0353 71.6426 10.3085 71.5047 10.4452C71.3668 10.5819 71.3668 10.7185 71.2289 10.8551C71.0909 10.9917 70.953 11.1283 70.8151 11.1283C70.5392 11.2649 70.5392 11.2649 70.2634 11.2649ZM69.16 12.0846H71.3668V20.829H69.16V12.0846ZM72.4701 16.3202C72.4701 15.6371 72.6081 15.0905 72.746 14.5441C73.0219 13.9975 73.2977 13.451 73.7115 13.0411C74.1252 12.6312 74.5389 12.358 75.0907 12.0846C75.642 11.8114 76.1937 11.6748 76.8832 11.6748C77.4358 11.6748 77.8495 11.8115 78.2632 11.9481C78.677 12.0847 79.0907 12.358 79.3665 12.6312V9.21553H81.5731V20.5557H79.3665V19.8726C78.9528 20.1458 78.677 20.419 78.2632 20.5557C77.8495 20.6923 77.4358 20.829 76.8832 20.829C76.1937 20.829 75.642 20.6923 75.0907 20.4191C74.5389 20.1458 74.1252 19.8726 73.7115 19.4627C73.2977 19.0528 73.0219 18.6429 72.746 17.9598C72.4701 17.5499 72.4701 17.0034 72.4701 16.3202ZM77.0221 18.9162C77.16 18.9162 77.4358 18.9162 77.5737 18.9162C77.7116 18.9162 77.9874 18.7795 78.1253 18.7795C78.2632 18.6429 78.5391 18.5063 78.677 18.3697C78.8149 18.233 79.0907 17.9598 79.2286 17.8231V15.0906C79.0907 14.8173 78.8149 14.6807 78.677 14.5441C78.5391 14.4075 78.2632 14.2708 78.1253 14.1341C77.9874 13.9974 77.7116 13.9975 77.5737 13.9975C77.4358 13.9975 77.16 13.9975 77.0221 13.9975C76.6074 13.9975 76.3316 13.9974 76.0558 14.1341C75.7799 14.2708 75.5041 14.4074 75.3665 14.6807C75.0907 14.9539 74.9528 15.2272 74.8149 15.5004C74.677 15.7736 74.6769 16.1836 74.6769 16.4568C74.6769 16.7301 74.677 17.14 74.8149 17.4132C74.9528 17.6865 75.0907 17.9598 75.3665 18.233C75.642 18.5062 75.9179 18.6429 76.0558 18.7795C76.4695 18.9162 76.7453 18.9162 77.0221 18.9162ZM58.8158 13.9975C57.2987 13.9975 56.747 14.6806 56.747 15.7737V20.6923H54.5403V15.7737C54.5403 13.7242 55.7815 11.6748 58.8158 11.6748" fill="white"/>
    <path d="M5.83156 0.193338L6.96222 2.0797C4.93897 3.08178 3.57031 4.96818 3.57031 7.14923H9.99706H16.4238C16.4238 4.96818 15.0552 3.02289 13.0319 2.0797L14.1625 0.193338C14.1625 0.193338 14.222 0.0754521 14.103 0.0165044C13.984 -0.0424433 13.9245 0.0754613 13.9245 0.0754613L12.7939 2.02074C11.9608 1.66706 10.9492 1.43126 9.93752 1.43126C8.92594 1.43126 7.97381 1.66706 7.08122 2.02074L5.95064 0.0754613C5.95064 0.0754613 5.8911 -0.0424433 5.77211 0.0165044C5.83156 0.1344 5.83156 0.193338 5.83156 0.193338ZM6.96222 3.90711C7.3193 3.90711 7.55728 4.20185 7.55728 4.49658C7.55728 4.85031 7.25975 5.08606 6.96222 5.08606C6.60515 5.08606 6.36717 4.85031 6.36717 4.49658C6.36717 4.20185 6.60515 3.90711 6.96222 3.90711ZM13.0914 3.90711C13.4484 3.90711 13.6865 4.20185 13.6865 4.49658C13.6865 4.85031 13.389 5.08606 13.0914 5.08606C12.7344 5.08606 12.4964 4.85031 12.4964 4.49658C12.4964 4.20185 12.7344 3.90711 13.0914 3.90711Z" fill="#A4C639"/>
    <path d="M3.51074 7.97447V17.642C3.51074 18.1136 4.1058 18.762 4.58187 18.762H6.12896V22.0632C6.12896 22.8884 6.72412 23.5958 7.49762 23.5958C8.27121 23.5958 8.86627 22.9474 8.86627 22.0632V18.762H11.0681V22.0632C11.0681 22.8884 11.6631 23.5958 12.4367 23.5958C13.2103 23.5958 13.8054 22.9474 13.8054 22.0632V18.762H15.3525C15.8285 18.762 16.4237 18.1136 16.4237 17.642V7.97447H3.51074Z" fill="#A4C639"/>
    <path d="M1.36865 7.73872C2.14225 7.73872 2.73731 8.44607 2.73731 9.27139V14.9894C2.73731 15.8146 2.14225 16.522 1.36865 16.522C0.595059 16.522 0 15.8146 0 14.9894V9.27139C0 8.44607 0.654602 7.73872 1.36865 7.73872Z" fill="#A4C639"/>
    <path d="M18.6849 7.73872C19.4585 7.73872 20.0536 8.44607 20.0536 9.27139V14.9894C20.0536 15.8146 19.4585 16.522 18.6849 16.522C17.9113 16.522 17.3163 15.8146 17.3163 14.9894V9.27139C17.2568 8.44607 17.9113 7.73872 18.6849 7.73872Z" fill="#A4C639"/>
    <path d="M24.8144 1.43129H25.945C26.7186 1.43129 27.2542 1.54919 27.6112 1.72603C27.9683 1.90288 28.2658 2.19762 28.5038 2.61026C28.7419 3.02289 28.8609 3.49449 28.8609 4.02498C28.8609 4.43769 28.8013 4.79132 28.6823 5.08606C28.5633 5.43978 28.3848 5.67554 28.1468 5.91138C27.9087 6.14714 27.6707 6.26501 27.3732 6.38298C27.0757 6.44188 26.6592 6.50086 25.945 6.50086H24.7549V1.43129H24.8144ZM25.826 2.37447V5.55766H26.3021C26.7781 5.55766 27.0757 5.49877 27.2542 5.3808C27.4327 5.26292 27.6112 5.08606 27.7303 4.85031C27.8493 4.61455 27.9087 4.31981 27.9087 3.96609C27.9087 3.43551 27.7303 3.02289 27.4327 2.72816C27.1351 2.43342 26.7186 2.31552 26.1235 2.31552H25.826V2.37447Z" fill="white"/>
    <path d="M32.2529 1.3134C32.967 1.3134 33.6216 1.54919 34.0977 2.07972C34.5737 2.61026 34.8713 3.25874 34.8713 3.96609C34.8713 4.73243 34.6332 5.3219 34.0977 5.8524C33.562 6.38298 32.967 6.61873 32.1934 6.61873C31.4198 6.61873 30.7653 6.38298 30.2892 5.8524C29.8132 5.3219 29.5156 4.67344 29.5156 3.96609C29.5156 3.49449 29.6346 3.02289 29.8727 2.61026C30.1107 2.19761 30.4082 1.90286 30.8247 1.66707C31.2414 1.43128 31.7769 1.3134 32.2529 1.3134ZM32.2529 2.25656C31.7769 2.25656 31.3603 2.43341 31.0628 2.72816C30.7653 3.08187 30.5867 3.49449 30.5867 3.96609C30.5867 4.55557 30.7653 4.96818 31.1818 5.3219C31.4793 5.55766 31.8364 5.73452 32.2529 5.73452C32.729 5.73452 33.086 5.55766 33.4431 5.26292C33.8001 4.96818 33.9191 4.49658 33.9191 4.02498C33.9191 3.55338 33.7406 3.14077 33.4431 2.78713C33.1455 2.43342 32.729 2.25656 32.2529 2.25656Z" fill="white"/>
    <path d="M35.4658 1.43129H36.4179L37.132 4.67344L38.0247 1.43129H38.8577L39.8099 4.67344L40.5239 1.43129H41.476L40.3454 6.50086H39.3932L38.4412 3.19975L37.4891 6.50086H36.5369L35.4658 1.43129Z" fill="white"/>
    <path d="M42.249 1.43129H43.2012L45.4029 4.79132V1.43129H46.355V6.50086H45.4029L43.2012 3.14077V6.50086H42.249V1.43129Z" fill="white"/>
    <path d="M47.5459 1.43129H48.498V5.61664H49.9261V6.55984H47.5459V1.43129Z" fill="white"/>
    <path d="M53.0801 1.3134C53.7941 1.3134 54.4487 1.54919 54.9247 2.07972C55.4008 2.61026 55.6983 3.25874 55.6983 3.96609C55.6983 4.73243 55.4603 5.3219 54.9247 5.8524C54.3892 6.38298 53.7941 6.61873 53.0205 6.61873C52.2469 6.61873 51.5923 6.38298 51.1164 5.8524C50.5808 5.3219 50.3428 4.67344 50.3428 3.96609C50.3428 3.49449 50.4618 3.02289 50.6997 2.61026C50.9378 2.19761 51.2354 1.90286 51.6519 1.66707C52.1874 1.43128 52.604 1.3134 53.0801 1.3134ZM53.0801 2.25656C52.604 2.25656 52.1874 2.43341 51.8899 2.72816C51.5923 3.08187 51.4139 3.49449 51.4139 3.96609C51.4139 4.55557 51.5923 4.96818 52.009 5.3219C52.3065 5.55766 52.6635 5.73452 53.0801 5.73452C53.5561 5.73452 53.9131 5.55766 54.2702 5.26292C54.6272 4.96818 54.7463 4.49658 54.7463 4.02498C54.7463 3.55338 54.5677 3.14077 54.2702 2.78713C53.9727 2.43342 53.5561 2.25656 53.0801 2.25656Z" fill="white"/>
    <path d="M58.2567 1.43129H59.2683L61.232 6.50086H60.2204L59.8039 5.43978H57.7212L57.3046 6.50086H56.293L58.2567 1.43129ZM58.7328 2.78714L58.0187 4.55557H59.3874L58.7328 2.78714Z" fill="white"/>
    <path d="M61.9463 1.43129H63.0769C63.8504 1.43129 64.386 1.54919 64.743 1.72603C65.1001 1.90288 65.3976 2.19762 65.6357 2.61026C65.8737 3.02289 65.9927 3.49449 65.9927 4.02498C65.9927 4.43769 65.9332 4.79132 65.8142 5.08606C65.6952 5.3808 65.5166 5.67554 65.2786 5.91138C65.0406 6.14714 64.8026 6.26501 64.505 6.38298C64.2075 6.44188 63.791 6.50086 63.0769 6.50086H61.8867V1.43129H61.9463ZM62.9578 2.37447V5.55766H63.4339C63.91 5.55766 64.2075 5.49877 64.386 5.3808C64.5646 5.26292 64.7431 5.08606 64.8621 4.85031C64.9811 4.61455 65.0406 4.31981 65.0406 3.96609C65.0406 3.43551 64.8621 3.02289 64.5646 2.72816C64.2671 2.43342 63.8504 2.31552 63.2554 2.31552H62.9578V2.37447Z" fill="white"/>
    <path d="M70.5155 1.43129H71.5271L73.4908 6.50086H72.4792L72.0627 5.43978H69.98L69.5633 6.50086H68.5518L70.5155 1.43129ZM71.051 2.78714L70.3369 4.55557H71.7056L71.051 2.78714Z" fill="white"/>
    <path d="M74.2637 1.43129H75.2753C75.8107 1.43129 76.2272 1.49025 76.4657 1.60815C76.7034 1.72604 76.8823 1.90289 77.0602 2.07973C77.2391 2.25657 77.2988 2.61026 77.2988 2.90501C77.2988 3.25865 77.1795 3.55348 77.0006 3.78923C76.8226 4.02498 76.5841 4.20184 76.2272 4.26083C76.0492 4.31981 75.6914 4.31972 75.2157 4.31972V6.50086H74.2637V1.43129ZM75.2157 3.43551H75.5134C75.751 3.43551 75.9299 3.43551 76.0492 3.37661C76.1676 3.31763 76.2272 3.25864 76.2868 3.19975C76.3465 3.14077 76.3465 3.02289 76.3465 2.90501C76.3465 2.72815 76.2868 2.55132 76.1079 2.49237C75.9896 2.43342 75.8107 2.37447 75.5134 2.37447H75.2157V3.43551Z" fill="white"/>
    <path d="M78.251 1.43129H79.262V3.19975L80.6308 1.43129H81.8208L80.0354 3.67135L81.9997 6.50086H80.8685L79.262 4.26083V6.50086H78.251V1.43129Z" fill="white"/>
</g></symbol><symbol id="app-store" viewBox="0 0 85 24"><g fill="none">
<path opacity="0.85" fill-rule="evenodd" clip-rule="evenodd" d="M11.6861 4.07457C12.3526 3.24212 12.8087 2.1096 12.6821 0.960327C11.7174 1.00298 10.511 1.62674 9.81631 2.4409C9.20164 3.15834 8.65262 4.3343 8.79441 5.44015C9.87806 5.52088 10.9907 4.89406 11.6861 4.07457ZM14.1267 11.2931C14.1047 8.8568 16.1088 7.6622 16.2298 7.5901L16.2322 7.58868C15.08 5.91085 13.294 5.68158 12.6664 5.66335C11.7487 5.56687 10.8478 5.92398 10.1117 6.21575C9.64466 6.4009 9.24388 6.55973 8.94724 6.55973C8.60948 6.55973 8.19715 6.3943 7.73515 6.20884C7.13091 5.96637 6.44167 5.68976 5.72302 5.70446C4.09111 5.72959 2.56438 6.67324 1.72711 8.13853C-0.000905156 11.1263 1.28785 15.517 2.9434 17.9321C3.77158 19.1149 4.73931 20.4356 6.00594 20.3891C6.58054 20.3654 6.98822 20.1941 7.40933 20.0171C7.89638 19.8124 8.40144 19.6 9.20344 19.6C9.95998 19.6 10.4435 19.8057 10.9076 20.0031C11.3524 20.1923 11.7794 20.3739 12.4117 20.3593C13.7416 20.338 14.5789 19.1713 15.3781 17.9778C16.3351 16.6221 16.7195 15.2871 16.7348 15.2185C16.7035 15.2079 14.1519 14.2352 14.1267 11.2931ZM30.3274 20.2194H32.0592L28.7763 10.0838H26.7584L23.4915 20.2194H25.1776L26.0813 17.2422H29.3787L30.3274 20.2194ZM28.2348 13.3466L29.0927 15.9932H26.368L27.2107 13.3466C27.4319 12.505 27.5928 11.8683 27.6926 11.4372H27.7232C27.9741 12.4395 28.1441 13.0762 28.2348 13.3466ZM40.4608 16.4752C40.4608 17.7181 40.1245 18.7006 39.4518 19.4219C38.8494 20.0639 38.1013 20.3845 37.2083 20.3845C36.2444 20.3845 35.552 20.0387 35.1303 19.3472H35.0998V23.1971H33.474V15.3167C33.474 14.5353 33.4534 13.7333 33.4137 12.9108H34.8436L34.9343 14.0692H34.9648C35.507 13.1964 36.3299 12.7608 37.4341 12.7608C38.2973 12.7608 39.018 13.1012 39.5945 13.7829C40.1725 14.4653 40.4608 15.3625 40.4608 16.4752ZM38.8045 16.5346C38.8045 15.8232 38.6443 15.2368 38.3225 14.7753C37.9709 14.2939 37.4989 14.0532 36.9071 14.0532C36.506 14.0532 36.1415 14.1873 35.8159 14.4515C35.4895 14.7181 35.276 15.0662 35.1761 15.4972C35.1258 15.6983 35.1005 15.8628 35.1005 15.9923V17.2109C35.1005 17.7424 35.2637 18.1911 35.5901 18.5574C35.9165 18.9238 36.3405 19.1065 36.8621 19.1065C37.4745 19.1065 37.9511 18.8704 38.292 18.3997C38.6336 17.9283 38.8045 17.3069 38.8045 16.5346ZM47.8678 19.4219C48.5412 18.7006 48.8774 17.7181 48.8774 16.4752C48.8774 15.3625 48.5884 14.4653 48.0127 13.7829C47.4347 13.1012 46.714 12.7608 45.8515 12.7608C44.7466 12.7608 43.9237 13.1964 43.3823 14.0692H43.3518L43.261 12.9108H41.8312C41.8708 13.7333 41.8915 14.5353 41.8915 15.3167V23.1971H43.5172V19.3472H43.5478C43.9687 20.0387 44.6611 20.3845 45.625 20.3845C46.518 20.3845 47.2661 20.0639 47.8678 19.4219ZM46.7384 14.7753C47.0602 15.2368 47.2211 15.8232 47.2211 16.5346C47.2211 17.3069 47.0503 17.9283 46.7087 18.3997C46.3678 18.8704 45.8912 19.1065 45.2789 19.1065C44.7557 19.1065 44.3317 18.9229 44.0053 18.5574C43.6805 18.1911 43.5172 17.7424 43.5172 17.2109V15.9923C43.5172 15.8628 43.5432 15.6983 43.5928 15.4972C43.6926 15.0662 43.9054 14.7181 44.2318 14.4515C44.5582 14.1873 44.922 14.0532 45.3238 14.0532C45.9163 14.0532 46.3869 14.2939 46.7384 14.7753ZM58.2873 17.3769C58.2873 18.239 57.9876 18.9404 57.3859 19.4819C56.7248 20.0737 55.8044 20.3693 54.6216 20.3693C53.5296 20.3693 52.6541 20.159 51.9914 19.7379L52.3681 18.3845C53.0819 18.8155 53.8651 19.0318 54.7184 19.0318C55.3308 19.0318 55.8074 18.8932 56.1498 18.6175C56.4907 18.3418 56.6608 17.9716 56.6608 17.5102C56.6608 17.0989 56.5204 16.7524 56.239 16.4713C55.9591 16.1903 55.4917 15.9291 54.8389 15.6876C53.0621 15.0258 52.1744 14.0562 52.1744 12.7813C52.1744 11.9481 52.4856 11.2649 53.1086 10.7333C53.7294 10.2009 54.5575 9.93519 55.5931 9.93519C56.5166 9.93519 57.2837 10.0959 57.8961 10.4165L57.4897 11.7402C56.9177 11.4294 56.2711 11.2741 55.5473 11.2741C54.9754 11.2741 54.5286 11.415 54.2082 11.6952C53.9375 11.9458 53.8018 12.2512 53.8018 12.613C53.8018 13.0136 53.9566 13.3449 54.2677 13.6053C54.5385 13.846 55.0303 14.1065 55.7441 14.3875C56.6172 14.7387 57.2586 15.1492 57.6712 15.6198C58.0822 16.089 58.2873 16.6762 58.2873 17.3769ZM61.8708 14.1293H63.6629V12.9092H61.8708V11.0897L60.274 11.571V12.9092H59.2064V14.1277H60.274V17.8117C60.274 18.734 60.4555 19.3905 60.8162 19.782C61.1785 20.1727 61.6802 20.3684 62.3223 20.3684C62.8447 20.3684 63.2664 20.3083 63.5867 20.1887L63.5417 18.9556C63.3511 19.0058 63.1101 19.031 62.8195 19.031C62.1866 19.031 61.8708 18.5802 61.8708 17.6776V14.1293ZM71.7482 16.5051C71.7482 17.6284 71.4263 18.5508 70.7849 19.272C70.1111 20.0145 69.2176 20.3847 68.1035 20.3847C67.0299 20.3847 66.1746 20.029 65.5372 19.3177C64.8997 18.6063 64.5809 17.7084 64.5809 16.6262C64.5809 15.4936 64.9088 14.566 65.567 13.8447C66.2234 13.1227 67.1094 12.7617 68.2235 12.7617C69.2971 12.7617 70.1614 13.1174 70.8134 13.8295C71.4376 14.5203 71.7482 15.4121 71.7482 16.5051ZM70.0616 16.5576C70.0616 15.8836 69.9176 15.3055 69.6257 14.8234C69.2844 14.24 68.7975 13.9491 68.1658 13.9491C67.5123 13.9491 67.0157 14.2408 66.6751 14.8234C66.3832 15.3063 66.2384 15.8935 66.2384 16.5881C66.2384 17.2621 66.3832 17.8401 66.6751 18.3215C67.0262 18.9049 67.5176 19.1958 68.1515 19.1958C68.772 19.1958 69.2596 18.8988 69.6107 18.3063C69.9108 17.8151 70.0616 17.2309 70.0616 16.5576ZM76.5212 14.2939C76.7012 14.2939 76.8723 14.3091 77.0336 14.3389V12.7905C76.9128 12.7715 76.777 12.7608 76.6269 12.7608C76.2053 12.7608 75.8137 12.891 75.4521 13.1523C75.0815 13.4424 74.8106 13.8293 74.6388 14.3099H74.5938L74.5345 12.9116H73.1181C73.1586 13.6031 73.1796 14.3701 73.1796 15.2124L73.1638 20.2192H74.7889V16.3845C74.7889 15.8034 74.9247 15.3221 75.1955 14.9413C75.5068 14.5095 75.9487 14.2939 76.5212 14.2939ZM84.3049 16.2193C84.3049 16.5102 84.2854 16.7554 84.2456 16.9558H79.3675C79.3871 17.6778 79.6226 18.23 80.0758 18.6108C80.4862 18.9512 81.0181 19.1218 81.6708 19.1218C82.3933 19.1218 83.052 19.0067 83.6446 18.7761L83.899 19.9032C83.2065 20.2048 82.3888 20.3548 81.4457 20.3548C80.3114 20.3548 79.4201 20.0212 78.7719 19.3549C78.1252 18.6884 77.8011 17.7935 77.8011 16.6709C77.8011 15.5689 78.1027 14.6511 78.7058 13.9192C79.3375 13.1378 80.1906 12.7471 81.2641 12.7471C82.319 12.7471 83.1172 13.1378 83.6597 13.9192C84.0888 14.5399 84.3049 15.3076 84.3049 16.2193ZM82.7541 15.7981C82.7654 15.3168 82.6588 14.9009 82.439 14.5498C82.1569 14.0982 81.7248 13.8727 81.1434 13.8727C80.6114 13.8727 80.1793 14.0929 79.8492 14.5346C79.5784 14.8857 79.4171 15.3069 79.3675 15.7974L82.7541 15.7981ZM27.7482 5.87311C28.2858 5.41997 28.555 4.74521 28.555 3.84875C28.555 3.0506 28.3057 2.4375 27.8084 2.00872C27.3646 1.62944 26.7065 1.4398 25.8333 1.4398C25.3392 1.4398 24.8817 1.47483 24.4569 1.54337V6.44127C24.7825 6.48088 25.1714 6.50069 25.6259 6.50069C26.5425 6.50069 27.2502 6.2913 27.7482 5.87311ZM27.2502 2.53347C27.5583 2.84421 27.7124 3.28975 27.7124 3.87088C27.7124 4.52126 27.5445 5.01634 27.2121 5.35598C26.8796 5.69568 26.4076 5.86554 25.796 5.86554C25.5344 5.86554 25.3545 5.85863 25.2561 5.8434V2.11991C25.4338 2.08488 25.648 2.06813 25.8996 2.06813C26.4922 2.06813 26.9421 2.22349 27.2502 2.53347ZM33.0231 4.63125C33.0231 5.18342 32.8652 5.63581 32.5495 5.99068C32.2185 6.35552 31.7801 6.53752 31.2326 6.53752C30.7048 6.53752 30.2846 6.36309 29.9712 6.01281C29.6586 5.6632 29.5022 5.22221 29.5022 4.69059C29.5022 4.13467 29.6631 3.67845 29.9865 3.32429C30.3098 2.97014 30.7444 2.79269 31.292 2.79269C31.8197 2.79269 32.2437 2.9671 32.5647 3.31668C32.8698 3.65635 33.0231 4.09505 33.0231 4.63125ZM32.1941 4.65713C32.1941 4.32583 32.1225 4.04171 31.9799 3.80486C31.8121 3.51851 31.5734 3.37532 31.263 3.37532C30.942 3.37532 30.6979 3.51851 30.5302 3.80486C30.3868 4.04171 30.3159 4.3304 30.3159 4.67161C30.3159 5.00291 30.3876 5.28695 30.5302 5.5238C30.7033 5.81017 30.9442 5.95339 31.2554 5.95339C31.5604 5.95339 31.7999 5.80792 31.9722 5.51623C32.1202 5.2748 32.1941 4.98844 32.1941 4.65713ZM38.2294 2.86689H39.0139L37.8893 6.45635H37.1572L36.6913 4.89736C36.5731 4.50813 36.477 4.12124 36.4023 3.73742H36.3878C36.3184 4.13197 36.2223 4.51804 36.0987 4.89736L35.6039 6.45635H34.8634L33.8057 2.86613H34.627L35.0334 4.57288C35.1318 4.97658 35.2126 5.36115 35.2775 5.72524H35.2919C35.3514 5.42515 35.4498 5.04283 35.5886 4.58053L36.0987 2.86689H36.75L37.2388 4.544C37.357 4.95295 37.4531 5.34667 37.5271 5.72599H37.5492C37.6033 5.35658 37.685 4.96285 37.7932 4.544L38.2294 2.86689ZM43.157 6.4562H42.3579V4.3998C42.3579 3.76615 42.1168 3.44933 41.6334 3.44933C41.3962 3.44933 41.2048 3.53616 41.0561 3.71056C40.9089 3.88499 40.8342 4.09063 40.8342 4.32598V6.45545H40.035V3.89181C40.035 3.57652 40.0251 3.23456 40.006 2.86442H40.7083L40.7458 3.42572H40.7678C40.8609 3.25132 40.9997 3.10737 41.182 2.99237C41.3985 2.85833 41.641 2.79054 41.9064 2.79054C42.2419 2.79054 42.5211 2.89869 42.743 3.11575C43.019 3.38155 43.157 3.77838 43.157 4.30542V6.4562ZM44.5619 6.4562H45.3604V1.21859H44.5619V6.4562ZM50.066 4.63125C50.066 5.18342 49.9081 5.63581 49.5924 5.99068C49.2615 6.35552 48.8222 6.53752 48.2754 6.53752C47.747 6.53752 47.3268 6.36309 47.0141 6.01281C46.7014 5.6632 46.5451 5.22221 46.5451 4.69059C46.5451 4.13467 46.706 3.67845 47.0294 3.32429C47.3527 2.97014 47.7873 2.79269 48.3341 2.79269C48.8626 2.79269 49.2859 2.9671 49.6076 3.31668C49.9127 3.65635 50.066 4.09505 50.066 4.63125ZM49.2363 4.65713C49.2363 4.32583 49.1646 4.04171 49.022 3.80486C48.855 3.51851 48.6155 3.37532 48.3059 3.37532C47.9841 3.37532 47.7401 3.51851 47.5731 3.80486C47.4297 4.04171 47.3588 4.3304 47.3588 4.67161C47.3588 5.00291 47.4305 5.28695 47.5731 5.5238C47.7462 5.81017 47.9872 5.95339 48.2983 5.95339C48.6034 5.95339 48.842 5.80792 49.0143 5.51623C49.163 5.2748 49.2363 4.98844 49.2363 4.65713ZM53.2157 6.45605H53.9333C53.8989 6.24433 53.8814 5.95872 53.8814 5.59995V4.27781C53.8814 3.28774 53.4101 2.79269 52.4706 2.79269C51.9841 2.79269 51.5715 2.89627 51.2375 3.10266L51.3999 3.62665C51.6699 3.44996 51.9826 3.36085 52.3371 3.36085C52.8351 3.36085 53.0837 3.59695 53.0837 4.06992V4.13692C52.418 4.13159 51.901 4.2451 51.5334 4.47662C51.1651 4.70815 50.9821 5.04253 50.9821 5.48119C50.9821 5.77138 51.0758 6.01581 51.2635 6.2123C51.4701 6.42859 51.7446 6.53752 52.084 6.53752C52.5385 6.53752 52.8885 6.37225 53.134 6.04252H53.1562L53.2157 6.45605ZM53.1036 4.66853V5.22221C53.1036 5.2763 53.099 5.32349 53.0906 5.36235C53.0562 5.53528 52.964 5.67618 52.8138 5.78736C52.6643 5.8978 52.5003 5.95339 52.325 5.95339C52.1686 5.95339 52.0375 5.90695 51.9345 5.81324C51.8316 5.71954 51.7812 5.5794 51.7812 5.39206C51.7812 4.89473 52.222 4.6533 53.1036 4.66853ZM58.475 6.4562H57.7659L57.7285 5.87964H57.7064C57.4799 6.3183 57.094 6.53767 56.5518 6.53767C56.1186 6.53767 55.758 6.36782 55.472 6.02819C55.186 5.68848 55.0434 5.24749 55.0434 4.70597C55.0434 4.12491 55.1982 3.65422 55.5094 3.29474C55.8106 2.95963 56.1797 2.79208 56.6189 2.79208C57.1017 2.79208 57.4395 2.9543 57.6316 3.27951H57.6469V1.21859H58.4468V5.48892C58.4468 5.83853 58.456 6.16068 58.475 6.4562ZM57.6469 4.94207V4.34346C57.6469 4.23992 57.6393 4.15612 57.6248 4.09213C57.5798 3.90022 57.4829 3.73877 57.3357 3.60853C57.187 3.47829 57.0078 3.41279 56.8012 3.41279C56.503 3.41279 56.2697 3.53084 56.0981 3.76773C55.928 4.00458 55.8419 4.30692 55.8419 4.67634C55.8419 5.0312 55.9234 5.31914 56.0874 5.54076C56.2605 5.77686 56.4938 5.89487 56.786 5.89487C57.0483 5.89487 57.2579 5.79666 57.4174 5.59935C57.5714 5.41735 57.6469 5.19798 57.6469 4.94207ZM64.8369 5.99068C65.1526 5.63581 65.3104 5.18342 65.3104 4.63125C65.3104 4.09505 65.1572 3.65635 64.8521 3.31668C64.5319 2.9671 64.1071 2.79269 63.5802 2.79269C63.0318 2.79269 62.5971 2.97014 62.2739 3.32429C61.9505 3.67845 61.7896 4.13467 61.7896 4.69059C61.7896 5.22221 61.9459 5.6632 62.2586 6.01281C62.5728 6.36309 62.993 6.53752 63.5199 6.53752C64.0682 6.53752 64.5059 6.35552 64.8369 5.99068ZM64.268 3.80486C64.4106 4.04171 64.4823 4.32583 64.4823 4.65713C64.4823 4.98844 64.4075 5.2748 64.2603 5.51623C64.088 5.80792 63.8478 5.95339 63.5428 5.95339C63.2316 5.95339 62.9906 5.81017 62.8176 5.5238C62.6749 5.28695 62.6033 5.00291 62.6033 4.67161C62.6033 4.3304 62.6742 4.04171 62.8176 3.80486C62.9861 3.51851 63.2301 3.37532 63.5504 3.37532C63.8615 3.37532 64.0995 3.51851 64.268 3.80486ZM69.6062 6.4562H68.808V4.3998C68.808 3.76615 68.5671 3.44933 68.0832 3.44933C67.8454 3.44933 67.6541 3.53616 67.5063 3.71056C67.3585 3.88499 67.2842 4.09063 67.2842 4.32598V6.45545H66.4845V3.89181C66.4845 3.57652 66.4755 3.23456 66.456 2.86442H67.1582L67.195 3.42572H67.2175C67.3113 3.25132 67.45 3.10737 67.6316 2.99237C67.8492 2.85833 68.0908 2.79054 68.3571 2.79054C68.6917 2.79054 68.9708 2.89869 69.1928 3.11575C69.4697 3.38155 69.6062 3.77838 69.6062 4.30542V6.4562ZM74.1054 3.46396H74.9847V2.86533H74.1046V1.97197L73.3214 2.20807V2.8661H72.7962V3.46396H73.3214V5.27428C73.3214 5.72749 73.4099 6.05039 73.5885 6.2423C73.7663 6.43421 74.0116 6.53025 74.3275 6.53025C74.5833 6.53025 74.7904 6.50054 74.9487 6.44112L74.9277 5.8356C74.8339 5.86073 74.7153 5.87296 74.5713 5.87296C74.2622 5.87296 74.1054 5.65134 74.1054 5.20803V3.46396ZM79.2168 6.4562H78.4163V4.4151C78.4163 3.77148 78.1754 3.44935 77.693 3.44935C77.3224 3.44935 77.0688 3.63595 76.93 4.00915C76.9068 4.08755 76.8933 4.18351 76.8933 4.29627V6.45545H76.0943V1.21859H76.8933V3.38233H76.9083C77.1596 2.98858 77.5205 2.79208 77.9879 2.79208C78.3187 2.79208 78.5926 2.90023 78.8101 3.11729C79.081 3.38766 79.2168 3.78978 79.2168 4.3214V6.4562ZM83.5509 4.85302C83.5696 4.75474 83.5809 4.6344 83.5809 4.49125C83.5809 4.04344 83.4743 3.66641 83.2605 3.36176C82.9949 2.97791 82.6018 2.78598 82.0849 2.78598C81.5567 2.78598 81.1381 2.97791 80.8283 3.36176C80.5319 3.72121 80.3849 4.1721 80.3849 4.71362C80.3849 5.26505 80.5424 5.70446 80.8613 6.03194C81.1786 6.35949 81.6168 6.52319 82.1734 6.52319C82.6378 6.52319 83.0392 6.44929 83.3798 6.30157L83.2553 5.74715C82.9634 5.86058 82.6401 5.91693 82.286 5.91693C81.9656 5.91693 81.7038 5.8332 81.5012 5.6656C81.2792 5.47826 81.1644 5.20788 81.1539 4.85302H83.5509ZM82.6633 3.67173C82.7714 3.84387 82.8239 4.04794 82.8179 4.28486H81.1539C81.1801 4.04344 81.2581 3.83697 81.3909 3.66412C81.5537 3.44706 81.7661 3.33891 82.0271 3.33891C82.313 3.33891 82.5245 3.45011 82.6633 3.67173Z" fill="white"/>
</g></symbol><symbol id="arrow-down" viewBox="0 0 11 8"><g fill="none">
<path d="M6.27611 7.04478C5.87592 7.53733 5.12408 7.53733 4.72389 7.04478L0.324855 1.63059C-0.206125 0.977077 0.258936 8.12147e-08 1.10097 1.35535e-07L9.89903 7.03103e-07C10.7411 7.57423e-07 11.2061 0.977079 10.6751 1.63059L6.27611 7.04478Z" fill="#EA3F3F"/>
</g></symbol><symbol id="arrow-right-dark" viewBox="0 0 17 10"><g fill="none">
<path d="M1 5H15M15 5L10.3333 9M15 5L10.3333 1" stroke="#004188" stroke-width="1.5" stroke-linecap="round"/>
</g></symbol><symbol id="arrow-right-darkgray" viewBox="0 0 17 10"><g fill="none">
<path d="M1 5H15M15 5L10.3333 9M15 5L10.3333 1" stroke="#ADADAD" stroke-width="1.5" stroke-linecap="round"/>
</g></symbol><symbol id="arrow-right-grey" viewBox="0 0 17 10"><g fill="none">
<path d="M1 5H15M15 5L10.3333 9M15 5L10.3333 1" stroke="#DBDBDB" stroke-width="1.5" stroke-linecap="round"/>
</g></symbol><symbol id="arrow-right-light" viewBox="0 0 17 10"><g fill="none">
<path d="M1 5H15M15 5L10.3333 9M15 5L10.3333 1" stroke="white" stroke-width="1.5" stroke-linecap="round"/>
</g></symbol><symbol id="arrow-up" viewBox="0 0 11 8"><g fill="none">
<path d="M6.27611 0.955216C5.87592 0.462673 5.12408 0.462674 4.72389 0.955217L0.324855 6.36941C-0.206125 7.02292 0.258936 8 1.10097 8L9.89903 8C10.7411 8 11.2061 7.02292 10.6751 6.36941L6.27611 0.955216Z" fill="#28A745"/>
</g></symbol><symbol id="auth" viewBox="0 0 15 14"><g fill="none">
<path d="M9.41176 1L12.4706 1C13.3153 1 14 1.67157 14 2.5V11.5C14 12.3284 13.3153 13 12.4706 13H9.41176M10.1765 7L1 7M10.1765 7L7.11765 10M10.1765 7L7.11765 4" stroke="white" stroke-width="1.5" stroke-linecap="round" stroke-linejoin="round"/>
</g></symbol><symbol id="calendar" viewBox="0 0 18 20"><g fill="none">
<path d="M12 1V5M6 1V5M1 9H17M17 9V17C17 18.1046 16.1046 19 15 19H3C1.89543 19 1 18.1046 1 17V5C1 3.89543 1.89543 3 3 3H15C16.1046 3 17 3.89543 17 5V9Z" stroke="#212529" stroke-width="1.5" stroke-linecap="round" stroke-linejoin="round"/>
</g></symbol><symbol id="close" viewBox="0 0 50 50"><g fill="#000000"><path d="M 9.15625 6.3125 L 6.3125 9.15625 L 22.15625 25 L 6.21875 40.96875 L 9.03125 43.78125 L 25 27.84375 L 40.9375 43.78125 L 43.78125 40.9375 L 27.84375 25 L 43.6875 9.15625 L 40.84375 6.3125 L 25 22.15625 Z"/></g></symbol><symbol id="crown" viewBox="0 0 981.9 981.901"><g style="enable-background:new 0 0 981.9 981.901;">
<g>
	<path d="M861,863.05c0-30.4-24.6-55-55-55H175.9c-30.4,0-55,24.6-55,55s24.6,55,55,55H806C836.4,918.05,861,893.35,861,863.05z"/>
	<path d="M65.4,417.85c0.9,0,1.7,0,2.6-0.1l87.2,315.6H491h335.7l87.2-315.6c0.899,0,1.699,0.1,2.6,0.1c36.1,0,65.4-29.3,65.4-65.4
		s-29.301-65.4-65.4-65.4s-65.4,29.3-65.4,65.4c0,7,1.101,13.8,3.2,20.1l-157.7,92.2l-169.5-281
		c17.601-11.7,29.301-31.8,29.301-54.5c0-36.1-29.301-65.4-65.4-65.4s-65.4,29.3-65.4,65.4c0,22.8,11.601,42.8,29.301,54.5
		l-169.5,281l-157.7-92.2c2-6.3,3.2-13.1,3.2-20.1c0-36.1-29.3-65.4-65.4-65.4c-36.2,0-65.5,29.3-65.5,65.4S29.3,417.85,65.4,417.85
		z"/>
</g>
<g>
</g>
<g>
</g>
<g>
</g>
<g>
</g>
<g>
</g>
<g>
</g>
<g>
</g>
<g>
</g>
<g>
</g>
<g>
</g>
<g>
</g>
<g>
</g>
<g>
</g>
<g>
</g>
<g>
</g>
</g></symbol><symbol id="done-small" viewBox="0 0 14 11"><g fill="none">
<path d="M1.79999 5.97142L5.09999 9.39999L12.8 1.39999" stroke="#0FD4E2" stroke-width="2" stroke-linecap="round"/>
</g></symbol><symbol id="download" viewBox="0 0 16 17"><g fill="none">
<path d="M15 10.625V14.125C15 15.0915 14.2165 15.875 13.25 15.875H2.75C1.7835 15.875 1 15.0915 1 14.125V10.625M8 11.5L8 1M8 11.5L4.5 8M8 11.5L11.5 8" stroke="white" stroke-width="1.5" stroke-linecap="round" stroke-linejoin="round"/>
</g></symbol><symbol id="exchange-cycle-dark" viewBox="0 0 16 16"><g fill="none">
<path d="M5.08835 6.72752H1M1 6.72752C1.63636 6.09115 4.51111 1.00024 8 1.00024C11.4889 1.00024 14.3915 3.46918 15 6.72752M1 6.72752V2.70053M10.9116 9.27297H15M15 9.27297C14.3636 9.90933 12.1364 15.0002 8 15.0002C4.51111 15.0002 1.60854 12.5313 1 9.27297M15 9.27297V13.3099" stroke="#0056B3" stroke-width="1.5" stroke-linecap="round" stroke-linejoin="round"/>
</g></symbol><symbol id="exchange-cycle-light" viewBox="0 0 16 16"><g fill="none">
<path d="M5.08835 6.72727H1M1 6.72727C1.63636 6.09091 4.51111 1 8 1C11.4889 1 14.3915 3.46894 15 6.72727M1 6.72727V2.70028M10.9116 9.27273H15M15 9.27273C14.3636 9.90909 12.1364 15 8 15C4.51111 15 1.60854 12.5311 1 9.27273M15 9.27273V13.3097" stroke="white" stroke-width="1.5" stroke-linecap="round" stroke-linejoin="round"/>
</g></symbol><symbol id="github" viewBox="0 0 496 512"><!--! Font Awesome Pro 6.1.1 by @fontawesome - https://fontawesome.com License - https://fontawesome.com/license (Commercial License) Copyright 2022 Fonticons, Inc. --><path d="M165.9 397.4c0 2-2.3 3.6-5.2 3.6-3.3.3-5.6-1.3-5.6-3.6 0-2 2.3-3.6 5.2-3.6 3-.3 5.6 1.3 5.6 3.6zm-31.1-4.5c-.7 2 1.3 4.3 4.3 4.9 2.6 1 5.6 0 6.2-2s-1.3-4.3-4.3-5.2c-2.6-.7-5.5.3-6.2 2.3zm44.2-1.7c-2.9.7-4.9 2.6-4.6 4.9.3 2 2.9 3.3 5.9 2.6 2.9-.7 4.9-2.6 4.6-4.6-.3-1.9-3-3.2-5.9-2.9zM244.8 8C106.1 8 0 113.3 0 252c0 110.9 69.8 205.8 169.5 239.2 12.8 2.3 17.3-5.6 17.3-12.1 0-6.2-.3-40.4-.3-61.4 0 0-70 15-84.7-29.8 0 0-11.4-29.1-27.8-36.6 0 0-22.9-15.7 1.6-15.4 0 0 24.9 2 38.6 25.8 21.9 38.6 58.6 27.5 72.9 20.9 2.3-16 8.8-27.1 16-33.7-55.9-6.2-112.3-14.3-112.3-110.5 0-27.5 7.6-41.3 23.6-58.9-2.6-6.5-11.1-33.3 2.6-67.9 20.9-6.5 69 27 69 27 20-5.6 41.5-8.5 62.8-8.5s42.8 2.9 62.8 8.5c0 0 48.1-33.6 69-27 13.7 34.7 5.2 61.4 2.6 67.9 16 17.7 25.8 31.5 25.8 58.9 0 96.5-58.9 104.2-114.8 110.5 9.2 7.9 17 22.9 17 46.4 0 33.7-.3 75.4-.3 83.6 0 6.5 4.6 14.4 17.3 12.1C428.2 457.8 496 362.9 496 252 496 113.3 383.5 8 244.8 8zM97.2 352.9c-1.3 1-1 3.3.7 5.2 1.6 1.6 3.9 2.3 5.2 1 1.3-1 1-3.3-.7-5.2-1.6-1.6-3.9-2.3-5.2-1zm-10.8-8.1c-.7 1.3.3 2.9 2.3 3.9 1.6 1 3.6.7 4.3-.7.7-1.3-.3-2.9-2.3-3.9-2-.6-3.6-.3-4.3.7zm32.4 35.6c-1.6 1.3-1 4.3 1.3 6.2 2.3 2.3 5.2 2.6 6.5 1 1.3-1.3.7-4.3-1.3-6.2-2.2-2.3-5.2-2.6-6.5-1zm-11.4-14.7c-1.6 1-1.6 3.6 0 5.9 1.6 2.3 4.3 3.3 5.6 2.3 1.6-1.3 1.6-3.9 0-6.2-1.4-2.3-4-3.3-5.6-2z"/></symbol><symbol id="google-play-label" viewBox="0 0 86 18"><g fill="none">
<path fill-rule="evenodd" clip-rule="evenodd" d="M27.8526 4.7556C25.5057 4.7556 23.6033 6.54363 23.6033 9.00996C23.6033 11.4539 25.5181 13.2643 27.8526 13.2643C30.1996 13.2643 32.102 11.4638 32.102 9.00996C32.102 6.54363 30.1996 4.7556 27.8526 4.7556ZM27.8526 11.5785C26.5686 11.5785 25.4635 10.5112 25.4635 8.99999C25.4635 7.46632 26.5711 6.42144 27.8526 6.42144C29.1366 6.42144 30.2418 7.46632 30.2418 8.99999C30.2443 10.5212 29.1366 11.5785 27.8526 11.5785ZM18.5816 4.7556C16.2347 4.7556 14.3323 6.54363 14.3323 9.00996C14.3323 11.4539 16.2471 13.2643 18.5816 13.2643C20.9285 13.2643 22.8309 11.4638 22.8309 9.00996C22.8309 6.54363 20.9261 4.7556 18.5816 4.7556ZM18.5816 11.5785C17.2976 11.5785 16.1924 10.5112 16.1924 8.99999C16.1924 7.46632 17.3001 6.42144 18.5816 6.42144C19.8656 6.42144 20.9708 7.46632 20.9708 8.99999C20.9708 10.5212 19.8656 11.5785 18.5816 11.5785ZM7.54973 6.05485V7.85535H11.8537C11.7221 8.86533 11.3893 9.61096 10.8801 10.1222C10.2493 10.7556 9.27578 11.4439 7.55966 11.4439C4.91469 11.4439 2.84591 9.29924 2.84591 6.64338C2.84591 3.98752 4.91469 1.84288 7.55966 1.84288C8.98769 1.84288 10.0283 2.40897 10.8007 3.13216L12.0722 1.85535C10.9994 0.822933 9.57133 0.0324097 7.5696 0.0324097C3.94115 0.0324097 0.896332 2.99999 0.896332 6.63341C0.896332 10.2768 3.93867 13.2344 7.5696 13.2344C9.52911 13.2344 10.9994 12.591 12.1617 11.379C13.3463 10.1895 13.7213 8.51121 13.7213 7.1571C13.7213 6.73565 13.689 6.3566 13.622 6.0349H7.54724C7.54973 6.03241 7.54973 6.05485 7.54973 6.05485ZM52.6731 7.45635C52.318 6.50124 51.2451 4.74563 49.0446 4.74563C46.8641 4.74563 45.0511 6.46882 45.0511 8.99999C45.0511 11.389 46.8442 13.2544 49.2557 13.2544C51.1929 13.2544 52.3204 12.0648 52.7849 11.3666L51.3469 10.399C50.8701 11.1097 50.2069 11.576 49.2657 11.576C48.3145 11.576 47.6489 11.1421 47.2068 10.2868L52.8718 7.93016C52.8718 7.93266 52.6731 7.45635 52.6731 7.45635ZM46.8964 8.87779C46.8517 7.2344 48.168 6.39899 49.1092 6.39899C49.8518 6.39899 50.4702 6.76558 50.6813 7.29924L46.8964 8.87779ZM42.2944 13H44.1546V0.501237H42.2944V13ZM39.2397 5.70074H39.1726C38.7529 5.19949 37.9557 4.74563 36.9374 4.74563C34.8239 4.74563 32.8768 6.61346 32.8768 9.01246C32.8768 11.4015 34.814 13.2469 36.9374 13.2469C37.9432 13.2469 38.7529 12.7905 39.1726 12.2793H39.2397V12.8903C39.2397 14.5137 38.3754 15.389 36.9821 15.389C35.8422 15.389 35.1344 14.5661 34.8463 13.8778L33.2295 14.5561C33.6939 15.6783 34.9332 17.0673 36.9796 17.0673C39.1602 17.0673 41.0079 15.778 41.0079 12.6334V4.99999H39.2496V5.70074C39.2521 5.70074 39.2397 5.70074 39.2397 5.70074ZM37.1038 11.5785C35.8198 11.5785 34.7469 10.5012 34.7469 9.01246C34.7469 7.51121 35.8198 6.42393 37.1038 6.42393C38.3754 6.42393 39.3613 7.52368 39.3613 9.01246C39.3738 10.5012 38.3779 11.5785 37.1038 11.5785ZM61.3829 0.501237H56.9348V13H58.795V8.26682H61.3853C63.4442 8.26682 65.4683 6.76807 65.4683 4.38902C65.4683 2.00997 63.4516 0.501237 61.3829 0.501237ZM61.4375 6.52119H58.7925V2.23191H61.4375C62.8308 2.23191 63.618 3.38652 63.618 4.37655C63.618 5.3566 62.8208 6.52119 61.4375 6.52119ZM72.9239 4.73316C71.5728 4.73316 70.1796 5.33415 69.6034 6.64338L71.2524 7.33166C71.6076 6.64338 72.2583 6.40897 72.9462 6.40897C73.9098 6.40897 74.8834 6.98752 74.9057 8.01994V8.15211C74.5729 7.96258 73.8428 7.67331 72.9686 7.67331C71.1879 7.67331 69.3823 8.65086 69.3823 10.4838C69.3823 12.1621 70.8427 13.2394 72.4694 13.2394C73.7186 13.2394 74.4065 12.6733 74.8362 12.0174H74.9032V12.985H76.6963V8.197C76.6963 5.96757 75.0473 4.73316 72.9239 4.73316ZM72.6904 11.5785C72.0819 11.5785 71.2301 11.2793 71.2301 10.5112C71.2301 9.54363 72.293 9.17705 73.1995 9.17705C74.0191 9.17705 74.4065 9.3541 74.8933 9.59849C74.7592 10.7207 73.8154 11.5686 72.6904 11.5785ZM83.238 4.99999L81.1021 10.4214H81.0351L78.8223 4.99999H76.8205L80.141 12.5785L78.2486 16.7905H80.1857L85.2943 4.99999H83.238ZM66.494 13H68.3541V0.501237H66.494V13Z" fill="white"/>
</g></symbol><symbol id="google-play" viewBox="0 0 91 22"><g fill="none">
<g opacity="0.85">
<path d="M29.8028 3.60091C29.8028 4.24921 29.6077 4.7663 29.2173 5.14447C28.7802 5.59982 28.2025 5.83135 27.4999 5.83135C26.8207 5.83135 26.2508 5.59982 25.7746 5.13675C25.2984 4.67368 25.0642 4.09485 25.0642 3.41568C25.0642 2.7288 25.2984 2.15768 25.7746 1.69461C26.2508 1.23155 26.8207 1.00001 27.4999 1.00001C27.8356 1.00001 28.1556 1.06175 28.4601 1.19296C28.7645 1.32416 29.0066 1.49395 29.1939 1.71005L28.7802 2.11909C28.4679 1.75636 28.0463 1.57113 27.4999 1.57113C27.0081 1.57113 26.5787 1.74092 26.2196 2.08822C25.8605 2.4278 25.6809 2.87544 25.6809 3.4234C25.6809 3.97137 25.8605 4.419 26.2196 4.75858C26.5787 5.09816 27.0081 5.27567 27.4999 5.27567C28.0229 5.27567 28.4601 5.10588 28.8114 4.75858C29.0378 4.53476 29.1705 4.21833 29.2017 3.81701H27.4999V3.26133H29.7716C29.7872 3.37709 29.8028 3.49286 29.8028 3.60091Z" fill="white"/>
<path d="M33.3938 1.67145H31.2626V3.13783H33.1831V3.69352H31.2626V5.1599H33.3938V5.73102H30.6615V1.10033H33.3938V1.67145Z" fill="white"/>
<path d="M35.9388 5.73102H35.3377V1.67145H34.0262V1.10033H37.2425V1.67145H35.931V5.73102H35.9388Z" fill="white"/>
<path d="M39.5691 5.73102V1.10033H40.1702V5.73102H39.5691Z" fill="white"/>
<path d="M42.8398 5.73102H42.2387V1.67145H40.9272V1.10033H44.1436V1.67145H42.832V5.73102H42.8398Z" fill="white"/>
<path d="M50.2485 5.12903C49.7879 5.59982 49.218 5.83135 48.531 5.83135C47.844 5.83135 47.2742 5.59982 46.8136 5.12903C46.353 4.65825 46.1266 4.08713 46.1266 3.41568C46.1266 2.74423 46.353 2.1654 46.8136 1.70233C47.2742 1.23155 47.844 1.00001 48.531 1.00001C49.2102 1.00001 49.7801 1.23155 50.2485 1.70233C50.7091 2.17312 50.9433 2.74423 50.9433 3.41568C50.9355 4.09485 50.7013 4.66597 50.2485 5.12903ZM47.2586 4.74314C47.602 5.09045 48.0314 5.26024 48.531 5.26024C49.0307 5.26024 49.46 5.09045 49.8035 4.74314C50.147 4.39584 50.3266 3.95593 50.3266 3.41568C50.3266 2.87544 50.1548 2.43552 49.8035 2.08822C49.46 1.74092 49.0307 1.57113 48.531 1.57113C48.0314 1.57113 47.602 1.74092 47.2586 2.08822C46.9151 2.43552 46.7355 2.87544 46.7355 3.41568C46.7355 3.95593 46.9073 4.39584 47.2586 4.74314Z" fill="white"/>
<path d="M51.7786 5.73102V1.10033H52.5124L54.7919 4.70455H54.8154L54.7919 3.80928V1.10033H55.393V5.73102H54.7685L52.3875 1.95701H52.3641L52.3875 2.85228V5.73102H51.7786Z" fill="white"/>
<path d="M29.8028 3.60091C29.8028 4.24921 29.6077 4.7663 29.2173 5.14447C28.7802 5.59982 28.2025 5.83135 27.4999 5.83135C26.8207 5.83135 26.2508 5.59982 25.7746 5.13675C25.2984 4.67368 25.0642 4.09485 25.0642 3.41568C25.0642 2.7288 25.2984 2.15768 25.7746 1.69461C26.2508 1.23155 26.8207 1.00001 27.4999 1.00001C27.8356 1.00001 28.1556 1.06175 28.4601 1.19296C28.7645 1.32416 29.0066 1.49395 29.1939 1.71005L28.7802 2.11909C28.4679 1.75636 28.0463 1.57113 27.4999 1.57113C27.0081 1.57113 26.5787 1.74092 26.2196 2.08822C25.8605 2.4278 25.6809 2.87544 25.6809 3.4234C25.6809 3.97137 25.8605 4.419 26.2196 4.75858C26.5787 5.09816 27.0081 5.27567 27.4999 5.27567C28.0229 5.27567 28.4601 5.10588 28.8114 4.75858C29.0378 4.53476 29.1705 4.21833 29.2017 3.81701H27.4999V3.26133H29.7716C29.7872 3.37709 29.8028 3.49286 29.8028 3.60091Z" stroke="white" stroke-width="0.178577" stroke-miterlimit="10"/>
<path d="M33.3938 1.67145H31.2626V3.13783H33.1831V3.69352H31.2626V5.1599H33.3938V5.73102H30.6615V1.10033H33.3938V1.67145Z" stroke="white" stroke-width="0.178577" stroke-miterlimit="10"/>
<path d="M35.9388 5.73102H35.3377V1.67145H34.0262V1.10033H37.2425V1.67145H35.931V5.73102H35.9388Z" stroke="white" stroke-width="0.178577" stroke-miterlimit="10"/>
<path d="M39.5691 5.73102V1.10033H40.1702V5.73102H39.5691Z" stroke="white" stroke-width="0.178577" stroke-miterlimit="10"/>
<path d="M42.8398 5.73102H42.2387V1.67145H40.9272V1.10033H44.1436V1.67145H42.832V5.73102H42.8398Z" stroke="white" stroke-width="0.178577" stroke-miterlimit="10"/>
<path d="M50.2485 5.12903C49.7879 5.59982 49.218 5.83135 48.531 5.83135C47.844 5.83135 47.2742 5.59982 46.8136 5.12903C46.353 4.65825 46.1266 4.08713 46.1266 3.41568C46.1266 2.74423 46.353 2.1654 46.8136 1.70233C47.2742 1.23155 47.844 1.00001 48.531 1.00001C49.2102 1.00001 49.7801 1.23155 50.2485 1.70233C50.7091 2.17312 50.9433 2.74423 50.9433 3.41568C50.9355 4.09485 50.7013 4.66597 50.2485 5.12903ZM47.2586 4.74314C47.602 5.09045 48.0314 5.26024 48.531 5.26024C49.0307 5.26024 49.46 5.09045 49.8035 4.74314C50.147 4.39584 50.3266 3.95593 50.3266 3.41568C50.3266 2.87544 50.1548 2.43552 49.8035 2.08822C49.46 1.74092 49.0307 1.57113 48.531 1.57113C48.0314 1.57113 47.602 1.74092 47.2586 2.08822C46.9151 2.43552 46.7355 2.87544 46.7355 3.41568C46.7355 3.95593 46.9073 4.39584 47.2586 4.74314Z" stroke="white" stroke-width="0.178577" stroke-miterlimit="10"/>
<path d="M51.7786 5.73102V1.10033H52.5124L54.7919 4.70455H54.8154L54.7919 3.80928V1.10033H55.393V5.73102H54.7685L52.3875 1.95701H52.3641L52.3875 2.85228V5.73102H51.7786Z" stroke="white" stroke-width="0.178577" stroke-miterlimit="10"/>
<path d="M45.9714 12.484C44.1368 12.484 42.638 13.8654 42.638 15.764C42.638 17.6549 44.1368 19.0441 45.9714 19.0441C47.8059 19.0441 49.3048 17.6549 49.3048 15.764C49.3048 13.8654 47.8059 12.484 45.9714 12.484ZM45.9714 17.7552C44.9643 17.7552 44.0978 16.9371 44.0978 15.764C44.0978 14.5832 44.9643 13.7728 45.9714 13.7728C46.9784 13.7728 47.845 14.5832 47.845 15.764C47.845 16.9371 46.9784 17.7552 45.9714 17.7552ZM38.7034 12.484C36.8689 12.484 35.37 13.8654 35.37 15.764C35.37 17.6549 36.8689 19.0441 38.7034 19.0441C40.538 19.0441 42.0369 17.6549 42.0369 15.764C42.0369 13.8654 40.538 12.484 38.7034 12.484ZM38.7034 17.7552C37.6964 17.7552 36.8298 16.9371 36.8298 15.764C36.8298 14.5832 37.6964 13.7728 38.7034 13.7728C39.7105 13.7728 40.577 14.5832 40.577 15.764C40.577 16.9371 39.7105 17.7552 38.7034 17.7552ZM30.0537 13.495V14.8842H33.4261C33.3247 15.6637 33.0592 16.2425 32.6611 16.6361C32.1693 17.1224 31.4042 17.6549 30.0615 17.6549C27.9849 17.6549 26.3611 16.0033 26.3611 13.9503C26.3611 11.8974 27.9849 10.2458 30.0615 10.2458C31.1778 10.2458 31.9975 10.678 32.5986 11.2414L33.5901 10.2612C32.747 9.4663 31.6306 8.85659 30.0537 8.85659C27.2121 8.85659 24.8232 11.1411 24.8232 13.9581C24.8232 16.7673 27.2121 19.0595 30.0537 19.0595C31.5916 19.0595 32.747 18.5656 33.6525 17.6317C34.5815 16.7133 34.8704 15.4167 34.8704 14.3748C34.8704 14.0507 34.847 13.7497 34.7923 13.5027H30.0537V13.495ZM65.4255 14.5755C65.1523 13.8423 64.3092 12.484 62.5839 12.484C60.8742 12.484 59.4534 13.8114 59.4534 15.764C59.4534 17.6009 60.8586 19.0441 62.7478 19.0441C64.2701 19.0441 65.1523 18.1257 65.5114 17.5931L64.3794 16.8445C64.0047 17.3925 63.4895 17.7552 62.7478 17.7552C62.0062 17.7552 61.4754 17.4156 61.1397 16.7596L65.5816 14.9459L65.4255 14.5755ZM60.8977 15.6714C60.8586 14.4057 61.8891 13.7574 62.6307 13.7574C63.2084 13.7574 63.7002 14.043 63.8642 14.452L60.8977 15.6714ZM57.291 18.8511H58.7508V9.20389H57.291V18.8511ZM54.8944 13.2171H54.8475C54.5196 12.8313 53.8951 12.484 53.0988 12.484C51.436 12.484 49.9137 13.9272 49.9137 15.7795C49.9137 17.6163 51.436 19.0518 53.0988 19.0518C53.8873 19.0518 54.5196 18.7045 54.8475 18.3032H54.8944V18.774C54.8944 20.032 54.2152 20.7034 53.1223 20.7034C52.2323 20.7034 51.678 20.0706 51.4516 19.538L50.1792 20.0628C50.5461 20.935 51.5141 22 53.1223 22C54.8319 22 56.2761 21.0044 56.2761 18.581V12.6846H54.8944V13.2171ZM53.2237 17.7552C52.2167 17.7552 51.3736 16.9217 51.3736 15.7795C51.3736 14.6218 52.2167 13.7805 53.2237 13.7805C54.2152 13.7805 54.9958 14.6295 54.9958 15.7795C54.9958 16.9217 54.2152 17.7552 53.2237 17.7552ZM72.2563 9.20389H68.7667V18.8511H70.2266V15.1929H72.2641C73.8801 15.1929 75.4648 14.0352 75.4648 12.1984C75.4648 10.3616 73.8723 9.20389 72.2563 9.20389ZM72.2953 13.85H70.2266V10.5391H72.2953C73.3883 10.5391 74.005 11.4343 74.005 12.1907C74.005 12.947 73.3883 13.85 72.2953 13.85ZM81.2964 12.4685C80.2425 12.4685 79.1495 12.9316 78.6968 13.9426L79.9927 14.4752C80.2659 13.9426 80.7811 13.7651 81.3198 13.7651C82.0692 13.7651 82.8421 14.2127 82.8499 15.0077V15.108C82.5845 14.9614 82.0224 14.7376 81.3276 14.7376C79.9302 14.7376 78.5172 15.4939 78.5172 16.9063C78.5172 18.1951 79.657 19.0287 80.9373 19.0287C81.9131 19.0287 82.4596 18.5965 82.7952 18.0871H82.8421V18.8357H84.2473V15.1389C84.2629 13.4255 82.967 12.4685 81.2964 12.4685ZM81.1246 17.7552C80.6484 17.7552 79.9849 17.516 79.9849 16.9371C79.9849 16.1962 80.8124 15.9107 81.5306 15.9107C82.1707 15.9107 82.4752 16.0496 82.8577 16.2348C82.7406 17.1224 81.9599 17.7552 81.1246 17.7552ZM89.384 12.6769L87.7134 16.86H87.6666L85.9335 12.6769H84.3644L86.964 18.527L85.4807 21.7762H87.003L91 12.6769H89.384ZM76.2611 18.8511H77.7209V9.20389H76.2611V18.8511Z" fill="white"/>
<path d="M0.352848 1.29541C0.135172 1.52442 0.00756836 1.87901 0.00756836 2.32964V18.6704C0.00756836 19.1284 0.135172 19.483 0.352848 19.7046L0.405391 19.7563L9.70542 10.6108V10.5V10.3892L0.405391 1.2437L0.352848 1.29541Z" fill="url(#paint0_linear)"/>
<path d="M12.8051 13.661L9.70508 10.61V10.4992V10.3884L12.8051 7.33742L12.8726 7.37436L16.5431 9.42803C17.594 10.0116 17.594 10.972 16.5431 11.563L12.8726 13.6166L12.8051 13.661Z" fill="url(#paint1_linear)"/>
<path d="M12.8732 13.624L9.70559 10.4992L0.353027 19.7038C0.698307 20.0658 1.26877 20.1101 1.91429 19.7481L12.8732 13.624Z" fill="url(#paint2_linear)"/>
<path d="M12.8741 7.3818L1.9077 1.25034C1.26218 0.888363 0.691715 0.932686 0.346436 1.29466L9.70651 10.4992L12.8741 7.3818Z" fill="url(#paint3_linear)"/>
<path opacity="0.2" d="M12.8063 13.5502L1.90752 19.6447C1.29953 19.9845 0.751582 19.9624 0.406303 19.6521L0.35376 19.7038L0.406303 19.7555C0.759088 20.0658 1.29953 20.0879 1.90752 19.7481L12.8739 13.6167L12.8063 13.5502Z" fill="black"/>
<path opacity="0.12" d="M0.352848 19.6003C0.135172 19.3713 0.00756836 19.0167 0.00756836 18.5661V18.6769C0.00756836 19.1349 0.135172 19.4895 0.352848 19.7112L0.405391 19.6594L0.352848 19.6003Z" fill="black"/>
<path opacity="0.12" d="M16.5436 11.4596L12.7981 13.5502L12.8657 13.6167L16.5361 11.563C17.0615 11.2675 17.3243 10.8834 17.3243 10.4992C17.2867 10.8464 17.024 11.1936 16.5436 11.4596Z" fill="black"/>
<path opacity="0.25" d="M1.90654 1.35401L16.5434 9.53914C17.0163 9.80508 17.2865 10.1449 17.3315 10.4995C17.3315 10.1153 17.0688 9.72382 16.5434 9.43572L1.90654 1.25059C0.855692 0.66699 0 1.15455 0 2.33652V2.44733C0 1.25797 0.863198 0.770413 1.90654 1.35401Z" fill="white"/>
</g>

</g></symbol><symbol id="hamburger" viewBox="0 0 31 20"><g fill="none">
<path d="M1 1H30M1 10H30M1 19H30" stroke="white" stroke-width="1.5" stroke-linecap="round" stroke-linejoin="round"/>
</g></symbol><symbol id="income" viewBox="0 0 512 512"><path d="M0 405.3V448c0 35.3 86 64 192 64s192-28.7 192-64v-42.7C342.7 434.4 267.2 448 192 448S41.3 434.4 0 405.3zM320 128c106 0 192-28.7 192-64S426 0 320 0 128 28.7 128 64s86 64 192 64zM0 300.4V352c0 35.3 86 64 192 64s192-28.7 192-64v-51.6c-41.3 34-116.9 51.6-192 51.6S41.3 334.4 0 300.4zm416 11c57.3-11.1 96-31.7 96-55.4v-42.7c-23.2 16.4-57.3 27.6-96 34.5v63.6zM192 160C86 160 0 195.8 0 240s86 80 192 80 192-35.8 192-80-86-80-192-80zm219.3 56.3c60-10.8 100.7-32 100.7-56.3v-42.7c-35.5 25.1-96.5 38.6-160.7 41.8 29.5 14.3 51.2 33.5 60 57.2z"/></symbol><symbol id="medium" viewBox="0 0 512 512"><g style="fill-rule:evenodd;clip-rule:evenodd;stroke-linejoin:round;stroke-miterlimit:2;"><path d="M60.713,135.684c0.637,-6.285 -1.759,-12.499 -6.453,-16.728l-47.807,-57.59l0,-8.603l148.437,0l114.735,251.627l100.872,-251.627l141.503,0.001l0,8.602l-40.874,39.189c-3.525,2.685 -5.272,7.102 -4.541,11.472l0,287.947c-0.731,4.37 1.016,8.786 4.541,11.471l39.917,39.19l0,8.602l-200.782,0l0,-8.602l41.35,-40.147c4.065,-4.061 4.065,-5.257 4.065,-11.468l0,-232.749l-114.973,292.009l-15.536,0l-133.859,-292.009l0,195.709c-1.114,8.228 1.618,16.513 7.41,22.462l53.784,65.235l0,8.603l-152.502,0l0,-8.603l53.784,-65.235c5.749,-5.96 8.321,-14.301 6.929,-22.462l0,-226.296Z" id="Shape" style="fill-rule:nonzero;"/></g></symbol><symbol id="minus" viewBox="0 0 18 2"><g fill="none">
<path d="M1 1L17 1" stroke="#0056B3" stroke-width="1.5" stroke-linecap="round" stroke-linejoin="round"/>
</g></symbol><symbol id="person" viewBox="-2 0 24 24"><path d="m18.845 17.295c-1.008-1.345-2.437-2.327-4.089-2.754l-.051-.011-1.179 1.99c-.002.552-.448.998-1 1-.55 0-1-.45-1.525-1.774 0-.009 0-.021 0-.032 0-.691-.56-1.25-1.25-1.25s-1.25.56-1.25 1.25v.033-.002c-.56 1.325-1.014 1.774-1.563 1.774-.552-.002-.998-.448-1-1l-1.142-1.994c-1.702.44-3.13 1.421-4.126 2.746l-.014.019c-.388.629-.628 1.386-.655 2.197v.007c.005.15 0 .325 0 .5v2c0 1.105.895 2 2 2h15.5c1.105 0 2-.895 2-2v-2c0-.174-.005-.35 0-.5-.028-.817-.268-1.573-.666-2.221l.011.02zm-14.345-12.005c0 2.92 1.82 7.21 5.25 7.21 3.37 0 5.25-4.29 5.25-7.21 0-.019 0-.042 0-.065 0-2.9-2.351-5.25-5.25-5.25s-5.25 2.351-5.25 5.25v.068z"/></symbol><symbol id="piggy-bank" viewBox="0 0 512 512"><g style="enable-background:new 0 0 512 512;">
<g>
	<g>
		<path d="M233.739,0c-30.684,0-55.652,24.968-55.652,55.652c0,30.684,24.968,55.652,55.652,55.652s55.652-24.968,55.652-55.652
			C289.391,24.968,264.424,0,233.739,0z"/>
	</g>
</g>
<g>
	<g>
		<path d="M478.609,211.478h-18.174c-10.978-18.163-25.652-34.869-43.044-49.033V77.913c0-9.217-7.479-16.696-16.696-16.696
			c-37.772,0-71.88,21.185-88.913,53.978c-3.544-0.628-7.164-0.937-10.742-1.414c-16.339,18.892-40.421,30.914-67.301,30.914
			c-20.044,0-38.5-6.74-53.399-17.959C112.226,151.998,62.229,205.963,52.014,270.47h-1.927c-4.457,0-8.652-1.74-11.804-4.892
			c-3.152-3.152-4.892-7.347-4.892-11.804s1.74-8.652,4.892-11.804c6.521-6.521,6.521-17.087,0-23.609s-17.087-6.521-23.609,0
			C5.207,227.818,0,240.394,0,253.774s5.207,25.956,14.674,35.413c9.456,9.468,22.033,14.674,35.413,14.674h0.264
			c2.277,39.665,19.711,77.601,49.823,108.269v66.479c0,18.413,14.978,33.391,33.391,33.391h66.783
			c18.413,0,33.391-14.978,33.391-33.391v-13.434c22.478,3.065,44.305,3.065,66.783,0v13.434c0,18.413,14.978,33.391,33.391,33.391
			h66.783c18.413,0,33.391-14.978,33.391-33.391V412.13c19.435-19.782,33.717-42.674,41.902-67.086h2.62
			c18.413,0,33.391-14.978,33.391-33.391V244.87C512,226.456,497.022,211.478,478.609,211.478z M272.696,233.739h-77.913
			c-9.217,0-16.696-7.479-16.696-16.696c0-9.217,7.479-16.696,16.696-16.696h77.913c9.217,0,16.696,7.479,16.696,16.696
			C289.391,226.261,281.913,233.739,272.696,233.739z M372.87,256c-9.22,0-16.696-7.475-16.696-16.696
			c0-9.22,7.475-16.696,16.696-16.696s16.696,7.475,16.696,16.696C389.565,248.525,382.09,256,372.87,256z"/>
	</g>
</g>
<g>
</g>
<g>
</g>
<g>
</g>
<g>
</g>
<g>
</g>
<g>
</g>
<g>
</g>
<g>
</g>
<g>
</g>
<g>
</g>
<g>
</g>
<g>
</g>
<g>
</g>
<g>
</g>
<g>
</g>
</g></symbol><symbol id="plus" viewBox="0 0 18 18"><g fill="none">
<path d="M9 1V17M1 9L17 9" stroke="#0056B3" stroke-width="1.5" stroke-linecap="round" stroke-linejoin="round"/>
</g></symbol><symbol id="search" viewBox="0 0 18 18"><g fill="none">
<path d="M17 17L13.1333 13.1333M15.2223 8.1111C15.2223 12.0385 12.0385 15.2222 8.11115 15.2222C4.18377 15.2222 1 12.0385 1 8.1111C1 4.18375 4.18377 1 8.11115 1C12.0385 1 15.2223 4.18375 15.2223 8.1111Z" stroke="#ADADAD" stroke-width="1.5" stroke-linecap="round" stroke-linejoin="round"/>
</g></symbol><symbol id="sort-down-arrow" viewBox="0 0 11 6"><g fill="none">
<path d="M6.17828 5.3739C5.79522 5.72749 5.20478 5.72749 4.82172 5.3739L0.879369 1.7348C0.21047 1.11736 0.64734 1.06271e-07 1.55765 1.64996e-07L9.44235 6.73642e-07C10.3527 7.32367e-07 10.7895 1.11736 10.1206 1.7348L6.17828 5.3739Z" fill="#D3DAE2"/>
</g></symbol><symbol id="telegram" viewBox="0 0 448 512"><path d="M446.7 98.6l-67.6 318.8c-5.1 22.5-18.4 28.1-37.3 17.5l-103-75.9-49.7 47.8c-5.5 5.5-10.1 10.1-20.7 10.1l7.4-104.9 190.9-172.5c8.3-7.4-1.8-11.5-12.9-4.1L117.8 284 16.2 252.2c-22.1-6.9-22.5-22.1 4.6-32.7L418.2 66.4c18.4-6.9 34.5 4.1 28.5 32.2z"/></symbol><symbol id="trading-api" viewBox="0 0 512.014 512.014"><g style="enable-background:new 0 0 512.014 512.014;">
<g transform="translate(0 -1)">
	<g>
		<g>
			<path d="M234.674,342.341v-192c0-11.776-9.536-21.333-21.333-21.333h-192c-11.797,0-21.333,9.557-21.333,21.333v192
				c0,11.776,9.536,21.333,21.333,21.333h192C225.138,363.674,234.674,354.117,234.674,342.341z M128.007,299.674H85.34
				c-11.797,0-21.333-9.557-21.333-21.333s9.536-21.333,21.333-21.333h42.667c11.797,0,21.333,9.557,21.333,21.333
				S139.804,299.674,128.007,299.674z M149.34,235.674h-64c-11.797,0-21.333-9.557-21.333-21.333s9.536-21.333,21.333-21.333h64
				c11.797,0,21.333,9.557,21.333,21.333S161.138,235.674,149.34,235.674z"/>
			<path d="M142.84,101.675c40.981-39.659,133.376-46.848,192.597-21.632l-6.507,2.176c-11.179,3.733-17.216,15.808-13.483,26.987
				c2.965,8.939,11.285,14.592,20.224,14.592c2.24,0,4.501-0.363,6.741-1.109l48.341-16.107c0.235-0.085,0.405-0.277,0.64-0.363
				c1.259-0.469,2.325-1.301,3.499-2.027c1.301-0.789,2.645-1.472,3.712-2.496c0.192-0.171,0.427-0.235,0.619-0.405
				c0.725-0.747,1.024-1.685,1.621-2.517c0.917-1.237,1.856-2.389,2.496-3.797c0.576-1.28,0.789-2.624,1.088-3.968
				c0.299-1.323,0.683-2.56,0.725-3.904c0.064-1.579-0.277-3.072-0.555-4.629c-0.192-0.96-0.043-1.92-0.363-2.88l-21.333-64
				c-3.733-11.179-15.68-17.237-26.987-13.483c-11.157,3.712-17.195,15.808-13.483,26.987l3.051,9.088
				C270.648,9.217,165.88,20.011,113.165,71.019c-8.448,8.171-8.683,21.696-0.491,30.165
				C120.888,109.633,134.371,109.889,142.84,101.675z"/>
			<path d="M369.174,412.342c-40.981,39.659-133.376,46.848-192.597,21.632l22.187-7.403c11.157-3.712,17.195-15.808,13.483-26.987
				c-3.733-11.157-15.723-17.237-26.987-13.483l-64,21.333c-0.256,0.085-0.405,0.277-0.64,0.363
				c-1.344,0.491-2.475,1.365-3.712,2.133c-1.216,0.768-2.475,1.408-3.499,2.389c-0.192,0.171-0.427,0.213-0.619,0.405
				c-0.725,0.747-1.024,1.685-1.621,2.517c-0.917,1.237-1.856,2.389-2.496,3.797c-0.576,1.28-0.789,2.624-1.088,3.968
				c-0.299,1.301-0.683,2.539-0.725,3.904c-0.064,1.579,0.277,3.072,0.555,4.629c0.192,0.96,0.043,1.92,0.363,2.88l21.333,64
				c2.987,8.939,11.285,14.592,20.224,14.592c2.24,0,4.501-0.341,6.763-1.109c11.157-3.712,17.195-15.808,13.483-26.987
				l-3.051-9.088c27.136,10.496,58.069,15.936,89.173,15.936c54.699,0,109.525-16.256,143.147-48.768
				c8.448-8.171,8.683-21.696,0.491-30.165C391.147,404.385,377.665,404.15,369.174,412.342z"/>
			<path d="M490.674,129.008h-192c-11.797,0-21.333,9.557-21.333,21.333v192c0,11.776,9.536,21.333,21.333,21.333h192
				c11.797,0,21.333-9.557,21.333-21.333v-192C512.007,138.565,502.471,129.008,490.674,129.008z M405.34,299.674h-42.667
				c-11.797,0-21.333-9.557-21.333-21.333s9.536-21.333,21.333-21.333h42.667c11.797,0,21.333,9.557,21.333,21.333
				S417.138,299.674,405.34,299.674z M426.674,235.674h-64c-11.797,0-21.333-9.557-21.333-21.333s9.536-21.333,21.333-21.333h64
				c11.797,0,21.333,9.557,21.333,21.333S438.471,235.674,426.674,235.674z"/>
		</g>
	</g>
</g>
<g>
</g>
<g>
</g>
<g>
</g>
<g>
</g>
<g>
</g>
<g>
</g>
<g>
</g>
<g>
</g>
<g>
</g>
<g>
</g>
<g>
</g>
<g>
</g>
<g>
</g>
<g>
</g>
<g>
</g>
</g></symbol><symbol id="twitter" viewBox="0 0 512 512"><!--! Font Awesome Pro 6.1.1 by @fontawesome - https://fontawesome.com License - https://fontawesome.com/license (Commercial License) Copyright 2022 Fonticons, Inc. --><path d="M459.37 151.716c.325 4.548.325 9.097.325 13.645 0 138.72-105.583 298.558-298.558 298.558-59.452 0-114.68-17.219-161.137-47.106 8.447.974 16.568 1.299 25.34 1.299 49.055 0 94.213-16.568 130.274-44.832-46.132-.975-84.792-31.188-98.112-72.772 6.498.974 12.995 1.624 19.818 1.624 9.421 0 18.843-1.3 27.614-3.573-48.081-9.747-84.143-51.98-84.143-102.985v-1.299c13.969 7.797 30.214 12.67 47.431 13.319-28.264-18.843-46.781-51.005-46.781-87.391 0-19.492 5.197-37.36 14.294-52.954 51.655 63.675 129.3 105.258 216.365 109.807-1.624-7.797-2.599-15.918-2.599-24.04 0-57.828 46.782-104.934 104.934-104.934 30.213 0 57.502 12.67 76.67 33.137 23.715-4.548 46.456-13.32 66.599-25.34-7.798 24.366-24.366 44.833-46.132 57.827 21.117-2.273 41.584-8.122 60.426-16.243-14.292 20.791-32.161 39.308-52.628 54.253z"/></symbol><symbol id="up-down-arrows" viewBox="0 0 10 14"><g fill="none">
<path d="M9 4.13045L5 1L1 4.13045M1 9.86955L5 13L9 9.86955" stroke="#ADADAD" stroke-width="1.5" stroke-linecap="round"/>
</g></symbol><symbol id="user-secret" viewBox="-32 0 512 512"><path d="M383.9 308.3l23.9-62.6c4-10.5-3.7-21.7-15-21.7h-58.5c11-18.9 17.8-40.6 17.8-64v-.3c39.2-7.8 64-19.1 64-31.7 0-13.3-27.3-25.1-70.1-33-9.2-32.8-27-65.8-40.6-82.8-9.5-11.9-25.9-15.6-39.5-8.8l-27.6 13.8c-9 4.5-19.6 4.5-28.6 0L182.1 3.4c-13.6-6.8-30-3.1-39.5 8.8-13.5 17-31.4 50-40.6 82.8-42.7 7.9-70 19.7-70 33 0 12.6 24.8 23.9 64 31.7v.3c0 23.4 6.8 45.1 17.8 64H56.3c-11.5 0-19.2 11.7-14.7 22.3l25.8 60.2C27.3 329.8 0 372.7 0 422.4v44.8C0 491.9 20.1 512 44.8 512h358.4c24.7 0 44.8-20.1 44.8-44.8v-44.8c0-48.4-25.8-90.4-64.1-114.1zM176 480l-41.6-192 49.6 32 24 40-32 120zm96 0l-32-120 24-40 49.6-32L272 480zm41.7-298.5c-3.9 11.9-7 24.6-16.5 33.4-10.1 9.3-48 22.4-64-25-2.8-8.4-15.4-8.4-18.3 0-17 50.2-56 32.4-64 25-9.5-8.8-12.7-21.5-16.5-33.4-.8-2.5-6.3-5.7-6.3-5.8v-10.8c28.3 3.6 61 5.8 96 5.8s67.7-2.1 96-5.8v10.8c-.1.1-5.6 3.2-6.4 5.8z"/></symbol><symbol id="youtube" viewBox="0 0 512 512"><g style="fill-rule:evenodd;clip-rule:evenodd;stroke-linejoin:round;stroke-miterlimit:2;"><path d="M501.303,132.765c-5.887,-22.03 -23.235,-39.377 -45.265,-45.265c-39.932,-10.7 -200.038,-10.7 -200.038,-10.7c0,0 -160.107,0 -200.039,10.7c-22.026,5.888 -39.377,23.235 -45.264,45.265c-10.697,39.928 -10.697,123.238 -10.697,123.238c0,0 0,83.308 10.697,123.232c5.887,22.03 23.238,39.382 45.264,45.269c39.932,10.696 200.039,10.696 200.039,10.696c0,0 160.106,0 200.038,-10.696c22.03,-5.887 39.378,-23.239 45.265,-45.269c10.696,-39.924 10.696,-123.232 10.696,-123.232c0,0 0,-83.31 -10.696,-123.238Zm-296.506,200.039l0,-153.603l133.019,76.802l-133.019,76.801Z" style="fill-rule:nonzero;"/></g></symbol></svg>