<?xml version="1.0" encoding="UTF-8"?><!DOCTYPE svg PUBLIC "-//W3C//DTD SVG 1.1//EN" "http://www.w3.org/Graphics/SVG/1.1/DTD/svg11.dtd"><svg xmlns="http://www.w3.org/2000/svg" xmlns:xlink="http://www.w3.org/1999/xlink" xmlns:serif="http://www.serif.com/"><symbol id="arrow-down" viewBox="0 0 11 8"><g fill="none">
<path d="M6.27611 7.04478C5.87592 7.53733 5.12408 7.53733 4.72389 7.04478L0.324855 1.63059C-0.206125 0.977077 0.258936 8.12147e-08 1.10097 1.35535e-07L9.89903 7.03103e-07C10.7411 7.57423e-07 11.2061 0.977079 10.6751 1.63059L6.27611 7.04478Z" fill="#EA3F3F"/>
</g></symbol><symbol id="arrow-right-dark" viewBox="0 0 17 10"><g fill="none">
<path d="M1 5H15M15 5L10.3333 9M15 5L10.3333 1" stroke="#004188" stroke-width="1.5" stroke-linecap="round"/>
</g></symbol><symbol id="arrow-right-darkgray" viewBox="0 0 17 10"><g fill="none">
<path d="M1 5H15M15 5L10.3333 9M15 5L10.3333 1" stroke="#ADADAD" stroke-width="1.5" stroke-linecap="round"/>
</g></symbol><symbol id="arrow-right-grey" viewBox="0 0 17 10"><g fill="none">
<path d="M1 5H15M15 5L10.3333 9M15 5L10.3333 1" stroke="#DBDBDB" stroke-width="1.5" stroke-linecap="round"/>
</g></symbol><symbol id="arrow-right-light" viewBox="0 0 17 10"><g fill="none">
<path d="M1 5H15M15 5L10.3333 9M15 5L10.3333 1" stroke="white" stroke-width="1.5" stroke-linecap="round"/>
</g></symbol><symbol id="arrow-up" viewBox="0 0 11 8"><g fill="none">
<path d="M6.27611 0.955216C5.87592 0.462673 5.12408 0.462674 4.72389 0.955217L0.324855 6.36941C-0.206125 7.02292 0.258936 8 1.10097 8L9.89903 8C10.7411 8 11.2061 7.02292 10.6751 6.36941L6.27611 0.955216Z" fill="#28A745"/>
</g></symbol><symbol id="auth" viewBox="0 0 15 14"><g fill="none">
<path d="M9.41176 1L12.4706 1C13.3153 1 14 1.67157 14 2.5V11.5C14 12.3284 13.3153 13 12.4706 13H9.41176M10.1765 7L1 7M10.1765 7L7.11765 10M10.1765 7L7.11765 4" stroke="white" stroke-width="1.5" stroke-linecap="round" stroke-linejoin="round"/>
</g></symbol><symbol id="calendar" viewBox="0 0 18 20"><g fill="none">
<path d="M12 1V5M6 1V5M1 9H17M17 9V17C17 18.1046 16.1046 19 15 19H3C1.89543 19 1 18.1046 1 17V5C1 3.89543 1.89543 3 3 3H15C16.1046 3 17 3.89543 17 5V9Z" stroke="#212529" stroke-width="1.5" stroke-linecap="round" stroke-linejoin="round"/>
</g></symbol><symbol id="close" viewBox="0 0 50 50"><g fill="#000000"><path d="M 9.15625 6.3125 L 6.3125 9.15625 L 22.15625 25 L 6.21875 40.96875 L 9.03125 43.78125 L 25 27.84375 L 40.9375 43.78125 L 43.78125 40.9375 L 27.84375 25 L 43.6875 9.15625 L 40.84375 6.3125 L 25 22.15625 Z"/></g></symbol><symbol id="crown" viewBox="0 0 981.9 981.901"><g style="enable-background:new 0 0 981.9 981.901;">
<g>
	<path d="M861,863.05c0-30.4-24.6-55-55-55H175.9c-30.4,0-55,24.6-55,55s24.6,55,55,55H806C836.4,918.05,861,893.35,861,863.05z"/>
	<path d="M65.4,417.85c0.9,0,1.7,0,2.6-0.1l87.2,315.6H491h335.7l87.2-315.6c0.899,0,1.699,0.1,2.6,0.1c36.1,0,65.4-29.3,65.4-65.4
		s-29.301-65.4-65.4-65.4s-65.4,29.3-65.4,65.4c0,7,1.101,13.8,3.2,20.1l-157.7,92.2l-169.5-281
		c17.601-11.7,29.301-31.8,29.301-54.5c0-36.1-29.301-65.4-65.4-65.4s-65.4,29.3-65.4,65.4c0,22.8,11.601,42.8,29.301,54.5
		l-169.5,281l-157.7-92.2c2-6.3,3.2-13.1,3.2-20.1c0-36.1-29.3-65.4-65.4-65.4c-36.2,0-65.5,29.3-65.5,65.4S29.3,417.85,65.4,417.85
		z"/>
</g>
<g>
</g>
<g>
</g>
<g>
</g>
<g>
</g>
<g>
</g>
<g>
</g>
<g>
</g>
<g>
</g>
<g>
</g>
<g>
</g>
<g>
</g>
<g>
</g>
<g>
</g>
<g>
</g>
<g>
</g>
</g></symbol><symbol id="done-small" viewBox="0 0 14 11"><g fill="none">
<path d="M1.79999 5.97142L5.09999 9.39999L12.8 1.39999" stroke="#0FD4E2" stroke-width="2" stroke-linecap="round"/>
</g></symbol><symbol id="download" viewBox="0 0 16 17"><g fill="none">
<path d="M15 10.625V14.125C15 15.0915 14.2165 15.875 13.25 15.875H2.75C1.7835 15.875 1 15.0915 1 14.125V10.625M8 11.5L8 1M8 11.5L4.5 8M8 11.5L11.5 8" stroke="white" stroke-width="1.5" stroke-linecap="round" stroke-linejoin="round"/>
</g></symbol><symbol id="exchange-cycle-dark" viewBox="0 0 16 16"><g fill="none">
<path d="M5.08835 6.72752H1M1 6.72752C1.63636 6.09115 4.51111 1.00024 8 1.00024C11.4889 1.00024 14.3915 3.46918 15 6.72752M1 6.72752V2.70053M10.9116 9.27297H15M15 9.27297C14.3636 9.90933 12.1364 15.0002 8 15.0002C4.51111 15.0002 1.60854 12.5313 1 9.27297M15 9.27297V13.3099" stroke="#0056B3" stroke-width="1.5" stroke-linecap="round" stroke-linejoin="round"/>
</g></symbol><symbol id="exchange-cycle-light" viewBox="0 0 16 16"><g fill="none">
<path d="M5.08835 6.72727H1M1 6.72727C1.63636 6.09091 4.51111 1 8 1C11.4889 1 14.3915 3.46894 15 6.72727M1 6.72727V2.70028M10.9116 9.27273H15M15 9.27273C14.3636 9.90909 12.1364 15 8 15C4.51111 15 1.60854 12.5311 1 9.27273M15 9.27273V13.3097" stroke="white" stroke-width="1.5" stroke-linecap="round" stroke-linejoin="round"/>
</g></symbol><symbol id="github" viewBox="0 0 496 512"><!--! Font Awesome Pro 6.1.1 by @fontawesome - https://fontawesome.com License - https://fontawesome.com/license (Commercial License) Copyright 2022 Fonticons, Inc. --><path d="M165.9 397.4c0 2-2.3 3.6-5.2 3.6-3.3.3-5.6-1.3-5.6-3.6 0-2 2.3-3.6 5.2-3.6 3-.3 5.6 1.3 5.6 3.6zm-31.1-4.5c-.7 2 1.3 4.3 4.3 4.9 2.6 1 5.6 0 6.2-2s-1.3-4.3-4.3-5.2c-2.6-.7-5.5.3-6.2 2.3zm44.2-1.7c-2.9.7-4.9 2.6-4.6 4.9.3 2 2.9 3.3 5.9 2.6 2.9-.7 4.9-2.6 4.6-4.6-.3-1.9-3-3.2-5.9-2.9zM244.8 8C106.1 8 0 113.3 0 252c0 110.9 69.8 205.8 169.5 239.2 12.8 2.3 17.3-5.6 17.3-12.1 0-6.2-.3-40.4-.3-61.4 0 0-70 15-84.7-29.8 0 0-11.4-29.1-27.8-36.6 0 0-22.9-15.7 1.6-15.4 0 0 24.9 2 38.6 25.8 21.9 38.6 58.6 27.5 72.9 20.9 2.3-16 8.8-27.1 16-33.7-55.9-6.2-112.3-14.3-112.3-110.5 0-27.5 7.6-41.3 23.6-58.9-2.6-6.5-11.1-33.3 2.6-67.9 20.9-6.5 69 27 69 27 20-5.6 41.5-8.5 62.8-8.5s42.8 2.9 62.8 8.5c0 0 48.1-33.6 69-27 13.7 34.7 5.2 61.4 2.6 67.9 16 17.7 25.8 31.5 25.8 58.9 0 96.5-58.9 104.2-114.8 110.5 9.2 7.9 17 22.9 17 46.4 0 33.7-.3 75.4-.3 83.6 0 6.5 4.6 14.4 17.3 12.1C428.2 457.8 496 362.9 496 252 496 113.3 383.5 8 244.8 8zM97.2 352.9c-1.3 1-1 3.3.7 5.2 1.6 1.6 3.9 2.3 5.2 1 1.3-1 1-3.3-.7-5.2-1.6-1.6-3.9-2.3-5.2-1zm-10.8-8.1c-.7 1.3.3 2.9 2.3 3.9 1.6 1 3.6.7 4.3-.7.7-1.3-.3-2.9-2.3-3.9-2-.6-3.6-.3-4.3.7zm32.4 35.6c-1.6 1.3-1 4.3 1.3 6.2 2.3 2.3 5.2 2.6 6.5 1 1.3-1.3.7-4.3-1.3-6.2-2.2-2.3-5.2-2.6-6.5-1zm-11.4-14.7c-1.6 1-1.6 3.6 0 5.9 1.6 2.3 4.3 3.3 5.6 2.3 1.6-1.3 1.6-3.9 0-6.2-1.4-2.3-4-3.3-5.6-2z"/></symbol><symbol id="hamburger" viewBox="0 0 31 20"><g fill="none">
<path d="M1 1H30M1 10H30M1 19H30" stroke="white" stroke-width="1.5" stroke-linecap="round" stroke-linejoin="round"/>
</g></symbol><symbol id="income" viewBox="0 0 512 512"><path d="M0 405.3V448c0 35.3 86 64 192 64s192-28.7 192-64v-42.7C342.7 434.4 267.2 448 192 448S41.3 434.4 0 405.3zM320 128c106 0 192-28.7 192-64S426 0 320 0 128 28.7 128 64s86 64 192 64zM0 300.4V352c0 35.3 86 64 192 64s192-28.7 192-64v-51.6c-41.3 34-116.9 51.6-192 51.6S41.3 334.4 0 300.4zm416 11c57.3-11.1 96-31.7 96-55.4v-42.7c-23.2 16.4-57.3 27.6-96 34.5v63.6zM192 160C86 160 0 195.8 0 240s86 80 192 80 192-35.8 192-80-86-80-192-80zm219.3 56.3c60-10.8 100.7-32 100.7-56.3v-42.7c-35.5 25.1-96.5 38.6-160.7 41.8 29.5 14.3 51.2 33.5 60 57.2z"/></symbol><symbol id="medium" viewBox="0 0 512 512"><g style="fill-rule:evenodd;clip-rule:evenodd;stroke-linejoin:round;stroke-miterlimit:2;"><path d="M60.713,135.684c0.637,-6.285 -1.759,-12.499 -6.453,-16.728l-47.807,-57.59l0,-8.603l148.437,0l114.735,251.627l100.872,-251.627l141.503,0.001l0,8.602l-40.874,39.189c-3.525,2.685 -5.272,7.102 -4.541,11.472l0,287.947c-0.731,4.37 1.016,8.786 4.541,11.471l39.917,39.19l0,8.602l-200.782,0l0,-8.602l41.35,-40.147c4.065,-4.061 4.065,-5.257 4.065,-11.468l0,-232.749l-114.973,292.009l-15.536,0l-133.859,-292.009l0,195.709c-1.114,8.228 1.618,16.513 7.41,22.462l53.784,65.235l0,8.603l-152.502,0l0,-8.603l53.784,-65.235c5.749,-5.96 8.321,-14.301 6.929,-22.462l0,-226.296Z" id="Shape" style="fill-rule:nonzero;"/></g></symbol><symbol id="minus" viewBox="0 0 18 2"><g fill="none">
<path d="M1 1L17 1" stroke="#0056B3" stroke-width="1.5" stroke-linecap="round" stroke-linejoin="round"/>
</g></symbol><symbol id="person" viewBox="-2 0 24 24"><path d="m18.845 17.295c-1.008-1.345-2.437-2.327-4.089-2.754l-.051-.011-1.179 1.99c-.002.552-.448.998-1 1-.55 0-1-.45-1.525-1.774 0-.009 0-.021 0-.032 0-.691-.56-1.25-1.25-1.25s-1.25.56-1.25 1.25v.033-.002c-.56 1.325-1.014 1.774-1.563 1.774-.552-.002-.998-.448-1-1l-1.142-1.994c-1.702.44-3.13 1.421-4.126 2.746l-.014.019c-.388.629-.628 1.386-.655 2.197v.007c.005.15 0 .325 0 .5v2c0 1.105.895 2 2 2h15.5c1.105 0 2-.895 2-2v-2c0-.174-.005-.35 0-.5-.028-.817-.268-1.573-.666-2.221l.011.02zm-14.345-12.005c0 2.92 1.82 7.21 5.25 7.21 3.37 0 5.25-4.29 5.25-7.21 0-.019 0-.042 0-.065 0-2.9-2.351-5.25-5.25-5.25s-5.25 2.351-5.25 5.25v.068z"/></symbol><symbol id="piggy-bank" viewBox="0 0 512 512"><g style="enable-background:new 0 0 512 512;">
<g>
	<g>
		<path d="M233.739,0c-30.684,0-55.652,24.968-55.652,55.652c0,30.684,24.968,55.652,55.652,55.652s55.652-24.968,55.652-55.652
			C289.391,24.968,264.424,0,233.739,0z"/>
	</g>
</g>
<g>
	<g>
		<path d="M478.609,211.478h-18.174c-10.978-18.163-25.652-34.869-43.044-49.033V77.913c0-9.217-7.479-16.696-16.696-16.696
			c-37.772,0-71.88,21.185-88.913,53.978c-3.544-0.628-7.164-0.937-10.742-1.414c-16.339,18.892-40.421,30.914-67.301,30.914
			c-20.044,0-38.5-6.74-53.399-17.959C112.226,151.998,62.229,205.963,52.014,270.47h-1.927c-4.457,0-8.652-1.74-11.804-4.892
			c-3.152-3.152-4.892-7.347-4.892-11.804s1.74-8.652,4.892-11.804c6.521-6.521,6.521-17.087,0-23.609s-17.087-6.521-23.609,0
			C5.207,227.818,0,240.394,0,253.774s5.207,25.956,14.674,35.413c9.456,9.468,22.033,14.674,35.413,14.674h0.264
			c2.277,39.665,19.711,77.601,49.823,108.269v66.479c0,18.413,14.978,33.391,33.391,33.391h66.783
			c18.413,0,33.391-14.978,33.391-33.391v-13.434c22.478,3.065,44.305,3.065,66.783,0v13.434c0,18.413,14.978,33.391,33.391,33.391
			h66.783c18.413,0,33.391-14.978,33.391-33.391V412.13c19.435-19.782,33.717-42.674,41.902-67.086h2.62
			c18.413,0,33.391-14.978,33.391-33.391V244.87C512,226.456,497.022,211.478,478.609,211.478z M272.696,233.739h-77.913
			c-9.217,0-16.696-7.479-16.696-16.696c0-9.217,7.479-16.696,16.696-16.696h77.913c9.217,0,16.696,7.479,16.696,16.696
			C289.391,226.261,281.913,233.739,272.696,233.739z M372.87,256c-9.22,0-16.696-7.475-16.696-16.696
			c0-9.22,7.475-16.696,16.696-16.696s16.696,7.475,16.696,16.696C389.565,248.525,382.09,256,372.87,256z"/>
	</g>
</g>
<g>
</g>
<g>
</g>
<g>
</g>
<g>
</g>
<g>
</g>
<g>
</g>
<g>
</g>
<g>
</g>
<g>
</g>
<g>
</g>
<g>
</g>
<g>
</g>
<g>
</g>
<g>
</g>
<g>
</g>
</g></symbol><symbol id="plus" viewBox="0 0 18 18"><g fill="none">
<path d="M9 1V17M1 9L17 9" stroke="#0056B3" stroke-width="1.5" stroke-linecap="round" stroke-linejoin="round"/>
</g></symbol><symbol id="search" viewBox="0 0 18 18"><g fill="none">
<path d="M17 17L13.1333 13.1333M15.2223 8.1111C15.2223 12.0385 12.0385 15.2222 8.11115 15.2222C4.18377 15.2222 1 12.0385 1 8.1111C1 4.18375 4.18377 1 8.11115 1C12.0385 1 15.2223 4.18375 15.2223 8.1111Z" stroke="#ADADAD" stroke-width="1.5" stroke-linecap="round" stroke-linejoin="round"/>
</g></symbol><symbol id="sort-down-arrow" viewBox="0 0 11 6"><g fill="none">
<path d="M6.17828 5.3739C5.79522 5.72749 5.20478 5.72749 4.82172 5.3739L0.879369 1.7348C0.21047 1.11736 0.64734 1.06271e-07 1.55765 1.64996e-07L9.44235 6.73642e-07C10.3527 7.32367e-07 10.7895 1.11736 10.1206 1.7348L6.17828 5.3739Z" fill="#D3DAE2"/>
</g></symbol><symbol id="telegram" viewBox="0 0 448 512"><path d="M446.7 98.6l-67.6 318.8c-5.1 22.5-18.4 28.1-37.3 17.5l-103-75.9-49.7 47.8c-5.5 5.5-10.1 10.1-20.7 10.1l7.4-104.9 190.9-172.5c8.3-7.4-1.8-11.5-12.9-4.1L117.8 284 16.2 252.2c-22.1-6.9-22.5-22.1 4.6-32.7L418.2 66.4c18.4-6.9 34.5 4.1 28.5 32.2z"/></symbol><symbol id="trading-api" viewBox="0 0 512.014 512.014"><g style="enable-background:new 0 0 512.014 512.014;">
<g transform="translate(0 -1)">
	<g>
		<g>
			<path d="M234.674,342.341v-192c0-11.776-9.536-21.333-21.333-21.333h-192c-11.797,0-21.333,9.557-21.333,21.333v192
				c0,11.776,9.536,21.333,21.333,21.333h192C225.138,363.674,234.674,354.117,234.674,342.341z M128.007,299.674H85.34
				c-11.797,0-21.333-9.557-21.333-21.333s9.536-21.333,21.333-21.333h42.667c11.797,0,21.333,9.557,21.333,21.333
				S139.804,299.674,128.007,299.674z M149.34,235.674h-64c-11.797,0-21.333-9.557-21.333-21.333s9.536-21.333,21.333-21.333h64
				c11.797,0,21.333,9.557,21.333,21.333S161.138,235.674,149.34,235.674z"/>
			<path d="M142.84,101.675c40.981-39.659,133.376-46.848,192.597-21.632l-6.507,2.176c-11.179,3.733-17.216,15.808-13.483,26.987
				c2.965,8.939,11.285,14.592,20.224,14.592c2.24,0,4.501-0.363,6.741-1.109l48.341-16.107c0.235-0.085,0.405-0.277,0.64-0.363
				c1.259-0.469,2.325-1.301,3.499-2.027c1.301-0.789,2.645-1.472,3.712-2.496c0.192-0.171,0.427-0.235,0.619-0.405
				c0.725-0.747,1.024-1.685,1.621-2.517c0.917-1.237,1.856-2.389,2.496-3.797c0.576-1.28,0.789-2.624,1.088-3.968
				c0.299-1.323,0.683-2.56,0.725-3.904c0.064-1.579-0.277-3.072-0.555-4.629c-0.192-0.96-0.043-1.92-0.363-2.88l-21.333-64
				c-3.733-11.179-15.68-17.237-26.987-13.483c-11.157,3.712-17.195,15.808-13.483,26.987l3.051,9.088
				C270.648,9.217,165.88,20.011,113.165,71.019c-8.448,8.171-8.683,21.696-0.491,30.165
				C120.888,109.633,134.371,109.889,142.84,101.675z"/>
			<path d="M369.174,412.342c-40.981,39.659-133.376,46.848-192.597,21.632l22.187-7.403c11.157-3.712,17.195-15.808,13.483-26.987
				c-3.733-11.157-15.723-17.237-26.987-13.483l-64,21.333c-0.256,0.085-0.405,0.277-0.64,0.363
				c-1.344,0.491-2.475,1.365-3.712,2.133c-1.216,0.768-2.475,1.408-3.499,2.389c-0.192,0.171-0.427,0.213-0.619,0.405
				c-0.725,0.747-1.024,1.685-1.621,2.517c-0.917,1.237-1.856,2.389-2.496,3.797c-0.576,1.28-0.789,2.624-1.088,3.968
				c-0.299,1.301-0.683,2.539-0.725,3.904c-0.064,1.579,0.277,3.072,0.555,4.629c0.192,0.96,0.043,1.92,0.363,2.88l21.333,64
				c2.987,8.939,11.285,14.592,20.224,14.592c2.24,0,4.501-0.341,6.763-1.109c11.157-3.712,17.195-15.808,13.483-26.987
				l-3.051-9.088c27.136,10.496,58.069,15.936,89.173,15.936c54.699,0,109.525-16.256,143.147-48.768
				c8.448-8.171,8.683-21.696,0.491-30.165C391.147,404.385,377.665,404.15,369.174,412.342z"/>
			<path d="M490.674,129.008h-192c-11.797,0-21.333,9.557-21.333,21.333v192c0,11.776,9.536,21.333,21.333,21.333h192
				c11.797,0,21.333-9.557,21.333-21.333v-192C512.007,138.565,502.471,129.008,490.674,129.008z M405.34,299.674h-42.667
				c-11.797,0-21.333-9.557-21.333-21.333s9.536-21.333,21.333-21.333h42.667c11.797,0,21.333,9.557,21.333,21.333
				S417.138,299.674,405.34,299.674z M426.674,235.674h-64c-11.797,0-21.333-9.557-21.333-21.333s9.536-21.333,21.333-21.333h64
				c11.797,0,21.333,9.557,21.333,21.333S438.471,235.674,426.674,235.674z"/>
		</g>
	</g>
</g>
<g>
</g>
<g>
</g>
<g>
</g>
<g>
</g>
<g>
</g>
<g>
</g>
<g>
</g>
<g>
</g>
<g>
</g>
<g>
</g>
<g>
</g>
<g>
</g>
<g>
</g>
<g>
</g>
<g>
</g>
</g></symbol><symbol id="twitter" viewBox="0 0 512 512"><!--! Font Awesome Pro 6.1.1 by @fontawesome - https://fontawesome.com License - https://fontawesome.com/license (Commercial License) Copyright 2022 Fonticons, Inc. --><path d="M459.37 151.716c.325 4.548.325 9.097.325 13.645 0 138.72-105.583 298.558-298.558 298.558-59.452 0-114.68-17.219-161.137-47.106 8.447.974 16.568 1.299 25.34 1.299 49.055 0 94.213-16.568 130.274-44.832-46.132-.975-84.792-31.188-98.112-72.772 6.498.974 12.995 1.624 19.818 1.624 9.421 0 18.843-1.3 27.614-3.573-48.081-9.747-84.143-51.98-84.143-102.985v-1.299c13.969 7.797 30.214 12.67 47.431 13.319-28.264-18.843-46.781-51.005-46.781-87.391 0-19.492 5.197-37.36 14.294-52.954 51.655 63.675 129.3 105.258 216.365 109.807-1.624-7.797-2.599-15.918-2.599-24.04 0-57.828 46.782-104.934 104.934-104.934 30.213 0 57.502 12.67 76.67 33.137 23.715-4.548 46.456-13.32 66.599-25.34-7.798 24.366-24.366 44.833-46.132 57.827 21.117-2.273 41.584-8.122 60.426-16.243-14.292 20.791-32.161 39.308-52.628 54.253z"/></symbol><symbol id="up-down-arrows" viewBox="0 0 10 14"><g fill="none">
<path d="M9 4.13045L5 1L1 4.13045M1 9.86955L5 13L9 9.86955" stroke="#ADADAD" stroke-width="1.5" stroke-linecap="round"/>
</g></symbol><symbol id="user-secret" viewBox="-32 0 512 512"><path d="M383.9 308.3l23.9-62.6c4-10.5-3.7-21.7-15-21.7h-58.5c11-18.9 17.8-40.6 17.8-64v-.3c39.2-7.8 64-19.1 64-31.7 0-13.3-27.3-25.1-70.1-33-9.2-32.8-27-65.8-40.6-82.8-9.5-11.9-25.9-15.6-39.5-8.8l-27.6 13.8c-9 4.5-19.6 4.5-28.6 0L182.1 3.4c-13.6-6.8-30-3.1-39.5 8.8-13.5 17-31.4 50-40.6 82.8-42.7 7.9-70 19.7-70 33 0 12.6 24.8 23.9 64 31.7v.3c0 23.4 6.8 45.1 17.8 64H56.3c-11.5 0-19.2 11.7-14.7 22.3l25.8 60.2C27.3 329.8 0 372.7 0 422.4v44.8C0 491.9 20.1 512 44.8 512h358.4c24.7 0 44.8-20.1 44.8-44.8v-44.8c0-48.4-25.8-90.4-64.1-114.1zM176 480l-41.6-192 49.6 32 24 40-32 120zm96 0l-32-120 24-40 49.6-32L272 480zm41.7-298.5c-3.9 11.9-7 24.6-16.5 33.4-10.1 9.3-48 22.4-64-25-2.8-8.4-15.4-8.4-18.3 0-17 50.2-56 32.4-64 25-9.5-8.8-12.7-21.5-16.5-33.4-.8-2.5-6.3-5.7-6.3-5.8v-10.8c28.3 3.6 61 5.8 96 5.8s67.7-2.1 96-5.8v10.8c-.1.1-5.6 3.2-6.4 5.8z"/></symbol><symbol id="youtube" viewBox="0 0 512 512"><g style="fill-rule:evenodd;clip-rule:evenodd;stroke-linejoin:round;stroke-miterlimit:2;"><path d="M501.303,132.765c-5.887,-22.03 -23.235,-39.377 -45.265,-45.265c-39.932,-10.7 -200.038,-10.7 -200.038,-10.7c0,0 -160.107,0 -200.039,10.7c-22.026,5.888 -39.377,23.235 -45.264,45.265c-10.697,39.928 -10.697,123.238 -10.697,123.238c0,0 0,83.308 10.697,123.232c5.887,22.03 23.238,39.382 45.264,45.269c39.932,10.696 200.039,10.696 200.039,10.696c0,0 160.106,0 200.038,-10.696c22.03,-5.887 39.378,-23.239 45.265,-45.269c10.696,-39.924 10.696,-123.232 10.696,-123.232c0,0 0,-83.31 -10.696,-123.238Zm-296.506,200.039l0,-153.603l133.019,76.802l-133.019,76.801Z" style="fill-rule:nonzero;"/></g></symbol></svg>