<svg width="20" height="21" viewBox="0 0 20 21" fill="none" xmlns="http://www.w3.org/2000/svg">
<path d="M11.098 8.49854C11.9087 7.40831 12.9709 6.76536 14.2569 6.62558C15.8782 6.45785 17.4716 6.59763 18.7017 7.88354C19.4005 8.63832 19.736 9.58877 19.8478 10.5951C19.9596 11.4617 19.9876 12.3283 19.9876 13.167C20.0155 15.4033 19.9876 17.6118 19.9876 19.8481C19.9876 20.1556 19.9317 20.2395 19.5962 20.2395C18.4501 20.2115 17.3039 20.2115 16.1298 20.2395C15.8503 20.2395 15.7664 20.1556 15.7664 19.8761C15.7664 17.6397 15.7664 15.4033 15.7664 13.167C15.7664 12.7756 15.7105 12.3563 15.6546 11.9649C15.375 10.4554 14.3687 10.1199 13.1107 10.3156C12.0484 10.4833 11.4614 11.2101 11.3216 12.3842C11.2657 12.8315 11.2378 13.3067 11.2378 13.754C11.2378 15.7388 11.2378 17.7236 11.2378 19.7084C11.2378 20.2395 11.2378 20.2395 10.7066 20.2395C9.58843 20.2395 8.4982 20.2395 7.38001 20.2395C7.12842 20.2395 7.0166 20.1836 7.0166 19.904C7.0166 15.6829 7.0166 11.4338 7.0166 7.21262C7.0166 6.93308 7.12842 6.84922 7.38001 6.84922C8.4982 6.84922 9.58843 6.84922 10.7066 6.84922C10.9862 6.84922 11.07 6.96103 11.07 7.21262C11.07 7.6599 11.098 8.07922 11.098 8.49854Z" fill="white"/>
<path d="M4.55673 13.5861C4.55673 15.6547 4.55673 17.7234 4.55673 19.82C4.55673 20.1554 4.47286 20.2952 4.10945 20.2672C2.96331 20.2393 1.81717 20.2393 0.698985 20.2672C0.391484 20.2672 0.307617 20.1554 0.307617 19.8759C0.307617 15.6827 0.307617 11.4895 0.307617 7.29627C0.307617 6.96082 0.419436 6.87695 0.726937 6.87695C1.84512 6.87695 2.99127 6.90491 4.10945 6.87695C4.47286 6.87695 4.55673 7.01672 4.55673 7.35218C4.52877 9.42082 4.55673 11.5174 4.55673 13.5861Z" fill="white"/>
<path d="M2.43205 0.279297C3.77388 0.279297 4.86411 1.39749 4.86411 2.71136C4.86411 4.02522 3.74592 5.17136 2.43205 5.14341C1.09023 5.14341 0 4.05318 0 2.6834C0 1.36953 1.09023 0.279297 2.43205 0.279297Z" fill="white"/>
</svg>
