<svg width="21" height="20" viewBox="0 0 21 20" fill="none" xmlns="http://www.w3.org/2000/svg">
<path d="M16.9312 0H4.05595C1.81948 0 0 1.73354 0 3.86485V7.94756V16.1351C0 18.2665 1.81948 20 4.05595 20H16.9316C19.1681 20 20.9871 18.2665 20.9871 16.1351V7.94715V3.86445C20.9867 1.73313 19.1677 0 16.9312 0ZM18.0945 2.30479L18.5585 2.30318V2.74332V5.69319L15.0131 5.70409L15.0008 2.31447L18.0945 2.30479ZM7.49807 7.94715C8.17032 7.06082 9.26083 6.47948 10.4936 6.47948C11.7263 6.47948 12.8168 7.06082 13.4882 7.94715C13.9255 8.52567 14.1876 9.23328 14.1876 9.9998C14.1876 11.9407 12.529 13.5197 10.4931 13.5197C8.45607 13.5197 6.79915 11.9407 6.79915 9.9998C6.79957 9.23328 7.06077 8.52567 7.49807 7.94715ZM18.942 16.1347C18.942 17.1921 18.0399 18.051 16.9312 18.051H4.05595C2.94682 18.051 2.0447 17.1921 2.0447 16.1347V7.94715H5.17736C4.90685 8.58134 4.75487 9.27403 4.75487 9.9998C4.75487 13.0146 7.32874 15.4691 10.4936 15.4691C13.658 15.4691 16.2318 13.0146 16.2318 9.9998C16.2318 9.27403 16.079 8.58134 15.8085 7.94715H18.942V16.1347Z" fill="white"/>
</svg>
