<svg width="20" height="20" viewBox="0 0 20 20" fill="none" xmlns="http://www.w3.org/2000/svg">
<path fill-rule="evenodd" clip-rule="evenodd" d="M20 10C20 15.5228 15.5228 20 10 20C4.47715 20 0 15.5228 0 10C0 4.47715 4.47715 0 10 0C15.5228 0 20 4.47715 20 10ZM15.1979 8.64087C15.9968 8.64087 16.6523 9.28464 16.6523 10.0953C16.6523 10.6913 16.2948 11.204 15.7941 11.4306C15.8179 11.5735 15.8299 11.7286 15.8299 11.8718C15.8299 14.1249 13.219 15.9371 10.0001 15.9371C6.78121 15.9371 4.17032 14.1129 4.17032 11.8718C4.17032 11.7166 4.1821 11.5735 4.2061 11.4306C3.70521 11.204 3.34766 10.7033 3.34766 10.1073C3.34766 9.30842 3.99143 8.65287 4.8021 8.65287C5.19543 8.65287 5.55321 8.80776 5.81543 9.0582C6.82877 8.33087 8.22366 7.86598 9.77343 7.8182L10.5128 4.33709C10.5245 4.26553 10.5603 4.20598 10.6199 4.1702C10.6677 4.13442 10.7392 4.12242 10.8108 4.13442L13.2308 4.64709C13.3977 4.30131 13.7554 4.06287 14.1608 4.06287C14.733 4.06287 15.1979 4.52775 15.1979 5.09998C15.1979 5.67242 14.733 6.13731 14.1608 6.13731C13.6003 6.13731 13.1474 5.6962 13.1234 5.14776L10.9537 4.68287L10.2861 7.80642C11.8121 7.86598 13.1832 8.33087 14.1845 9.0462C14.4468 8.79575 14.8045 8.64087 15.1979 8.64087ZM7.69921 10.0953C7.12677 10.0953 6.66188 10.5602 6.66188 11.1324C6.66188 11.7046 7.12677 12.1815 7.69921 12.1698C8.27143 12.1698 8.73632 11.7046 8.73632 11.1324C8.73632 10.5602 8.27143 10.0953 7.69921 10.0953ZM10.0001 14.6495C10.3934 14.6495 11.7525 14.6018 12.4679 13.8864C12.5632 13.7791 12.5632 13.6122 12.4679 13.5049C12.3605 13.3978 12.1937 13.3978 12.0863 13.5049C11.6452 13.958 10.6797 14.1129 10.0001 14.1129C9.32055 14.1129 8.36677 13.958 7.91366 13.5049C7.80632 13.3978 7.63943 13.3978 7.5321 13.5049C7.42499 13.6122 7.42499 13.7791 7.5321 13.8864C8.23566 14.5898 9.59477 14.6495 10.0001 14.6495ZM11.2399 11.1444C11.2399 11.7166 11.7048 12.1815 12.277 12.1815C12.8494 12.1815 13.3143 11.7046 13.3143 11.1444C13.3143 10.5722 12.8494 10.1073 12.277 10.1073C11.7048 10.1073 11.2399 10.5722 11.2399 11.1444Z" fill="white"/>
</svg>
