<svg width="732" height="272" viewBox="0 0 732 272" fill="none" xmlns="http://www.w3.org/2000/svg">
<g filter="url(#filter0_d)">
<path d="M149.25 126.989L148.92 151.976C148.875 152.194 148.901 152.291 148.856 152.509C148.882 152.606 148.811 152.728 148.863 152.921L148.844 153.236C149.042 157.832 151.272 162.296 155.455 166.341C159.812 170.649 166.271 174.704 174.194 178.057C190.164 184.832 212.218 189.254 236.697 189.617C261.176 189.98 283.336 186.315 299.451 180.137C307.508 177.049 314.054 173.332 318.607 169.116C323.063 164.926 325.648 160.307 325.687 155.441C325.661 155.345 325.635 155.248 325.732 155.222L325.828 155.196L325.769 127.214L293.306 127.131C278.161 121.891 259.008 118.655 238.039 118.281C214.601 117.95 193.283 121.286 177.45 126.974L149.25 126.989Z" fill="#1B143A" stroke="#3A3A61" stroke-width="0.924377" stroke-miterlimit="10"/>
<path d="M290.572 131.059L290.785 146.755L290.998 162.452L291.186 178.952L291.253 182.855C291.717 182.671 292.213 182.624 292.677 182.441L292.649 178.093L292.497 163.253L292.283 147.556L292.07 131.86L292.031 125.048C291.553 124.872 291.161 124.749 290.631 124.658L290.572 131.059Z" fill="#61618F" fill-opacity="0.32"/>
<path d="M298.458 138.816L298.671 154.513L298.859 171.013L298.962 180.205C299.426 180.021 299.89 179.837 300.353 179.653L300.237 170.102L300.084 155.262L299.871 139.565L299.691 127.635C299.214 127.459 298.736 127.283 298.259 127.108L298.458 138.816Z" fill="#61618F" fill-opacity="0.32"/>
<path d="M306.344 146.575L306.533 163.075L306.677 176.974C307.141 176.79 307.657 176.521 308.036 176.285L307.858 162.249L307.706 147.409L307.517 130.908L307.459 127.947L306.073 127.917L306.145 131.238L306.344 146.575Z" fill="#61618F" fill-opacity="0.32"/>
<path d="M251.292 123.726L251.481 140.226L251.694 155.923L251.847 170.763L252.06 186.459L252.085 189.284C252.582 189.237 253.027 189.275 253.438 189.176L253.422 187.294L253.208 171.597L253.02 155.096L252.807 139.4L252.654 124.56L252.623 118.689C252.178 118.651 251.734 118.612 251.237 118.659L251.292 123.726Z" fill="#61618F" fill-opacity="0.32"/>
<path d="M243.534 131.612L243.723 148.113L243.936 163.809L244.089 178.65L244.227 189.502C244.724 189.455 245.169 189.493 245.665 189.447L245.587 179.451L245.399 162.95L245.186 147.254L245.033 132.414L244.908 118.292C244.463 118.254 243.966 118.301 243.522 118.262L243.534 131.612Z" fill="#61618F" fill-opacity="0.32"/>
<path d="M227.838 131.826L228.051 147.522L228.24 164.023L228.453 179.719L228.517 189.356C228.962 189.394 229.406 189.432 229.903 189.386L229.779 178.893L229.565 163.197L229.413 148.356L229.2 132.66L229.022 118.624C228.525 118.671 228.081 118.632 227.669 118.731L227.838 131.826Z" fill="#61618F" fill-opacity="0.32"/>
<path d="M322.101 147.217L322.314 162.914L322.334 166.32C322.784 165.776 323.319 165.285 323.684 164.689L323.607 161.95L323.394 146.254L323.213 130.694L323.221 128.008L321.835 127.977L321.88 130.579L322.101 147.217Z" fill="#61618F" fill-opacity="0.32"/>
<path d="M314.154 138.603L314.343 155.103L314.556 170.8L314.573 172.683C315.003 172.362 315.519 172.092 315.95 171.771L315.967 170.026L315.753 154.329L315.601 139.489L315.468 128.055L314.082 128.025L314.154 138.603Z" fill="#61618F" fill-opacity="0.32"/>
<path d="M212.141 132.039L212.354 147.735L212.567 163.432L212.756 179.933L212.817 188.046C213.262 188.084 213.707 188.122 214.236 188.213L214.082 179.106L213.929 164.266L213.716 148.57L213.503 132.873L213.314 120.001C212.818 120.048 212.406 120.146 211.909 120.193L212.141 132.039Z" fill="#61618F" fill-opacity="0.32"/>
<path d="M220.164 139.763L220.377 155.459L220.566 171.96L220.779 187.657L220.768 188.82C221.213 188.859 221.657 188.897 222.102 188.935L222.105 186.83L221.891 171.134L221.739 156.294L221.526 140.597L221.312 124.901L221.229 119.115C220.733 119.162 220.321 119.261 219.876 119.222L219.951 124.066L220.164 139.763Z" fill="#61618F" fill-opacity="0.32"/>
<path d="M196.557 133.022L196.71 147.863L196.923 163.559L197.136 179.256L197.2 185.264C197.645 185.302 198.122 185.478 198.567 185.516L198.55 180.005L198.337 164.308L198.124 148.612L197.935 132.111L197.819 122.56C197.407 122.659 196.858 122.79 196.446 122.889L196.557 133.022Z" fill="#61618F" fill-opacity="0.32"/>
<path d="M190.527 172.281L190.313 156.584L190.125 140.084L189.945 124.524C189.481 124.708 189.069 124.807 188.52 124.939L188.534 125.299L188.747 140.995L188.9 155.835L189.113 171.532L189.26 183.325C189.738 183.501 190.182 183.539 190.66 183.715L190.527 172.281Z" fill="#61618F" fill-opacity="0.32"/>
<path d="M282.761 139.029L282.974 154.725L283.187 170.422L283.326 184.902C283.738 184.804 284.287 184.672 284.699 184.573L284.549 171.256L284.336 155.56L284.122 139.863L283.934 123.362L284.005 123.055C283.613 122.932 283.083 122.841 282.638 122.803L282.66 124.104L282.761 139.029Z" fill="#61618F" fill-opacity="0.32"/>
<path d="M158.792 141.365L158.593 126.029L157.207 125.999L157.346 140.479L157.534 156.98L157.711 167.387C157.881 167.492 157.999 167.681 158.117 167.87C158.406 168.164 158.779 168.51 159.119 168.718L158.997 156.121L158.792 141.365Z" fill="#61618F" fill-opacity="0.32"/>
<path d="M274.851 132.075L275.003 146.915L275.217 162.612L275.43 178.308L275.576 186.473C276.073 186.427 276.485 186.328 276.896 186.229L276.791 179.142L276.578 163.446L276.365 147.749L276.176 131.249L276.046 121.338C275.602 121.299 275.124 121.124 274.679 121.085L274.851 132.075Z" fill="#61618F" fill-opacity="0.32"/>
<path d="M266.964 124.318L267.177 140.014L267.33 154.854L267.543 170.551L267.756 186.247L267.759 187.771C268.256 187.724 268.668 187.625 269.164 187.578L269.118 187.082L268.904 171.385L268.691 155.689L268.503 139.188L268.289 123.491L268.218 120.17C267.773 120.132 267.243 120.042 266.799 120.003L266.964 124.318Z" fill="#61618F" fill-opacity="0.32"/>
<path d="M259.154 132.288L259.367 147.985L259.52 162.825L259.733 178.521L259.844 188.654C260.341 188.608 260.753 188.509 261.197 188.547L261.095 179.355L260.881 163.659L260.693 147.158L260.48 131.462L260.319 119.309C259.875 119.27 259.43 119.232 258.985 119.193L259.154 132.288Z" fill="#61618F" fill-opacity="0.32"/>
<path d="M235.596 123.938L235.809 139.635L235.998 156.135L236.211 171.832L236.363 186.672L236.421 189.634C236.866 189.672 237.363 189.625 237.807 189.664L237.725 187.506L237.536 171.006L237.323 155.309L237.171 140.469L236.957 124.772L236.88 118.405C236.435 118.367 235.938 118.413 235.494 118.375L235.596 123.938Z" fill="#61618F" fill-opacity="0.32"/>
<path d="M204.468 139.976L204.681 155.672L204.894 171.369L205.127 186.843C205.571 186.881 206.101 186.972 206.494 187.095L206.546 187.01L206.393 172.17L206.18 156.474L205.967 140.777L205.778 124.277L205.739 121.093C205.243 121.139 204.831 121.238 204.334 121.285L204.368 125.051L204.468 139.976Z" fill="#61618F" fill-opacity="0.32"/>
<path d="M182.64 164.521L182.452 148.02L182.238 132.324L182.175 126.316L180.789 126.286L180.913 133.15L181.126 148.847L181.279 163.687L181.492 179.383L181.547 180.822C182.025 180.997 182.502 181.173 182.895 181.296L182.853 180.218L182.64 164.521Z" fill="#61618F" fill-opacity="0.32"/>
<path d="M174.83 172.493L174.642 155.992L174.429 140.296L174.251 126.26L172.865 126.23L173.051 141.207L173.264 156.903L173.417 171.744L173.481 177.752C173.958 177.927 174.384 178.188 174.861 178.363L174.83 172.493Z" fill="#61618F" fill-opacity="0.32"/>
<path d="M166.968 163.931L166.755 148.235L166.603 133.395L166.465 126.171L165.078 126.141L165.104 132.593L165.293 149.094L165.506 164.791L165.647 173.538C166.072 173.798 166.583 174.111 167.008 174.372L166.968 163.931Z" fill="#61618F" fill-opacity="0.32"/>
<path d="M236.781 162.94C261.163 163.328 283.349 159.76 299.342 153.512C307.399 150.423 313.945 146.706 318.497 142.49C322.954 138.3 325.539 133.682 325.578 128.815C325.617 123.949 323.336 119.291 318.979 114.983C314.622 110.675 308.285 106.691 300.239 103.268C284.366 96.4665 262.338 92.1409 238.026 91.6301C213.714 91.1192 191.457 94.8099 175.465 101.058C167.408 104.147 160.862 107.864 156.309 112.08C151.853 116.27 149.268 120.888 149.229 125.754C149.19 130.621 151.471 135.278 155.828 139.587C160.185 143.895 166.521 147.879 174.567 151.302C190.344 158.129 212.398 162.551 236.781 162.94Z" fill="#1B143A" stroke="#61618F" stroke-width="0.924377" stroke-miterlimit="10"/>
<path d="M237.959 96.5812C194.259 95.8564 158.61 108.805 158.333 125.502C158.056 142.199 193.257 156.322 236.956 157.047C280.655 157.772 316.305 144.824 316.582 128.126C316.859 111.429 281.658 97.3059 237.959 96.5812Z" stroke="#B7F348" stroke-width="0.924377" stroke-miterlimit="10"/>
<path d="M186.456 121.255C186.573 122.464 186.594 123.698 186.615 124.932C186.687 126.359 186.663 127.812 186.761 129.335C186.775 130.158 187.412 130.607 188.698 130.779C203.357 133.05 218.042 135.417 232.823 137.759C233.042 137.804 233.164 137.874 233.286 137.945C234.407 139.814 235.335 141.735 236.43 143.508C236.456 143.604 236.578 143.675 236.893 143.694C239.079 144.141 241.336 144.466 243.496 144.817C243.618 144.888 243.715 144.862 243.907 144.81C242.761 142.845 241.711 140.853 240.442 138.817C251.121 140.501 261.582 142.141 272.165 143.851C272.139 143.754 272.209 143.632 272.184 143.536C271.714 132.917 271.368 122.369 270.776 111.679C270.788 110.953 270.151 110.503 268.962 110.306C265.419 109.808 261.947 109.189 258.308 108.718C256.708 108.527 255.725 109.1 255.713 109.827C255.923 113.696 256.011 117.495 256.292 121.242C256.392 124.315 256.563 127.265 256.663 130.338C256.592 130.46 256.689 130.434 256.618 130.556C256.522 130.582 256.4 130.512 256.4 130.512C249.044 129.28 241.496 128.1 234.141 126.868C233.922 126.823 233.8 126.753 233.774 126.656C232.75 124.761 231.725 122.866 230.701 120.971C230.553 120.804 230.431 120.733 230.186 120.592C228.367 120.357 226.522 120.024 224.702 119.789C224.143 119.629 223.538 119.687 222.883 119.553C224.029 121.519 225.079 123.51 226.348 125.547C226.226 125.476 226.13 125.502 226.007 125.431C223.969 125.151 222.002 124.748 219.964 124.468C209.625 122.899 199.357 121.208 189.089 119.516C187.521 119.833 186.32 120.362 186.456 121.255Z" stroke="#61618F" stroke-width="0.924377" stroke-miterlimit="10"/>
</g>
<g filter="url(#filter1_d)">
<path d="M196.498 92.8453C197.646 86.4366 197.004 81.1014 194.066 76.972C193.969 76.9325 194.008 76.8359 193.912 76.7965L176.566 53.2622L149.118 73.2949C133.208 78.3049 114.943 87.4279 97.0037 100.178C77.155 114.292 61.3266 130.158 51.5353 144.766L27.7289 162.226C27.7289 162.226 42.7442 183.457 43.2237 184.216C46.1616 188.345 50.9907 190.879 57.4209 191.698C63.8117 192.613 71.6282 191.968 80.3654 189.895C98.0726 185.731 119.309 175.678 140.132 160.834C160.955 145.991 177.41 129.14 187.108 113.931C192.103 106.385 195.349 99.2539 196.498 92.8453Z" fill="#1B143A" stroke="#3A3A61" stroke-width="0.966946" stroke-miterlimit="10"/>
<path d="M181.735 68.786L182.1 69.2731L188.083 78.9284L193.74 88.0001L196.674 92.6917C196.775 92.169 196.875 91.6463 196.936 91.2202L194.961 88.0471L188.71 77.9441L183.053 68.8725L182.688 68.3854L177.03 59.3137L174.461 55.1092L173.663 55.6854L175.906 59.3061L181.735 68.786Z" fill="#61618F" fill-opacity="0.32"/>
<path d="M166.634 66.008L172.291 75.0797L172.656 75.5667L178.313 84.6384L178.678 85.1255L184.661 94.7808L190.318 103.852L191.66 106.091C191.817 105.704 192.032 105.454 192.19 105.067L191.442 103.86L185.094 93.7176L179.437 84.646L179.072 84.1589L173.415 75.0873L173.05 74.6002L167.393 65.5285L167.028 65.0415L164.995 61.7323L164.197 62.3084L166.269 65.5209L166.634 66.008Z" fill="#61618F" fill-opacity="0.32"/>
<path d="M157.326 72.2449L162.983 81.3165L163.348 81.8036L169.005 90.8752L169.37 91.3624L175.027 100.434L175.392 100.921L181.375 110.576L185.229 116.883C185.444 116.633 185.602 116.246 185.816 115.995L181.809 109.513L176.152 100.442L175.787 99.9545L170.13 90.8829L169.764 90.3958L164.107 81.3241L163.742 80.837L158.085 71.7654L157.72 71.2783L155.995 68.3202L155.197 68.8963L156.961 71.7578L157.326 72.2449Z" fill="#61618F" fill-opacity="0.32"/>
<path d="M147.881 78.54L153.538 87.6116L153.903 88.0987L159.561 97.1703L159.926 97.6575L165.583 106.729L165.948 107.216L171.605 116.288L171.97 116.775L177.953 126.43C178.168 126.18 178.383 125.929 178.637 125.582L178.426 125.27L172.769 116.199L172.404 115.712L166.746 106.64L166.381 106.153L160.724 97.0813L160.359 96.5942L154.702 87.5226L154.337 87.0355L148.68 77.9639L148.315 77.4768L146.243 74.2643C145.971 74.3787 145.602 74.4538 145.33 74.5682L147.516 78.0529L147.881 78.54Z" fill="#61618F" fill-opacity="0.32"/>
<path d="M146.199 86.5348L151.856 95.6065L158.107 105.709L163.765 114.781L170.016 124.884L173.909 131.094C174.124 130.844 174.339 130.593 174.554 130.343L170.546 123.86L164.889 114.789L158.638 104.686L152.981 95.6141L146.729 85.511L141.072 76.4394L141.015 76.3033C140.743 76.4178 140.374 76.4928 140.062 76.704L146.199 86.5348Z" fill="#61618F" fill-opacity="0.32"/>
<path d="M130.772 83.173L136.429 92.2446L142.68 102.348L148.337 111.419L154.588 121.522L160.245 130.594L165.749 139.49C165.964 139.24 166.275 139.028 166.49 138.778L161.37 130.602L155.119 120.499L149.461 111.427L143.21 101.324L137.553 92.2522L131.302 82.1492L130.44 80.6701C130.168 80.7846 129.856 80.9957 129.584 81.1102L130.772 83.173Z" fill="#61618F" fill-opacity="0.32"/>
<path d="M151.753 136.487L146.096 127.415L139.845 117.312L134.188 108.241L127.937 98.1375L122.28 89.0659L120.305 85.8928C120.032 86.0073 119.721 86.2184 119.449 86.3329L121.155 89.0583L127.407 99.1613L133.064 108.233L139.315 118.336L144.972 127.408L151.223 137.511L156.88 146.582L157.456 147.381C157.671 147.13 157.983 146.919 158.198 146.669L158.044 146.493L151.753 136.487Z" fill="#61618F" fill-opacity="0.32"/>
<path d="M148.332 152.342L142.675 143.27L136.424 133.167L130.766 124.095L124.515 113.992L118.858 104.921L112.607 94.8176L110.478 91.469C110.166 91.6801 109.894 91.7945 109.583 92.0057L112.037 95.938L117.694 105.01L123.946 115.113L129.603 124.184L135.854 134.287L141.511 143.359L147.494 153.014L147.859 153.501L148.703 154.748C149.015 154.537 149.23 154.286 149.502 154.172L148.754 152.965L148.332 152.342Z" fill="#61618F" fill-opacity="0.32"/>
<path d="M138.984 158.675L133.327 149.603L132.962 149.116L127.305 140.045L121.054 129.942L115.397 120.87L109.145 110.767L103.488 101.695L100.976 97.6268C100.665 97.8379 100.393 97.9524 100.178 98.203L102.364 101.688L108.615 111.791L114.272 120.862L120.523 130.965L126.181 140.037L132.163 149.692L132.528 150.179L138.186 159.251L138.551 159.738L139.663 161.432C139.936 161.318 140.151 161.067 140.423 160.953C140.423 160.953 140.423 160.953 140.462 160.856L139.349 159.162L138.984 158.675Z" fill="#61618F" fill-opacity="0.32"/>
<path d="M195.651 80.5487L196.131 81.308C195.637 79.7538 195.008 78.2569 194.066 76.9712C193.97 76.9318 194.009 76.8351 193.913 76.7957L190.302 71.8281L195.422 80.0044L195.651 80.5487Z" fill="#61618F" fill-opacity="0.32"/>
<path d="M173.973 67.0853L180.224 77.1883L185.881 86.2599L186.246 86.747L191.904 95.8186L192.269 96.3057L194.455 99.7904C194.613 99.4038 194.77 99.0171 194.928 98.6305L193.164 95.769L192.799 95.2819L187.142 86.2103L186.777 85.7232L180.794 76.0678L175.137 66.9962L169.691 58.2362L168.853 58.909L173.973 67.0853Z" fill="#61618F" fill-opacity="0.32"/>
<path d="M164.991 73.9059L170.648 82.9775L176.899 93.0805L182.556 102.152L182.921 102.639L188.521 111.575C188.776 111.228 188.894 110.938 189.148 110.59L183.856 102.006L183.491 101.519L177.508 91.8634L171.851 82.7918L165.6 72.6888L160.691 64.8241L159.892 65.4002L164.991 73.9059Z" fill="#61618F" fill-opacity="0.32"/>
<path d="M155.182 79.7127L161.433 89.8158L167.09 98.8874L173.341 108.99L178.998 118.062L179.363 118.549L181.396 121.858C181.611 121.608 181.865 121.261 182.08 121.01L180.259 118.012L179.894 117.525L173.911 107.87L168.254 98.7983L162.003 88.6953L156.345 79.6237L151.379 71.6229L150.58 72.199L155.182 79.7127Z" fill="#61618F" fill-opacity="0.32"/>
<path d="M138.534 84.8737L144.191 93.9453L144.556 94.4324L150.213 103.504L150.578 103.991L156.235 113.063L156.6 113.55L162.257 122.621L162.622 123.109L168.279 132.18L168.644 132.667L170.294 135.257C170.509 135.006 170.724 134.756 171.035 134.544L169.54 132.131L169.175 131.643L163.518 122.572L163.153 122.085L157.495 113.013L157.13 112.526L151.473 103.454L151.108 102.967L145.451 93.8957L145.086 93.4086L139.429 84.337L139.064 83.8499L135.65 78.399C135.378 78.5135 134.97 78.6852 134.698 78.7997L138.169 84.3866L138.534 84.8737Z" fill="#61618F" fill-opacity="0.32"/>
<path d="M129.09 91.1676L134.747 100.239L135.112 100.726L140.769 109.798L141.134 110.285L146.791 119.357L147.156 119.844L152.813 128.915L153.178 129.402L158.836 138.474L161.884 143.438C162.099 143.187 162.411 142.976 162.626 142.726L159.96 138.482L153.977 128.826L153.612 128.339L147.955 119.268L147.59 118.78L141.933 109.709L141.568 109.222L135.911 100.15L135.546 99.6631L129.888 90.5915L129.523 90.1044L125.151 83.135C124.879 83.2494 124.567 83.4606 124.295 83.5751L128.628 90.6411L129.09 91.1676Z" fill="#61618F" fill-opacity="0.32"/>
<path d="M150.111 144.386L144.454 135.314L138.471 125.659L138.106 125.172L132.449 116.1L132.084 115.613L126.427 106.542L126.062 106.054L120.405 96.9829L120.04 96.4958L115.13 88.6311C114.819 88.8422 114.546 88.9567 114.235 89.1678L119.47 97.6163L125.127 106.688L125.492 107.175L131.149 116.247L131.514 116.734L137.171 125.805L137.536 126.292L143.193 135.364L149.445 145.467L153.012 151.093C153.324 150.882 153.539 150.632 153.85 150.421L150.111 144.386Z" fill="#61618F" fill-opacity="0.32"/>
<path d="M141.031 151.167L134.78 141.064L129.123 131.992L123.14 122.337L122.775 121.85L117.118 112.778L116.753 112.291L111.096 103.219L105.553 94.4198C105.242 94.6309 104.969 94.7454 104.754 94.9959L109.932 103.308L116.183 113.411L121.84 122.483L122.205 122.97L127.863 132.042L134.114 142.145L139.771 151.216L144.047 158.146C144.358 157.935 144.573 157.685 144.845 157.57L141.031 151.167Z" fill="#61618F" fill-opacity="0.32"/>
<path d="M131.319 157.013L125.662 147.941L119.411 137.838L113.754 128.767L107.771 119.111L101.52 109.008L96.3993 100.832C96.0877 101.043 95.9122 101.197 95.6006 101.408L101.047 110.168L106.704 119.24L112.84 129.071L118.977 138.901L124.634 147.973L130.885 158.076L134.95 164.694C135.262 164.483 135.534 164.369 135.749 164.118L131.319 157.013Z" fill="#61618F" fill-opacity="0.32"/>
<path d="M129.54 164.97L123.883 155.898L123.518 155.411L117.861 146.339L117.496 145.852L111.839 136.781L105.588 126.678L99.9305 117.606L93.6794 107.503L91.7831 104.137C91.4715 104.348 91.2566 104.598 90.9844 104.713L93.3246 108.373L98.9818 117.445L105.233 127.548L110.89 136.619L111.255 137.106L116.912 146.178L117.277 146.665L122.934 155.737L123.299 156.224L128.957 165.295L129.322 165.782L130.434 167.476C130.746 167.265 131.018 167.151 131.33 166.94L130.217 165.246L129.54 164.97Z" fill="#61618F" fill-opacity="0.32"/>
<path d="M122.239 163.794L115.988 153.691L110.331 144.619L104.08 134.516L98.0973 124.861L92.4402 115.789L87.3197 107.613C87.0081 107.824 86.7932 108.075 86.521 108.189L91.3159 115.782L97.567 125.885L103.55 135.54L109.207 144.612L115.458 154.715L121.115 163.787L125.334 170.58C125.645 170.369 125.918 170.255 126.229 170.044L122.239 163.794Z" fill="#61618F" fill-opacity="0.32"/>
<path d="M120.192 171.301L114.535 162.23L114.17 161.743L108.513 152.671L108.148 152.184L102.491 143.112L96.2394 133.009L90.2567 123.354L84.5995 114.282L82.7782 111.285C82.4667 111.496 82.2517 111.746 82.0368 111.997L83.4753 114.275L89.7264 124.378L95.7091 134.033L101.366 143.105L107.617 153.208L113.275 162.279L113.64 162.766L119.297 171.838L119.662 172.325L120.41 173.532C120.682 173.418 120.993 173.206 121.305 172.995L120.46 171.749L120.192 171.301Z" fill="#61618F" fill-opacity="0.32"/>
<path d="M112.527 169.642L106.87 160.571L100.619 150.468L94.9616 141.396L88.7105 131.293L82.7278 121.638L78.5663 114.98C78.3514 115.231 78.0398 115.442 77.8249 115.692L82.158 122.758L88.1408 132.414L93.798 141.485L100.049 151.588L105.706 160.66L111.957 170.763L115.428 176.35C115.7 176.235 116.012 176.024 116.284 175.91L112.527 169.642Z" fill="#61618F" fill-opacity="0.32"/>
<path d="M110.787 177.5L105.13 168.428L104.765 167.941L99.1077 158.87L92.8566 148.767L87.1994 139.695L80.9483 129.592L74.9656 119.937L74.3144 118.769C74.0994 119.02 73.7878 119.231 73.5729 119.481L74.5319 121L80.5147 130.655L86.1718 139.727L92.4229 149.83L98.0801 158.901L104.331 169.004L109.988 178.076L110.353 178.563L110.507 178.739C110.779 178.624 111.091 178.413 111.363 178.299L111.152 177.987L110.787 177.5Z" fill="#61618F" fill-opacity="0.32"/>
<path d="M103.448 176.423L97.1967 166.32L91.5396 157.248L85.2884 147.145L79.6313 138.073L73.3802 127.97L70.2743 122.871C70.0594 123.121 69.7478 123.332 69.5329 123.583L72.8498 128.994L78.507 138.066L84.7581 148.169L90.4153 157.241L96.6664 167.344L102.324 176.415L105.315 181.243C105.587 181.128 105.899 180.917 106.268 180.842L103.448 176.423Z" fill="#61618F" fill-opacity="0.32"/>
<path d="M95.7824 174.761L89.5313 164.658L83.8741 155.587L77.623 145.484L71.9659 136.412L66.0976 127.029C65.8826 127.279 65.6677 127.53 65.3561 127.741L70.7449 136.365L76.996 146.468L82.6532 155.54L88.9043 165.643L94.5615 174.714L99.9109 183.435C100.183 183.32 100.591 183.149 100.863 183.034L95.7824 174.761Z" fill="#61618F" fill-opacity="0.32"/>
<path d="M93.7751 182.173L88.1179 173.101L81.8668 162.998L76.2096 153.927L69.9585 143.824L64.3014 134.752L62.1723 131.403C61.9574 131.654 61.7424 131.905 61.5275 132.155L63.1771 134.744L69.4282 144.847L75.0854 153.919L81.3365 164.022L86.9937 173.094L93.2447 183.197L94.6832 185.475C94.9554 185.36 95.3242 185.285 95.6358 185.074L93.7751 182.173Z" fill="#61618F" fill-opacity="0.32"/>
<path d="M86.07 180.609L80.4128 171.538L74.1617 161.435L68.5045 152.363L62.2534 142.26L58.3603 136.05C58.1453 136.3 57.9304 136.551 57.6761 136.898L61.6836 143.381L67.3408 152.452L73.5919 162.555L79.2491 171.627L85.5002 181.73L89.1822 187.628C89.551 187.553 89.8232 187.439 90.192 187.364L86.07 180.609Z" fill="#61618F" fill-opacity="0.32"/>
<path d="M78.4053 178.949L72.7481 169.877L66.497 159.774L60.8398 150.702L54.6459 140.735C54.431 140.986 54.1766 141.333 53.9617 141.584L59.6189 150.655L65.87 160.758L71.5272 169.83L77.7783 179.933L83.4354 189.005L83.4927 189.141C83.8615 189.066 84.1337 188.951 84.5025 188.876L78.4053 178.949Z" fill="#61618F" fill-opacity="0.32"/>
<path d="M76.9906 187.39L70.7395 177.287L65.0824 168.215L58.8313 158.112L53.1741 149.041L50.9306 145.42L50.1319 145.996L52.0498 149.033L58.3009 159.136L63.9581 168.208L70.2092 178.311L75.8664 187.382L77.8415 190.555C78.2104 190.48 78.5792 190.405 78.8514 190.291L76.9906 187.39Z" fill="#61618F" fill-opacity="0.32"/>
<path d="M69.3259 185.73L63.0747 175.627L57.4176 166.556L51.1664 156.453L46.411 148.764L45.6123 149.34L50.6361 157.477L56.2933 166.548L62.5444 176.651L68.2016 185.723L71.8263 191.485C72.1951 191.41 72.564 191.335 72.8933 191.357L69.3259 185.73Z" fill="#61618F" fill-opacity="0.32"/>
<path d="M61.6601 184.069L55.4089 173.966L49.7518 164.894L43.5007 154.791L41.8905 152.105L41.0918 152.681L43.067 155.855L48.7242 164.926L54.9753 175.029L60.6324 184.101L65.599 192.102C65.9284 192.123 66.3939 192.088 66.7627 192.013L61.6601 184.069Z" fill="#61618F" fill-opacity="0.32"/>
<path d="M59.6523 191.481L53.9951 182.409L47.744 172.306L42.0868 163.234L37.2348 155.506L36.4361 156.082L40.9231 163.323L47.1743 173.426L52.8314 182.498L58.6997 191.881C59.1258 191.942 59.5518 192.003 59.9779 192.064L59.6523 191.481Z" fill="#61618F" fill-opacity="0.32"/>
<path d="M51.8508 189.876L46.1936 180.804L39.9425 170.701L34.2853 161.63L32.5785 158.904L31.7798 159.48L33.1216 161.719L39.3727 171.822L45.0299 180.893L50.7443 190.101C51.2276 190.298 51.7109 190.495 52.2336 190.596L51.8508 189.876Z" fill="#61618F" fill-opacity="0.32"/>
<path d="M27.8263 162.265C27.8263 162.265 28.6708 163.511 30.0342 165.42L27.9624 162.207L27.8263 162.265Z" fill="#61618F" fill-opacity="0.32"/>
<path d="M123.846 138.296C144.629 123.549 160.988 106.659 170.687 91.4494C175.488 83.8249 178.638 76.6544 179.883 70.2852C181.088 64.0126 180.389 58.5414 177.451 54.4119C174.513 50.2824 169.684 47.7491 163.196 46.7941C156.805 45.8786 149.028 46.4269 140.252 48.5968C122.641 52.8005 101.387 62.6205 80.6608 77.5035C59.9346 92.3866 43.5185 109.14 33.8201 124.35C29.0193 131.975 25.8692 139.145 24.6242 145.514C23.4187 151.787 24.1183 157.258 27.0562 161.388C29.9942 165.517 34.8233 168.05 41.3107 169.005C47.7015 169.921 55.4786 169.373 64.2552 167.203C81.8263 163.096 103.023 153.14 123.846 138.296Z" fill="#1B143A" stroke="#61618F" stroke-width="0.966946" stroke-miterlimit="10"/>
<path d="M120.567 133.303C157.877 106.781 179.892 73.7009 169.737 59.4157C159.583 45.1305 121.105 55.0502 83.7942 81.5719C46.4836 108.094 24.4691 141.174 34.6235 155.459C44.7779 169.745 83.2559 159.825 120.567 133.303Z" stroke="#B7F348" stroke-width="0.966946" stroke-miterlimit="10"/>
<path d="M89.096 122.882C87.3345 122.501 86.1174 121.892 84.8036 121.244C83.6259 120.538 82.681 119.814 81.6393 119.051C81.5427 119.012 81.5821 118.915 81.797 118.665C87.506 114.342 93.3906 109.865 99.2357 105.485C99.4112 105.331 99.5867 105.177 99.6833 105.216C99.78 105.256 99.78 105.256 99.78 105.256C101.208 106.176 102.733 107.137 103.986 108.211C104.852 109.128 105.679 110.142 105.882 111.578C106.05 112.548 105.849 113.593 105.025 115.061C103.399 117.667 98.1156 122.051 93.3031 122.794C91.5951 123.112 90.2775 123.025 89.096 122.882ZM114.107 102.193C113.874 102.211 113.777 102.171 113.487 102.053C112.152 101.734 110.838 101.085 109.66 100.379C109.12 100.046 108.522 99.5768 107.885 99.2042C107.788 99.1648 107.828 99.0681 108.043 98.8176C113.361 94.899 118.623 90.8444 123.941 86.9259C124.077 86.8687 124.156 86.6754 124.292 86.6181L124.389 86.6575C125.817 87.5783 127.188 88.3629 128.265 89.5915C128.938 90.4296 129.475 91.3249 129.331 92.5064C129.324 93.6307 128.811 94.8872 127.289 96.4083C124.301 99.5866 119.943 101.98 116.588 102.19C116.259 102.169 115.986 102.283 115.56 102.222C115.192 102.297 114.629 102.293 114.107 102.193ZM143.463 66.7039C143.366 66.6644 143.327 66.7611 143.015 66.9722C138.768 70.2001 134.52 73.4281 130.175 76.6166C130 76.7705 129.824 76.9243 129.728 76.8849C129.631 76.8455 129.631 76.8455 129.631 76.8455C127.258 75.2011 124.885 73.5567 122.608 71.9517C122.511 71.9123 122.551 71.8157 122.511 71.9123C122.415 71.8729 122.279 71.9301 122.064 72.1807C119.413 74.2563 116.706 76.1959 113.919 78.3287C113.608 78.5399 113.608 78.5399 113.704 78.5793C114.399 79.088 115.036 79.4606 115.73 79.9693C116.174 80.2631 116.618 80.5569 116.75 81.0618C117.054 81.9749 115.958 83.5571 114.146 84.9599C109.586 88.3989 105.067 91.7413 100.468 95.277C92.9465 101.003 85.4252 106.729 77.8073 112.415C76.3854 113.413 74.8885 114.043 74.0364 113.921C73.9398 113.882 73.7464 113.803 73.7464 113.803C72.7226 113.272 71.971 112.628 71.026 111.904C70.9294 111.864 70.9688 111.768 70.9294 111.864C70.8327 111.825 70.7933 111.922 70.4817 112.133C67.2298 114.301 63.8811 116.43 60.7653 118.542C60.4537 118.753 60.4143 118.849 60.5109 118.889C62.8842 120.533 65.2179 122.274 67.4945 123.879C67.5912 123.919 67.5517 124.015 67.2007 124.323C62.9136 127.648 58.6086 130.74 54.3608 133.967C54.0098 134.275 53.8737 134.332 54.1243 134.547C55.2626 135.35 56.3436 136.016 57.4425 136.915C57.5391 136.955 57.4997 137.052 57.5391 136.955C57.6358 136.994 57.6752 136.898 57.9868 136.686C62.2345 133.459 66.4429 130.327 70.6906 127.099C71.0022 126.888 71.1383 126.831 71.2349 126.87C71.3316 126.91 71.3316 126.91 71.4282 126.949C72.316 127.537 73.0676 128.182 73.9554 128.769C74.052 128.809 74.0126 128.905 73.7976 129.156C71.8887 130.519 70.0764 131.922 68.1281 133.382C65.7893 135.247 63.3538 137.072 60.9578 138.8C60.6462 139.011 60.6068 139.108 60.8001 139.187C61.0506 139.402 61.3406 139.52 61.5911 139.735C62.4789 140.322 63.3666 140.91 64.1182 141.555C64.2149 141.594 64.2149 141.594 64.2149 141.594C64.3116 141.634 64.4476 141.576 64.6626 141.326C64.7987 141.269 64.7986 141.269 64.7986 141.269C69.0464 138.041 73.2941 134.813 77.5025 131.682C77.6385 131.624 77.814 131.47 77.9501 131.413L78.0468 131.453C79.3211 132.198 80.6744 132.75 82.2603 133.284C82.783 133.384 83.2663 133.581 83.9251 133.625C85.2032 133.808 86.6175 133.934 88.15 133.77C91.505 133.56 95.2542 132.383 99.7093 130.029C104.515 127.367 108.878 124.411 112.681 120.89C115.529 118.331 117.309 115.9 117.983 113.695C118.478 112.206 118.332 110.906 117.874 109.817C117.913 109.72 117.777 109.778 117.856 109.584C118.186 109.606 118.458 109.492 118.69 109.474C122.124 109.071 125.662 107.582 129.77 104.974C131.912 103.593 133.764 102.093 135.576 100.69C138.305 98.4214 140.24 96.1664 141.379 93.9255C142.304 91.9351 142.469 90.4242 142.265 88.9883C141.947 87.2803 141.046 85.8979 139.929 84.766C139.872 84.6299 139.872 84.6299 140.223 84.3222C144.471 81.0942 148.718 77.8663 152.927 74.7351C153.278 74.4273 153.278 74.4273 153.124 74.2518C151.985 73.4493 151.001 72.8223 149.959 72.0593C149.863 72.0198 149.806 71.8838 149.709 71.8443C149.612 71.8049 149.437 71.9588 148.989 72.2272C144.956 75.2045 140.845 78.3752 136.908 81.392C136.733 81.5459 136.557 81.6998 136.461 81.6604C136.364 81.6209 136.364 81.6209 136.364 81.6209C135.476 81.0334 134.589 80.4458 133.701 79.8583C133.508 79.7794 133.644 79.7222 133.995 79.4144C138.203 76.2831 142.275 73.2091 146.484 70.0779C146.835 69.7701 146.835 69.7701 146.777 69.634C145.639 68.8315 144.558 68.1651 143.459 67.266C143.56 66.7433 143.56 66.7433 143.463 66.7039Z" stroke="#61618F" stroke-width="0.966946" stroke-miterlimit="10"/>
</g>
<g filter="url(#filter2_d)">
<path d="M453.19 128.947C464.516 134.167 480.395 137.86 498.136 138.708C515.876 139.556 531.97 137.435 543.837 133.294C549.741 131.203 554.467 128.656 557.874 125.731C560.999 122.963 562.923 119.898 563.246 116.613L564.212 97.55L543.99 96.2287C532.779 91.3518 517.459 87.8666 500.46 87.0878C485.245 86.3921 471.165 87.8771 459.974 90.9034L436.604 89.4416L435.223 109.623C435.183 109.682 435.242 109.723 435.201 109.783C435.076 113.291 436.597 116.701 439.705 119.97C442.972 123.261 447.547 126.308 453.19 128.947Z" fill="#1B143A" stroke="#3A3A61" stroke-width="0.70203" stroke-miterlimit="10"/>
<path d="M537.084 98.2464L536.658 109.614L536.232 120.982L535.758 132.93L535.662 135.757C536.004 135.641 536.366 135.626 536.708 135.51L536.848 132.362L537.287 121.617L537.713 110.249L538.139 98.8817L538.362 93.9502C538.023 93.8055 537.743 93.7016 537.363 93.6165L537.084 98.2464Z" fill="#61618F" fill-opacity="0.32"/>
<path d="M542.504 104.151L542.078 115.519L541.604 127.468L541.339 134.123C541.681 134.008 542.024 133.892 542.366 133.776L542.635 126.859L543.073 116.113L543.499 104.746L543.81 96.1046C543.471 95.9598 543.132 95.8151 542.793 95.6704L542.504 104.151Z" fill="#61618F" fill-opacity="0.32"/>
<path d="M547.925 110.057L547.451 122.006L547.042 132.07C547.384 131.954 547.768 131.779 548.05 131.622L548.441 121.457L548.879 110.711L549.353 98.7628L549.42 96.6175L548.418 96.5445L548.347 98.9506L547.925 110.057Z" fill="#61618F" fill-opacity="0.32"/>
<path d="M508.928 91.4873L508.455 103.436L508.029 114.804L507.591 125.549L507.165 136.917L507.078 138.962C507.44 138.946 507.76 138.99 508.062 138.934L508.119 137.571L508.545 126.203L509.019 114.255L509.445 102.887L509.883 92.1413L510.077 87.8915C509.757 87.8473 509.437 87.8031 509.075 87.8185L508.928 91.4873Z" fill="#61618F" fill-opacity="0.32"/>
<path d="M503.021 96.9085L502.548 108.857L502.122 120.225L501.684 130.97L501.383 138.829C501.744 138.814 502.064 138.858 502.426 138.843L502.739 131.606L503.212 119.657L503.638 108.289L504.076 97.5438L504.508 87.3196C504.187 87.2754 503.826 87.2909 503.506 87.2467L503.021 96.9085Z" fill="#61618F" fill-opacity="0.32"/>
<path d="M491.654 96.4823L491.228 107.85L490.755 119.799L490.329 131.166L490.019 138.142C490.339 138.187 490.66 138.231 491.021 138.215L491.318 130.617L491.744 119.25L492.183 108.504L492.609 97.1364L492.999 86.9718C492.638 86.9873 492.318 86.9431 492.016 86.9994L491.654 96.4823Z" fill="#61618F" fill-opacity="0.32"/>
<path d="M559.305 111.107L558.879 122.474L558.767 124.94C559.113 124.563 559.518 124.227 559.804 123.81L559.85 121.825L560.276 110.457L560.721 99.19L560.826 97.2457L559.824 97.1727L559.759 99.0573L559.305 111.107Z" fill="#61618F" fill-opacity="0.32"/>
<path d="M553.871 104.578L553.397 116.527L552.971 127.894L552.914 129.257C553.237 129.041 553.621 128.865 553.945 128.649L554.021 127.386L554.447 116.018L554.885 105.273L555.211 96.9929L554.209 96.92L553.871 104.578Z" fill="#61618F" fill-opacity="0.32"/>
<path d="M480.287 96.0567L479.861 107.424L479.435 118.792L478.961 130.741L478.706 136.614C479.026 136.659 479.346 136.703 479.726 136.788L479.951 130.192L480.389 119.446L480.815 108.078L481.241 96.7108L481.581 87.388C481.22 87.4035 480.918 87.4598 480.557 87.4752L480.287 96.0567Z" fill="#61618F" fill-opacity="0.32"/>
<path d="M485.808 101.943L485.382 113.311L484.908 125.259L484.482 136.627L484.431 137.469C484.752 137.513 485.072 137.557 485.392 137.601L485.472 136.078L485.898 124.71L486.336 113.965L486.762 102.597L487.188 91.2297L487.342 87.0395C486.981 87.0549 486.679 87.1113 486.359 87.0671L486.234 90.5757L485.808 101.943Z" fill="#61618F" fill-opacity="0.32"/>
<path d="M468.972 96.1925L468.534 106.938L468.108 118.306L467.682 129.673L467.506 134.024C467.826 134.068 468.166 134.213 468.486 134.257L468.677 130.268L469.103 118.9L469.529 107.533L470.003 95.5839L470.272 88.6672C469.97 88.7236 469.568 88.7987 469.266 88.855L468.972 96.1925Z" fill="#61618F" fill-opacity="0.32"/>
<path d="M463.157 124.381L463.583 113.013L464.056 101.064L464.501 89.7973C464.158 89.9133 463.857 89.9696 463.455 90.0447L463.451 90.3054L463.025 101.673L462.587 112.419L462.161 123.786L461.832 132.327C462.171 132.472 462.491 132.516 462.83 132.66L463.157 124.381Z" fill="#61618F" fill-opacity="0.32"/>
<path d="M531.137 103.725L530.711 115.093L530.285 126.461L529.85 136.946C530.152 136.889 530.554 136.814 530.855 136.758L531.239 127.115L531.665 115.747L532.091 104.38L532.565 92.4309L532.628 92.2111C532.348 92.1072 531.968 92.0221 531.648 91.9779L531.616 92.9202L531.137 103.725Z" fill="#61618F" fill-opacity="0.32"/>
<path d="M441.332 100.833L441.755 89.7266L440.753 89.6536L440.318 100.139L439.845 112.087L439.588 119.626C439.707 119.708 439.786 119.849 439.864 119.99C440.062 120.214 440.319 120.478 440.558 120.641L440.935 111.519L441.332 100.833Z" fill="#61618F" fill-opacity="0.32"/>
<path d="M525.668 98.401L525.23 109.147L524.804 120.514L524.378 131.882L524.182 137.796C524.544 137.781 524.845 137.725 525.147 137.668L525.333 132.536L525.759 121.168L526.185 109.801L526.658 97.852L526.93 90.6746C526.61 90.6304 526.271 90.4857 525.951 90.4415L525.668 98.401Z" fill="#61618F" fill-opacity="0.32"/>
<path d="M520.248 92.4949L519.822 103.862L519.384 114.608L518.958 125.976L518.532 137.343L518.478 138.446C518.839 138.43 519.141 138.374 519.502 138.359L519.486 137.997L519.912 126.63L520.338 115.262L520.812 103.313L521.238 91.9459L521.309 89.5398C520.988 89.4956 520.608 89.4105 520.288 89.3663L520.248 92.4949Z" fill="#61618F" fill-opacity="0.32"/>
<path d="M514.301 97.9753L513.875 109.343L513.437 120.089L513.011 131.456L512.717 138.794C513.078 138.778 513.38 138.722 513.7 138.766L513.966 132.11L514.392 120.743L514.865 108.794L515.291 97.4263L515.624 88.625C515.304 88.5808 514.984 88.5366 514.663 88.4924L514.301 97.9753Z" fill="#61618F" fill-opacity="0.32"/>
<path d="M497.561 91.0621L497.135 102.43L496.661 114.378L496.235 125.746L495.797 136.492L495.729 138.637C496.05 138.681 496.411 138.666 496.731 138.71L496.751 137.146L497.225 125.197L497.651 113.829L498.089 103.084L498.515 91.7162L498.694 87.1051C498.374 87.0609 498.013 87.0763 497.692 87.0321L497.561 91.0621Z" fill="#61618F" fill-opacity="0.32"/>
<path d="M474.439 101.517L474.013 112.884L473.587 124.252L473.183 135.459C473.504 135.504 473.884 135.589 474.163 135.693L474.204 135.633L474.642 124.887L475.068 113.52L475.494 102.152L475.968 90.2035L476.057 87.898C475.696 87.9134 475.395 87.9697 475.033 87.9852L474.918 90.7116L474.439 101.517Z" fill="#61618F" fill-opacity="0.32"/>
<path d="M457.736 118.475L458.209 106.526L458.635 95.1583L458.811 90.808L457.809 90.735L457.645 95.7073L457.219 107.075L456.781 117.821L456.355 129.188L456.342 130.231C456.681 130.376 457.02 130.52 457.3 130.624L457.31 129.842L457.736 118.475Z" fill="#61618F" fill-opacity="0.32"/>
<path d="M451.788 123.954L452.262 112.006L452.688 100.638L453.078 90.4737L452.076 90.4007L451.657 101.247L451.231 112.614L450.793 123.36L450.617 127.71C450.956 127.855 451.254 128.06 451.593 128.204L451.788 123.954Z" fill="#61618F" fill-opacity="0.32"/>
<path d="M446.416 117.467L446.842 106.1L447.28 95.3543L447.447 90.1212L446.445 90.0483L446.225 94.719L445.751 106.668L445.325 118.035L445.104 124.371C445.402 124.575 445.76 124.82 446.059 125.025L446.416 117.467Z" fill="#61618F" fill-opacity="0.32"/>
<path d="M499.325 119.447C481.684 118.58 465.805 114.887 454.479 109.668C448.836 107.028 444.321 104.022 441.214 100.753C438.166 97.5246 436.586 94.0745 436.711 90.5659C436.836 87.0573 438.823 83.7731 442.13 80.8667C445.436 77.9604 450.304 75.3348 456.167 73.3035C467.993 69.2223 484.027 67.0601 501.768 67.9085C519.408 68.7757 535.287 72.4686 546.614 77.688C552.256 80.3275 556.771 83.3337 559.879 86.6028C562.926 89.8309 564.507 93.2811 564.382 96.7897C564.257 100.298 562.269 103.583 558.963 106.489C555.656 109.395 550.789 112.021 544.926 114.052C533.099 118.133 517.065 120.295 499.325 119.447Z" fill="#1B143A" stroke="#61618F" stroke-width="0.70203" stroke-miterlimit="10"/>
<path d="M558.608 105.983C561.833 103.196 563.739 100.032 563.883 96.6234C564.026 93.2154 562.464 89.8658 559.536 86.7193C556.548 83.532 552.112 80.6672 546.689 78.0907C543.558 76.6466 540.144 75.3594 536.388 74.1882C538.153 78.9044 540.179 83.6239 542.485 88.4472C546.12 95.9352 550.063 102.846 554.196 109.096C555.874 108.055 557.351 107.051 558.608 105.983Z" fill="#1A1A38"/>
<path d="M443.423 90.5366C442.838 102.624 467.943 113.662 499.498 115.191C531.052 116.72 557.107 108.161 557.693 96.0735C558.279 83.9862 533.173 72.948 501.619 71.419C470.064 69.8901 444.009 78.4493 443.423 90.5366Z" stroke="#B7F348" stroke-width="0.70203" stroke-miterlimit="10"/>
<path d="M497.199 92.7426C496.085 90.4016 493.021 88.477 488.609 86.8561C482.08 84.4861 475.469 82.2354 468.9 79.925C467.461 79.4654 466.004 78.9052 464.506 78.4047C464.406 78.4235 464.264 78.5019 464.164 78.5207C464.437 79.146 464.81 79.7525 465.142 80.4186C465.535 81.1257 465.766 81.8106 466.259 82.4989C466.338 82.6403 466.736 82.8259 467.176 82.9519C472.646 84.9473 478.258 86.8644 483.71 88.7593C486.207 89.5935 488.361 90.5437 489.588 91.823C489.984 92.2694 490.26 92.6339 490.495 93.0582C491.119 94.4502 490.722 95.6686 489.063 96.8108C485.361 99.2708 481.54 101.649 477.897 104.15C477.432 104.445 477.306 104.885 477.482 105.268C477.617 105.711 477.792 106.094 478.027 106.518C478.281 107.043 478.595 107.609 478.969 108.215C479.047 108.357 479.245 108.58 479.502 108.844C479.926 108.609 480.269 108.493 480.451 108.355C485.467 105.129 490.583 101.885 495.539 98.6185C497.399 97.4388 498 95.9221 497.901 94.276C497.565 93.8706 497.412 93.327 497.199 92.7426Z" stroke="#61618F" stroke-width="0.70203" stroke-miterlimit="10"/>
<path d="M521.261 79.2496C521.163 79.0076 521.007 78.7248 520.768 78.5613C520.57 78.3381 520.473 78.0962 520.335 77.9139C520.2 77.4709 520.025 77.0876 519.73 76.6224C519.205 76.8765 518.903 76.9328 518.721 77.0709C515 79.4304 511.339 81.8307 507.737 84.2719C505.836 85.5113 503.793 86.8292 502.391 88.2354C500.989 89.6416 500.85 91.1241 501.553 92.6575C502.023 93.506 502.714 94.4174 503.706 95.2725C505.529 96.9607 508.362 98.2003 511.518 99.2235C518.766 101.823 526.036 104.263 533.284 106.863C533.623 107.008 534.063 107.134 534.543 107.2C534.666 107.021 534.707 106.961 534.707 106.961C534.355 106.195 533.985 105.327 533.534 104.579C533.339 104.096 533.063 103.731 532.809 103.206C532.712 102.964 532.194 102.697 531.814 102.612C526.083 100.613 520.333 98.5137 514.46 96.5933C511.404 95.5514 509.417 94.1019 508.674 92.6281C507.99 91.1953 508.39 89.7161 510.25 88.5363C513.324 86.6099 516.017 84.5983 519.27 82.7945C521.231 81.596 521.926 80.5819 521.261 79.2496Z" stroke="#61618F" stroke-width="0.70203" stroke-miterlimit="10"/>
</g>
<g filter="url(#filter3_d)">
<path d="M307.475 145.159C300.614 139.656 295.265 133.952 292.078 128.337C288.963 122.846 287.861 117.611 288.968 112.686L296.951 85.5096L324.961 92.9126C341.745 91.2727 362.746 93.34 384.87 99.3915C405.348 104.977 423.446 113.241 436.808 122.47L469.588 131.118L464.996 146.37C464.996 146.37 461.642 158.934 461.383 159.908C460.057 164.875 456.433 169.087 451.004 172.265C445.478 175.415 438.216 177.655 429.562 178.872C412.156 181.279 389.547 179.385 365.681 172.84C341.84 166.198 321.319 156.096 307.475 145.159Z" fill="#1B143A" stroke="#3A3A61" stroke-width="0.927021" stroke-miterlimit="10"/>
<path d="M314.078 146.529L318.832 132.285L323.919 117.186L329.006 102.088L331.772 93.7061C332.286 93.7459 332.703 93.7582 333.217 93.7981L330.556 101.788L325.469 116.886L320.382 131.985L315.086 147.867L314.21 150.358C313.748 150.122 313.41 149.816 312.948 149.58L314.078 146.529Z" fill="#61618F" fill-opacity="0.24"/>
<path d="M309.105 136.391L313.859 122.146L318.946 107.047L323.464 93.6837C323.978 93.7236 324.421 93.638 324.936 93.6778L320.594 106.775L315.507 121.874L310.21 137.756L307.601 145.55C307.263 145.244 306.827 144.91 306.489 144.604L309.105 136.391Z" fill="#61618F" fill-opacity="0.24"/>
<path d="M304.258 126.18L309.011 111.935L314.307 96.0536L315.55 92.1918L316.917 92.5776L315.472 96.8036L310.588 111.538L305.291 127.42L301.159 139.733C300.723 139.4 300.411 138.996 300.073 138.69L304.258 126.18Z" fill="#61618F" fill-opacity="0.24"/>
<path d="M353.546 152.798L358.843 136.915L363.931 121.816L368.685 107.571L371.268 99.8744C371.756 100.012 372.147 100.122 372.635 100.26L370.333 107.299L365.036 123.181L359.948 138.28L355.194 152.526L350.106 167.625L349.975 168.114C349.487 167.977 349.123 167.768 348.634 167.631L353.546 152.798Z" fill="#61618F" fill-opacity="0.24"/>
<path d="M358.518 162.936L363.815 147.054L368.902 131.955L373.657 117.71L378.744 102.611L378.901 102.023C379.39 102.161 379.78 102.271 380.268 102.409L375.233 117.312L369.936 133.195L364.849 148.294L360.095 162.539L357.433 170.529C356.945 170.391 356.554 170.281 356.092 170.045L358.518 162.936Z" fill="#61618F" fill-opacity="0.24"/>
<path d="M373.661 167.305L378.749 152.206L383.503 137.961L388.59 122.862L393.678 107.764L393.887 106.98C394.375 107.118 394.74 107.326 395.228 107.464L390.167 122.465L385.079 137.564L379.782 153.446L374.695 168.545L372.629 174.702C372.14 174.564 371.75 174.454 371.235 174.414L373.661 167.305Z" fill="#61618F" fill-opacity="0.24"/>
<path d="M294.411 105.925L299.444 91.0234L300.581 87.5536L301.948 87.9394L300.837 91.3114L295.542 107.192L290.456 122.289L290.018 123.535C289.713 122.711 289.506 121.916 289.299 121.12L289.325 121.022L294.411 105.925Z" fill="#61618F" fill-opacity="0.24"/>
<path d="M294.296 131.164L299.382 116.066L304.135 101.822L308.162 89.9004L309.529 90.2862L305.809 101.452L300.514 117.334L295.428 132.432L295.271 133.019C294.887 132.49 294.575 132.086 294.289 131.584L294.296 131.164Z" fill="#61618F" fill-opacity="0.24"/>
<path d="M393.322 158.309L398.409 143.21L403.497 128.111L408.532 113.208C408.994 113.444 409.384 113.554 409.846 113.79L405.171 127.741L400.084 142.84L394.996 157.939L389.699 173.821L388.307 177.851C387.792 177.811 387.402 177.701 386.887 177.661L388.568 172.554L393.322 158.309Z" fill="#61618F" fill-opacity="0.24"/>
<path d="M383.597 162.415L388.351 148.17L393.438 133.071L398.526 117.972L401.187 109.982C401.649 110.218 402.04 110.328 402.502 110.564L400.076 117.672L394.989 132.771L389.901 147.87L384.604 163.752L380.341 176.556C379.853 176.418 379.436 176.406 378.947 176.268L383.597 162.415Z" fill="#61618F" fill-opacity="0.24"/>
<path d="M403.169 178.559L408.256 163.46L413.343 148.362L418.64 132.48L422.694 120.459C423.156 120.695 423.52 120.903 423.982 121.139L419.771 133.747L415.017 147.992L409.93 163.09L404.843 178.189L404.379 179.532C403.864 179.492 403.447 179.48 402.933 179.44L403.169 178.559Z" fill="#61618F" fill-opacity="0.24"/>
<path d="M418.191 158.57L423.488 142.688L428.575 127.589L429.555 124.707C430.017 124.942 430.356 125.249 430.818 125.484L429.706 128.857L424.619 143.955L419.865 158.2L414.778 173.299L412.581 179.945C412.067 179.905 411.624 179.991 411.109 179.951L413.202 173.696L418.191 158.57Z" fill="#61618F" fill-opacity="0.24"/>
<path d="M323.707 142.395L328.794 127.296L333.881 112.198L339.178 96.3157L339.851 94.1889C340.366 94.2287 340.783 94.2411 341.297 94.2809L340.264 97.3594L335.458 111.8L330.37 126.899L325.283 141.998L321.072 154.605C320.61 154.37 320.246 154.161 319.81 153.828L323.707 142.395Z" fill="#61618F" fill-opacity="0.24"/>
<path d="M452.997 153.939L458.083 138.842L458.809 136.519L460.175 136.905L459.659 138.444L454.574 153.541L449.279 169.422L447.808 173.746C447.215 173.999 446.623 174.253 446.03 174.507L448.148 168.155L452.997 153.939Z" fill="#61618F" fill-opacity="0.24"/>
<path d="M328.678 152.536L333.765 137.437L338.853 122.338L344.149 106.456L347.922 95.0933C348.437 95.1332 348.828 95.2434 349.342 95.2833L345.183 107.695L340.429 121.94L335.342 137.039L330.255 152.138L328.136 158.491C327.674 158.255 327.309 158.047 326.847 157.811L328.678 152.536Z" fill="#61618F" fill-opacity="0.24"/>
<path d="M338.639 147.549L343.726 132.45L349.023 116.567L354.111 101.468L355.792 96.3608C356.28 96.4986 356.697 96.5109 357.185 96.6487L355.118 102.806L350.031 117.905L345.277 132.15L340.189 147.249L335.278 162.082C334.816 161.846 334.426 161.736 333.963 161.5L338.639 147.549Z" fill="#61618F" fill-opacity="0.24"/>
<path d="M348.575 142.658L353.872 126.776L358.959 111.677L363.556 98.0192C364.044 98.157 364.435 98.2673 364.95 98.3071L360.091 112.944L355.003 128.043L350.249 142.288L345.161 157.387L342.552 165.181C342.09 164.946 341.699 164.835 341.237 164.6L343.513 157.659L348.575 142.658Z" fill="#61618F" fill-opacity="0.24"/>
<path d="M459.549 163.677L459.339 164.461C458.608 165.623 457.806 166.661 456.782 167.741L457.972 164.075L463.059 148.976L466.394 138.859L467.175 139.08L465.095 146.075C465.095 146.075 464.283 149.111 463.445 152.245L459.549 163.677Z" fill="#61618F" fill-opacity="0.24"/>
<path d="M368.69 157.166L373.777 142.067L378.531 127.822L383.619 112.723L386.385 104.341C386.873 104.479 387.264 104.589 387.726 104.825L385.169 112.424L380.082 127.523L374.785 143.405L369.697 158.504L364.943 172.749L364.917 172.847C364.429 172.709 364.038 172.599 363.55 172.461L368.69 157.166Z" fill="#61618F" fill-opacity="0.24"/>
<path d="M398.197 168.42L403.284 153.321L408.371 138.222L413.668 122.34L415.603 116.673C416.065 116.908 416.43 117.117 416.892 117.352L414.773 123.705L410.019 137.95L404.932 153.049L399.845 168.148L396.202 179.02C395.688 178.981 395.297 178.87 394.783 178.831L398.197 168.42Z" fill="#61618F" fill-opacity="0.24"/>
<path d="M423.067 168.683L428.363 152.802L433.45 137.703L436.242 129.224C436.509 129.404 436.678 129.557 436.945 129.738L437.531 129.903L434.484 138.943L429.397 154.041L424.644 168.286L420.871 179.648C420.33 179.706 419.913 179.694 419.373 179.752L423.067 168.683Z" fill="#61618F" fill-opacity="0.24"/>
<path d="M428.04 178.819L433.335 162.938L438.422 147.839L443.175 133.595L443.744 131.86L445.111 132.246L444.752 133.197L439.456 149.079L434.369 164.177L429.616 178.422L429.537 178.715C428.997 178.773 428.554 178.859 428.013 178.917L428.04 178.819Z" fill="#61618F" fill-opacity="0.24"/>
<path d="M438.212 173.047L443.298 157.949L448.051 143.705L451.254 134.078L452.621 134.464L449.627 143.307L444.331 159.189L439.245 174.286L438.317 176.973C437.751 177.129 437.21 177.187 436.741 177.371L438.212 173.047Z" fill="#61618F" fill-opacity="0.24"/>
<path d="M373.769 144.982C397.636 151.527 420.245 153.421 437.651 151.014C446.305 149.797 453.664 147.584 459.093 144.407C464.619 141.257 468.146 137.017 469.472 132.05C470.797 127.083 469.651 121.625 466.465 116.01C463.278 110.394 457.929 104.69 451.069 99.1866C437.251 88.1528 416.703 78.1476 392.862 71.5055C368.996 64.9607 346.387 63.0668 328.981 65.4737C320.326 66.6909 312.968 68.9034 307.539 72.0808C302.012 75.2308 298.486 79.4705 297.16 84.4378C295.834 89.405 296.98 94.8623 300.167 100.478C303.353 106.094 308.702 111.798 315.563 117.301C329.31 128.21 349.929 138.34 373.769 144.982Z" fill="#1B143A" stroke="#61618F" stroke-width="0.927021" stroke-miterlimit="10"/>
<path d="M373.942 138.356C331.799 126.715 301.138 103.827 305.459 87.2344C309.779 70.6421 347.445 66.6289 389.588 78.2705C431.731 89.9122 462.391 112.8 458.071 129.393C453.75 145.985 416.084 149.998 373.942 138.356Z" stroke="#B7F348" stroke-width="0.927021" stroke-miterlimit="10"/>
<path d="M401.409 112.694C401.435 112.597 401.338 112.569 401.364 112.472C401.267 112.445 401.293 112.347 401.293 112.347L394.617 91.3045L394.546 91.1798C394.449 91.1524 394.475 91.0551 394.475 91.0551L389.928 90.9188C386.013 90.7524 382.195 90.6135 378.255 90.5444C370.522 90.2391 362.667 90.0037 354.934 89.6984L330.471 88.8425C329.45 88.7629 328.501 88.808 327.577 88.7558L327.48 88.7284L327.577 88.7558L369.29 121.393C369.29 121.393 372.023 120.911 372.243 120.868C378.427 119.165 384.638 117.365 390.92 115.69L397.693 113.735C398.914 113.453 400.039 113.143 401.093 112.709C401.215 112.639 401.215 112.639 401.435 112.597L401.409 112.694ZM326.731 88.4117C326.977 88.2719 327.17 88.3268 327.39 88.2843L327.487 88.3117C328.411 88.3639 329.457 88.3463 330.381 88.3985L354.748 89.2268C362.48 89.5322 370.335 89.7676 378.068 90.0729C381.983 90.2393 385.8 90.3782 389.741 90.4473L394.289 90.5836L394.412 90.5137L395.09 90.7057L394.941 90.8729C394.915 90.9702 395.012 90.9976 395.012 90.9976L395.083 91.1223L401.785 112.068C401.882 112.095 401.856 112.192 401.856 112.192C401.926 112.317 401.971 112.539 401.848 112.609L401.822 112.706L401.7 112.776C401.577 112.846 401.577 112.846 401.26 112.861C400.039 113.143 398.914 113.453 397.861 113.887L391.088 115.842C384.903 117.545 378.692 119.345 372.507 121.048C372.507 121.048 372.507 121.048 372.41 121.02C372.191 121.063 368.701 121.645 368.701 121.645C368.534 121.493 368.437 121.465 368.366 121.34L326.847 88.7584L326.75 88.731C326.653 88.7036 326.485 88.5515 326.414 88.4267L326.731 88.4117Z" fill="#61618F" stroke="#61618F" stroke-width="0.927021" stroke-miterlimit="10"/>
<path d="M408.15 114.649C408.027 114.719 407.781 114.859 407.561 114.901L376.792 123.568C387.844 123.559 399.117 123.508 410.072 123.471L434.077 123.364L434.174 123.391C434.271 123.419 434.394 123.349 434.491 123.376C434.394 123.349 434.394 123.349 434.394 123.349C431.107 120.426 427.918 117.531 424.631 114.608L417.987 108.638C416.644 107.419 415.398 106.228 414.029 105.106C412.589 103.86 411.176 102.516 409.736 101.269C408.296 100.023 406.785 98.6513 405.345 97.4048L402.756 94.9942C402.349 94.5646 401.82 94.2049 401.316 93.7477L408.15 114.649ZM400.536 92.3739L401.33 92.9135C402.098 93.5505 402.867 94.1875 403.538 94.797L406.127 97.2075C407.664 98.4815 409.078 99.8254 410.518 101.072C411.958 102.318 413.372 103.662 414.812 104.909C416.155 106.128 417.401 107.319 418.77 108.441L425.414 114.411C428.7 117.334 431.89 120.229 435.176 123.152L435.273 123.179C435.37 123.206 435.538 123.359 435.486 123.554C435.486 123.554 435.46 123.651 435.363 123.624L435.337 123.721C435.214 123.791 434.897 123.806 434.704 123.751L410.479 123.901C399.207 123.952 375.57 123.85 375.57 123.85L407.367 114.846L407.49 114.776C407.613 114.707 407.71 114.734 407.93 114.692L400.536 92.3739Z" fill="#61618F" stroke="#61618F" stroke-width="0.927021" stroke-miterlimit="10"/>
</g>
<g filter="url(#filter4_d)">
<path d="M551.21 176.962C568.306 184.472 592.051 189.512 618.324 190.357C644.701 191.176 668.471 187.668 685.909 181.227C694.577 178.019 701.513 174.143 706.406 169.679C710.94 165.529 713.695 160.944 714.021 155.98L714.622 127.764L684.536 126.338C667.683 119.319 644.7 114.64 619.548 113.842C596.978 113.162 576.055 115.722 559.705 120.444L524.899 118.779L523.756 148.687C523.784 148.791 523.708 148.921 523.708 148.921C523.674 154.143 526.137 159.172 530.862 163.957C535.822 168.794 542.752 173.128 551.21 176.962Z" fill="#1B143A" stroke="#3A3A61" stroke-width="0.881285" stroke-miterlimit="10"/>
<path d="M673.379 132.516L672.041 148.436L670.704 164.356L669.371 181.111L668.857 186.574C669.375 186.443 669.918 186.409 670.332 186.304L670.817 180.325L672.056 165.267L673.393 149.348L674.86 133.499L675.563 124.642C675.069 124.454 674.576 124.265 674.11 124.174L673.379 132.516Z" fill="#61618F" fill-opacity="0.32"/>
<path d="M680.54 141.397L679.263 157.094L677.992 173.614L677.161 184.555C677.668 184.427 678.174 184.298 678.68 184.17L679.609 172.791L680.791 157.944L682.068 142.247L683.181 128.346C682.698 128.159 682.215 127.972 681.731 127.785L680.54 141.397Z" fill="#61618F" fill-opacity="0.32"/>
<path d="M688.144 149.558L686.676 165.77L685.21 181.175L685.157 181.39C685.674 181.259 686.164 181.034 686.681 180.903L686.76 180.378L688.226 164.973L689.586 150.403L691.055 134.19L691.428 130.261L689.958 130.13L689.583 134.462L688.144 149.558Z" fill="#61618F" fill-opacity="0.32"/>
<path d="M631.986 121.218L630.73 138.381L629.465 154.688L628.295 170.112L627.03 186.419L626.758 190.35C627.201 190.345 627.775 190.414 628.219 190.409L628.396 187.36L629.661 171.053L630.917 153.89L632.182 137.583L633.352 122.159L633.995 113.842C633.525 113.747 632.951 113.678 632.507 113.683L631.986 121.218Z" fill="#61618F" fill-opacity="0.32"/>
<path d="M623.063 128.738L621.659 146.041L620.25 162.482L618.946 178.032L617.923 190.381C618.38 190.373 618.971 190.438 619.427 190.431L620.346 178.972L621.751 161.669L623.159 145.229L624.464 129.678L625.872 113.238L625.923 112.577C625.439 112.484 624.875 112.519 624.391 112.426L623.063 128.738Z" fill="#61618F" fill-opacity="0.32"/>
<path d="M606.312 127.783L605.216 144.472L604.137 162.037L603.041 178.726L602.301 189.818C602.768 189.919 603.338 189.995 603.777 189.994L604.575 177.896L605.671 161.207L606.681 145.422L607.776 128.733L608.872 112.044L608.986 111.244C608.547 111.246 607.977 111.17 607.538 111.171L606.312 127.783Z" fill="#61618F" fill-opacity="0.32"/>
<path d="M712.355 158.267L712.033 163.687C712.921 162.016 713.439 160.216 713.748 158.469L714.142 154.143L715.058 141.009L715.837 129.022L714.339 128.847L713.532 140.729L712.355 158.267Z" fill="#61618F" fill-opacity="0.32"/>
<path d="M705.005 151.19L703.337 165.93L702.659 172.443C703.233 172.106 703.702 171.794 704.252 171.367L704.899 165.149L706.567 150.409L708.18 135.875L708.599 132.502L707.129 132.395L706.79 135.651L705.005 151.19Z" fill="#61618F" fill-opacity="0.32"/>
<path d="M697.806 142.346L696.209 158.448L694.62 173.748L694.186 177.958C694.686 177.731 695.29 177.477 695.79 177.251L696.224 173.041L697.813 157.741L699.29 143.27L700.533 131.257L699.042 131.135L697.806 142.346Z" fill="#61618F" fill-opacity="0.32"/>
<path d="M587.463 176.816L588.512 160.865L589.651 144.002L590.789 127.138L591.879 110.51C591.328 110.538 590.882 110.54 590.332 110.569L589.302 126.181L588.164 143.044L587.026 159.907L585.904 177.657L585.236 187.17C585.71 187.272 586.184 187.374 586.763 187.45L587.463 176.816Z" fill="#61618F" fill-opacity="0.32"/>
<path d="M595.309 185.93L596.448 169.067L597.497 153.115L598.636 136.252L599.774 119.388L600.373 110.448C599.927 110.45 599.349 110.374 598.903 110.376L598.364 118.3L597.226 135.163L596.087 152.027L594.965 169.777L593.827 186.641L593.734 188.778C594.208 188.88 594.682 188.982 595.261 189.057L595.309 185.93Z" fill="#61618F" fill-opacity="0.32"/>
<path d="M570.644 176.334L571.783 159.47L572.921 142.607L574.043 124.858L574.876 111.409C574.325 111.438 573.907 111.544 573.357 111.572L572.456 125.595L571.406 141.546L570.268 158.409L569.13 175.272L568.659 182.622C569.134 182.724 569.636 182.93 570.11 183.032L570.644 176.334Z" fill="#61618F" fill-opacity="0.32"/>
<path d="M562.824 167.325L563.962 150.461L565.084 132.712L566.222 115.849L566.451 112.565C565.929 112.698 565.483 112.7 564.961 112.832L564.768 116.663L563.63 133.527L562.58 149.477L561.442 166.341L560.533 179.92C561.035 180.126 561.509 180.228 562.011 180.434L562.824 167.325Z" fill="#61618F" fill-opacity="0.32"/>
<path d="M664.033 139.379L662.763 155.371L661.492 171.364L660.275 187.553C660.815 187.521 661.225 187.417 661.764 187.385L662.966 172.357L664.237 156.364L665.507 140.372L666.77 123.54L666.93 121.291C666.44 121.1 665.976 121.007 665.486 120.816L665.285 124.128L664.033 139.379Z" fill="#61618F" fill-opacity="0.32"/>
<path d="M530.397 146.896L531.447 130.945L532.585 114.082L532.774 111.476L531.275 111.3L531.175 112.994L530.037 129.857L528.915 147.607L527.937 161.759C528.391 162.2 528.817 162.537 529.375 162.952L530.397 146.896Z" fill="#61618F" fill-opacity="0.32"/>
<path d="M656.201 131.71L655.032 146.875L653.768 162.907L652.503 178.939L651.72 188.628C652.26 188.597 652.697 188.591 653.21 188.461L653.85 179.863L655.114 163.831L656.378 147.798L657.635 130.925L658.55 118.882C658.086 118.789 657.596 118.597 657.132 118.504L656.201 131.71Z" fill="#61618F" fill-opacity="0.32"/>
<path d="M648.573 123.678L647.256 139.702L646.038 154.859L644.722 170.883L643.405 186.907L643.139 189.607C643.683 189.574 644.124 189.568 644.668 189.535L644.76 187.827L646.077 171.803L647.393 155.778L648.704 138.913L650.02 122.889L650.45 117.515C649.982 117.423 649.515 117.331 649.047 117.239L648.573 123.678Z" fill="#61618F" fill-opacity="0.32"/>
<path d="M639.403 130.742L638.062 147.105L636.821 162.582L635.479 178.945L634.555 190.579C635.005 190.572 635.561 190.539 636.038 190.632L636.89 179.985L638.231 163.622L639.566 146.4L640.907 130.037L642.1 115.217C641.623 115.123 641.146 115.029 640.563 114.962L639.403 130.742Z" fill="#61618F" fill-opacity="0.32"/>
<path d="M614.735 119.755L613.61 136.335L612.501 153.787L611.376 170.368L610.338 186.052L610.1 190.05C610.566 190.15 611.108 190.122 611.574 190.222L611.801 186.993L612.91 169.541L614.035 152.96L615.073 137.276L616.198 120.696L616.81 111.572C616.344 111.472 615.802 111.5 615.335 111.4L614.735 119.755Z" fill="#61618F" fill-opacity="0.32"/>
<path d="M578.477 184.565L579.527 168.614L580.665 151.75L581.803 134.887L582.925 117.138L583.335 110.805C582.785 110.833 582.339 110.835 581.789 110.863L581.338 117.875L580.289 133.826L579.15 150.689L578.012 167.552L576.806 184.989C577.28 185.091 577.782 185.297 578.256 185.399L578.477 184.565Z" fill="#61618F" fill-opacity="0.32"/>
<path d="M553.839 175.072L554.977 158.209L556.099 140.46L557.237 123.597L557.828 114.214C557.514 114.294 557.201 114.373 556.992 114.426L556.309 114.377L555.678 124.437L554.54 141.301L553.49 157.251L552.352 174.115L552.163 176.721C552.665 176.927 553.167 177.133 553.67 177.34L553.839 175.072Z" fill="#61618F" fill-opacity="0.32"/>
<path d="M545.987 165.953L547.11 148.203L548.248 131.34L549.297 115.389L549.446 113.46L547.948 113.284L547.916 114.405L546.793 132.154L545.655 149.017L544.605 164.969L544.038 172.788C544.541 172.994 545.071 173.304 545.469 173.537L545.987 165.953Z" fill="#61618F" fill-opacity="0.32"/>
<path d="M538.251 156.021L539.389 139.158L540.439 123.207L541.139 112.573L539.64 112.397L538.952 122.25L537.83 139.999L536.692 156.862L535.924 168.07C536.454 168.38 536.88 168.717 537.41 169.027L538.251 156.021Z" fill="#61618F" fill-opacity="0.32"/>
<path d="M619.233 161.57C592.964 160.727 569.222 155.69 552.232 148.155C543.804 144.426 536.874 140.093 532.15 135.309C527.454 130.628 524.964 125.497 524.999 120.275C525.033 115.054 527.808 110.133 532.625 105.799C537.414 101.362 544.453 97.4605 553.119 94.2528C570.452 87.8376 594.219 84.3287 620.592 85.1461C646.861 85.9899 670.603 91.0269 687.592 98.5617C696.021 102.29 702.951 106.623 707.675 111.408C712.37 116.088 714.861 121.22 714.826 126.441C714.792 131.662 712.017 136.584 707.2 140.917C702.411 145.354 695.372 149.256 686.706 152.464C669.345 158.775 645.606 162.388 619.233 161.57Z" fill="#1B143A" stroke="#3A3A61" stroke-width="0.881285" stroke-miterlimit="10"/>
<path d="M694.108 121.352C693.163 115.293 686.978 109.554 676.268 104.802L667.929 101.597C649.903 95.7008 625.48 93.2489 602.499 95.0098C582.174 96.673 565.054 101.472 555.52 108.17C555.272 108.31 555.06 108.513 555.079 108.831C555.134 109.212 555.562 109.383 555.989 109.554C558.187 110.374 560.679 111.275 563.242 112.3C565.245 113.066 567.345 113.858 569.445 114.651L569.543 114.678C569.935 114.787 570.46 114.985 571.135 115.016C571.81 115.047 572.342 114.829 572.848 114.708C585.838 110.015 599.148 105.306 611.953 100.717L613.46 100.196C613.522 100.161 613.584 100.126 613.646 100.091L613.706 108.463C613.722 113.481 613.764 118.401 613.78 123.419C613.799 123.737 613.855 124.118 614.442 124.281C614.869 124.452 615.482 124.518 616.219 124.514C632.938 124.721 649.915 124.947 666.572 125.189L678.831 125.358L672.145 127.73C661.097 131.657 650.022 135.682 638.973 139.609C638.503 139.792 637.935 139.948 637.964 140.426C637.958 140.842 638.385 141.013 638.812 141.183L638.91 141.211C641.108 142.03 643.306 142.85 645.407 143.642C648.032 144.633 650.364 145.542 652.464 146.335C652.989 146.533 653.443 146.606 653.958 146.645C654.314 146.692 654.757 146.606 655.201 146.521C664.653 144.813 672.716 142.405 679.141 139.439C683.103 137.615 686.38 135.602 688.821 133.565C692.791 129.759 694.777 125.507 694.108 121.352ZM570.19 114.231L570.206 113.974C568.07 113.12 565.872 112.3 563.771 111.507C561.867 110.769 559.962 110.031 558.191 109.383L556.75 108.878C556.714 108.815 556.652 108.85 556.652 108.85C565.937 102.292 582.712 97.6057 602.655 95.993C625.254 94.2828 649.321 96.6881 666.921 102.414L675.162 105.591C685.543 110.199 691.486 115.662 692.385 121.5C693.045 125.495 691.261 129.386 687.06 133.075C684.68 135.077 681.528 137.021 677.628 138.81C671.362 141.768 663.486 144.071 654.194 145.771C653.59 145.864 653.43 145.872 653.003 145.701C650.965 144.873 648.571 143.999 645.945 143.009C643.845 142.216 641.709 141.362 639.449 140.577C639.449 140.577 639.449 140.577 639.511 140.542C650.621 136.58 661.67 132.652 672.683 128.663L681.816 125.404C681.94 125.334 682.002 125.299 681.993 125.14C682.019 125.042 681.947 124.918 681.787 124.926L681.298 124.79C680.675 124.565 680.036 124.596 679.618 124.584L676.056 124.534C656.29 124.316 635.875 123.97 615.789 123.768C615.114 123.737 614.954 123.745 614.954 123.745C614.954 123.745 614.918 123.683 614.945 123.585C614.948 118.887 614.922 113.71 614.858 107.895L614.491 100.274C614.472 99.9552 614.292 99.6443 614.087 99.4306C613.82 99.2519 613.49 99.1081 613.144 99.2209C612.701 99.3065 612.515 99.4115 612.293 99.4542L609.907 100.306C597.289 104.789 584.299 109.483 571.495 114.071C571.371 114.141 570.963 114.289 570.767 114.235C570.669 114.207 570.509 114.215 570.18 114.071L570.19 114.231Z" fill="#61618F"/>
<path d="M638.206 147.59C638.108 147.563 637.913 147.508 637.815 147.481C637.717 147.454 637.717 147.454 637.619 147.427C634.039 146.066 630.459 144.705 626.844 143.281L618.108 139.965L618.17 139.93L618.702 139.712C622.375 138.382 626.048 137.051 629.756 135.783L630.448 135.558C634.591 134.045 638.708 132.629 642.789 131.151L643.011 131.108C643.419 130.96 643.987 130.805 644.216 130.346L644.392 130.081C644.418 129.984 644.445 129.887 644.409 129.825C644.373 129.762 644.239 129.673 644.177 129.708L643.377 129.747C643.119 129.727 642.897 129.77 642.675 129.813C642.294 129.864 641.974 129.879 641.654 129.895C630.445 129.705 619.211 129.612 608.002 129.422L601.292 129.333C600.874 129.321 600.198 129.29 599.94 129.271C599.905 129.209 599.895 129.049 599.921 128.952L599.916 126.234C599.914 124.091 599.85 121.983 599.884 119.902C599.892 117.919 599.837 115.971 599.845 113.987L599.871 113.89C599.924 113.695 599.966 113.342 599.431 112.984L599.066 112.778C598.968 112.75 598.87 112.723 598.808 112.758L572.716 122.121C572.432 122.198 571.962 122.381 571.9 122.416C571.802 122.389 571.313 122.253 570.983 122.109L566.353 120.351C561.428 118.512 556.53 116.576 551.606 114.736L551.472 114.647C551.374 114.62 551.339 114.558 551.241 114.53C550.813 114.359 550.395 114.348 549.951 114.433C549.286 114.562 549.109 114.826 549.057 115.021C548.034 116.669 547.456 118.233 547.383 119.676C546.83 127.987 553.957 134.932 568.508 140.492C571.233 141.511 574.216 142.549 577.446 143.448C590.281 147.172 604.681 149.19 620.351 149.419C625.747 149.508 631.256 149.368 636.88 148.998L637.138 149.017C637.778 148.986 638.418 148.955 638.718 148.62C638.806 148.488 638.833 148.391 638.761 148.267C638.67 147.823 638.402 147.644 638.206 147.59ZM548.884 119.571C548.993 118.19 549.519 116.821 550.48 115.207C550.516 115.269 550.578 115.234 550.614 115.297C555.378 117.144 560.204 118.956 564.933 120.74L569.991 122.669C571.603 123.326 572.083 123.303 573.653 122.747L598.272 113.968C598.292 117.997 598.349 122.088 598.369 126.117L598.374 128.835C598.403 129.314 598.396 129.73 598.984 129.893C599.473 130.029 600.087 130.095 601.34 130.13L608.051 130.219C619.063 130.355 630.076 130.49 641.027 130.661C637.7 131.878 634.275 133.069 630.949 134.286L629.502 134.772C625.608 136.145 621.651 137.553 617.792 138.989L617.26 139.206C616.444 139.502 616.098 139.615 616.055 139.969C616.048 140.385 616.538 140.521 617.063 140.719L636.049 147.983C614.44 149.291 594.949 147.425 578.1 142.584C574.931 141.651 571.984 140.675 569.357 139.683C555.26 134.197 548.4 127.43 548.884 119.571Z" fill="#61618F"/>
<path d="M619.351 155.333C666.237 156.883 704.491 143.613 704.795 125.694C705.099 107.775 667.338 91.9921 620.452 90.4425C573.566 88.8929 535.312 102.163 535.008 120.082C534.704 138.001 572.465 153.784 619.351 155.333Z" stroke="#B7F348" stroke-width="0.881285" stroke-miterlimit="10"/>
</g>
<defs>
<filter id="filter0_d" x="115.104" y="72.6335" width="244.465" height="165.538" filterUnits="userSpaceOnUse" color-interpolation-filters="sRGB">
<feFlood flood-opacity="0" result="BackgroundImageFix"/>
<feColorMatrix in="SourceAlpha" type="matrix" values="0 0 0 0 0 0 0 0 0 0 0 0 0 0 0 0 0 0 127 0" result="hardAlpha"/>
<feOffset dy="14.79"/>
<feGaussianBlur stdDeviation="16.6388"/>
<feColorMatrix type="matrix" values="0 0 0 0 0 0 0 0 0 0 0 0 0 0 0 0 0 0 0.32 0"/>
<feBlend mode="normal" in2="BackgroundImageFix" result="effect1_dropShadow"/>
<feBlend mode="normal" in="SourceGraphic" in2="effect1_dropShadow" result="shape"/>
</filter>
<filter id="filter1_d" x="15.5791" y="37.8867" width="213.938" height="186.701" filterUnits="userSpaceOnUse" color-interpolation-filters="sRGB">
<feFlood flood-opacity="0" result="BackgroundImageFix"/>
<feColorMatrix in="SourceAlpha" type="matrix" values="0 0 0 0 0 0 0 0 0 0 0 0 0 0 0 0 0 0 127 0" result="hardAlpha"/>
<feOffset dx="12" dy="12"/>
<feGaussianBlur stdDeviation="10"/>
<feColorMatrix type="matrix" values="0 0 0 0 0 0 0 0 0 0 0 0 0 0 0 0 0 0 0.32 0"/>
<feBlend mode="normal" in2="BackgroundImageFix" result="effect1_dropShadow"/>
<feBlend mode="normal" in="SourceGraphic" in2="effect1_dropShadow" result="shape"/>
</filter>
<filter id="filter2_d" x="410.843" y="51.375" width="177.896" height="119.869" filterUnits="userSpaceOnUse" color-interpolation-filters="sRGB">
<feFlood flood-opacity="0" result="BackgroundImageFix"/>
<feColorMatrix in="SourceAlpha" type="matrix" values="0 0 0 0 0 0 0 0 0 0 0 0 0 0 0 0 0 0 127 0" result="hardAlpha"/>
<feOffset dy="8"/>
<feGaussianBlur stdDeviation="12"/>
<feColorMatrix type="matrix" values="0 0 0 0 0 0 0 0 0 0 0 0 0 0 0 0 0 0 0.32 0"/>
<feBlend mode="normal" in2="BackgroundImageFix" result="effect1_dropShadow"/>
<feBlend mode="normal" in="SourceGraphic" in2="effect1_dropShadow" result="shape"/>
</filter>
<filter id="filter3_d" x="264.087" y="64.0059" width="214.389" height="152.333" filterUnits="userSpaceOnUse" color-interpolation-filters="sRGB">
<feFlood flood-opacity="0" result="BackgroundImageFix"/>
<feColorMatrix in="SourceAlpha" type="matrix" values="0 0 0 0 0 0 0 0 0 0 0 0 0 0 0 0 0 0 127 0" result="hardAlpha"/>
<feOffset dx="-8" dy="20"/>
<feGaussianBlur stdDeviation="8"/>
<feColorMatrix type="matrix" values="0 0 0 0 0 0 0 0 0 0 0 0 0 0 0 0 0 0 0.24 0"/>
<feBlend mode="normal" in2="BackgroundImageFix" result="effect1_dropShadow"/>
<feBlend mode="normal" in="SourceGraphic" in2="effect1_dropShadow" result="shape"/>
</filter>
<filter id="filter4_d" x="507.266" y="76.5898" width="224.572" height="138.325" filterUnits="userSpaceOnUse" color-interpolation-filters="sRGB">
<feFlood flood-opacity="0" result="BackgroundImageFix"/>
<feColorMatrix in="SourceAlpha" type="matrix" values="0 0 0 0 0 0 0 0 0 0 0 0 0 0 0 0 0 0 127 0" result="hardAlpha"/>
<feOffset dy="8"/>
<feGaussianBlur stdDeviation="8"/>
<feColorMatrix type="matrix" values="0 0 0 0 0 0 0 0 0 0 0 0 0 0 0 0 0 0 0.32 0"/>
<feBlend mode="normal" in2="BackgroundImageFix" result="effect1_dropShadow"/>
<feBlend mode="normal" in="SourceGraphic" in2="effect1_dropShadow" result="shape"/>
</filter>
</defs>
</svg>
