<svg width="920" height="121" viewBox="0 0 920 121" fill="none" xmlns="http://www.w3.org/2000/svg">
<path d="M431.482 98.0437V23.7544H488.063V37.1437H446.599V53.9884H473.81V66.9459H446.599V84.6544H488.495V98.0437H431.482V98.0437ZM491.951 98.0437L513.114 69.9693L492.382 42.7586H509.227L521.321 59.1714L533.414 42.7586H549.827L529.527 69.5373L551.123 97.6118H534.278L521.321 79.9033L508.363 97.6118H491.951V98.0437ZM577.902 86.382C580.493 86.382 582.653 85.9501 584.812 85.0863C586.972 84.2225 589.131 82.4948 590.859 80.3352L599.497 89.4054C596.474 92.4288 593.451 95.0203 589.563 96.748C585.676 98.4756 581.357 99.3395 577.47 99.3395C573.582 99.3395 569.695 98.4756 566.24 97.1799C562.785 95.8842 559.761 93.7246 557.17 91.1331C554.578 88.5416 552.419 85.5182 551.123 82.0629C549.827 78.6076 548.963 74.7203 548.963 70.8331C548.963 66.9458 549.827 63.0586 551.123 59.6033C552.419 56.148 554.578 53.1246 557.17 50.5331C559.761 47.9416 562.785 45.782 566.24 44.4863C569.695 43.1905 573.582 42.3267 577.47 42.3267C581.789 42.3267 586.108 43.1905 589.995 44.9182C593.882 46.6458 597.338 48.8054 600.361 52.2607L591.291 61.7629C589.131 59.6033 587.404 57.8756 584.812 57.0118C582.653 55.7161 580.061 55.2841 577.47 55.2841C573.15 55.2841 569.695 57.0118 567.104 60.0352C564.08 63.0586 562.785 66.9459 562.785 71.265C562.785 75.5841 564.08 79.4714 567.104 82.4948C570.127 84.6544 573.582 86.382 577.902 86.382ZM607.272 98.0437V23.7544L621.525 20.731V47.0778C623.685 45.3501 625.844 44.0544 628.436 43.1905C631.027 42.3267 634.051 41.8948 637.074 41.8948C643.553 41.8948 648.736 44.0544 652.623 47.9416C656.51 51.8288 658.67 57.4437 658.67 63.4905V97.6118H644.416V65.6501C644.416 62.1948 643.553 59.6033 641.393 57.4437C639.233 55.2841 636.642 54.4203 633.187 54.4203C630.595 54.4203 628.436 54.8522 626.708 55.7161C624.98 56.5799 623.253 57.8756 621.957 59.6033V97.6118H607.272V98.0437ZM710.931 98.0437V93.2927C708.772 95.0203 706.18 96.3161 703.589 97.1799C700.997 98.0437 697.974 98.4756 695.382 98.4756C691.495 98.4756 688.04 97.6118 684.585 96.3161C681.129 95.0203 678.106 92.8607 675.514 90.2692C672.923 87.6778 670.763 84.6544 669.468 81.199C668.172 77.7437 667.308 73.8565 667.308 69.9693C667.308 66.082 668.172 62.1948 669.468 58.7395C670.763 55.2841 672.923 52.2607 675.514 49.6693C678.106 47.0778 681.129 45.3501 684.585 43.6224C688.04 42.3267 691.927 41.4629 695.814 41.4629C698.406 41.4629 700.997 41.8948 703.589 42.7586C706.18 43.6224 708.772 44.4863 710.931 45.782V42.7586H725.185V97.6118H710.931V98.0437ZM681.561 70.4012C681.561 74.7203 683.289 78.6076 686.312 81.631C689.336 84.6544 693.223 86.382 697.542 86.382C700.133 86.382 702.725 85.9501 704.885 85.0863C707.044 84.2225 709.204 82.9267 710.499 81.199V59.6033C708.772 57.8756 707.044 56.5799 704.885 55.7161C702.725 54.8522 700.133 54.4203 697.542 54.4203C692.791 54.4203 689.336 56.148 685.88 59.1714C682.857 62.1948 681.561 65.6501 681.561 70.4012ZM736.414 98.0437V42.7586H750.668V47.0778C752.827 45.3501 754.987 44.0544 757.578 43.1905C760.17 42.3267 763.193 41.8948 766.216 41.8948C772.695 41.8948 777.878 44.0544 781.765 47.9416C785.653 51.8288 787.812 57.4437 787.812 63.4905V97.6118H773.559V65.6501C773.559 62.1948 772.695 59.6033 770.536 57.4437C768.376 55.2841 765.785 54.4203 762.329 54.4203C759.738 54.4203 757.578 54.8522 755.851 55.7161C754.123 56.5799 752.395 57.8756 751.099 59.6033V97.6118H736.414V98.0437ZM824.525 98.0437C820.638 98.0437 817.182 97.1799 813.727 95.8842C810.272 94.5884 807.248 92.4288 804.657 89.8373C802.065 87.2458 800.338 84.2225 798.61 80.7671C797.314 77.3118 796.45 73.4246 796.45 69.5373C796.45 65.6501 797.314 62.1948 798.61 58.7395C799.906 55.2841 802.065 52.2607 804.657 49.6693C807.248 47.0778 810.272 45.3501 813.727 43.6224C817.182 42.3267 821.07 41.4629 824.957 41.4629C827.548 41.4629 830.14 41.8948 832.731 42.7586C835.323 43.6224 837.482 44.4863 839.642 46.2139V42.7586H853.895V97.6118C853.895 104.954 851.736 110.569 846.985 114.456C842.234 118.344 835.755 120.503 826.685 120.503C822.365 120.503 818.478 120.071 814.591 119.208C810.704 118.344 807.248 117.048 803.793 115.32L808.976 104.091C811.999 105.386 815.023 106.682 818.046 107.546C821.07 108.41 823.661 108.842 826.685 108.842C831.004 108.842 834.027 107.978 836.187 105.818C838.346 104.091 839.642 101.067 839.642 97.6118V92.8607C837.482 94.5884 834.891 95.8841 832.299 96.748C829.708 97.6118 827.116 98.0437 824.525 98.0437ZM810.704 69.9693C810.704 74.2884 812.431 78.1756 815.455 81.199C818.478 84.2224 822.365 85.9501 826.685 85.9501C829.276 85.9501 831.868 85.5182 834.027 84.6544C836.187 83.7905 837.914 82.4948 839.642 80.7671V59.1714C837.914 57.4437 836.187 56.5799 834.027 55.7161C831.868 54.8522 829.276 54.4203 827.116 54.4203C822.797 54.4203 818.91 56.148 815.887 59.1714C812.431 61.7629 810.704 65.6501 810.704 69.9693ZM914.795 91.1331C911.34 93.7246 907.885 95.8842 904.429 97.1799C900.974 98.4756 897.087 98.9075 892.768 98.9075C888.448 98.9075 884.561 98.0437 881.106 96.748C877.651 95.4522 874.195 93.2927 871.604 90.7012C869.012 88.1097 866.853 85.0863 865.557 81.631C864.261 78.1756 863.397 74.2884 863.397 70.4012C863.397 66.5139 864.261 62.6267 865.557 59.1714C866.853 55.7161 869.012 52.6927 871.604 50.1012C874.195 47.5097 877.219 45.3501 880.674 44.0544C884.129 42.7586 888.016 41.8948 891.904 41.8948C895.791 41.8948 899.246 42.7586 902.702 44.0544C906.157 45.3501 909.18 47.5097 911.34 50.1012C913.931 52.6927 915.659 55.7161 916.955 59.6033C918.251 63.0586 919.114 66.9459 919.114 71.265V75.1522H878.082C878.946 78.6076 881.106 81.199 883.697 83.3586C886.721 85.5182 889.744 86.382 893.631 86.382C896.223 86.382 898.382 85.9501 900.542 85.0863C902.702 84.2225 904.429 83.3586 905.725 81.631L914.795 91.1331ZM890.608 53.9884C887.153 53.9884 884.561 54.8522 881.97 57.0118C879.378 59.1714 878.082 61.7629 877.219 65.2182H903.997C903.134 62.1948 901.406 59.1714 898.814 57.4437C896.655 54.8522 894.063 53.9884 890.608 53.9884Z" fill="#477FFB"/>
<path d="M210.342 98.0445V23.7551H225.459V84.2232H266.059V97.6126H210.342V98.0445ZM322.208 91.1339C318.752 93.7253 315.297 95.8849 311.842 97.1807C308.386 98.4764 304.499 98.9083 300.18 98.9083C295.861 98.9083 291.974 98.0445 288.518 96.7487C285.063 95.453 281.608 93.2934 279.016 90.7019C276.425 88.1104 274.265 85.087 272.969 81.6317C271.674 78.1764 270.81 74.2892 270.81 70.4019C270.81 66.5147 271.674 62.6275 272.969 59.1721C274.265 55.7168 276.425 52.6934 279.016 50.1019C281.608 47.5104 284.631 45.3509 288.086 44.0551C291.542 42.7594 295.429 41.8956 299.316 41.8956C303.204 41.8956 306.659 42.7594 310.114 44.0551C313.569 45.3509 316.161 47.5104 318.752 50.1019C321.344 52.6934 323.072 55.7168 324.367 59.6041C325.663 63.0594 326.527 66.9466 326.527 71.2658V75.153H285.063C285.927 78.6083 288.086 81.1998 290.678 83.3594C293.701 85.519 296.725 86.3828 300.612 86.3828C303.203 86.3828 305.363 85.9509 307.523 85.087C309.682 84.2232 311.41 83.3594 312.706 81.6317L322.208 91.1339ZM298.452 53.9892C294.997 53.9892 292.406 54.853 289.814 57.0126C287.223 59.1721 285.927 61.7636 285.063 65.219H311.842C310.978 62.1956 309.25 59.1721 306.659 57.4445C304.499 54.853 301.908 53.9892 298.452 53.9892ZM340.348 82.4956V55.2849H329.118V42.7594H340.348V28.9381L354.601 25.4828V42.7594H370.15V54.853H354.601V79.0402C354.601 81.6317 355.033 83.3594 356.329 84.6551C357.625 85.519 359.352 86.3828 362.376 86.3828C363.672 86.3828 364.967 86.3828 366.263 86.3828C367.559 86.3828 368.855 85.9509 370.15 85.519V97.1807C368.423 97.6126 366.695 98.0445 364.535 98.4764C362.376 98.9083 360.648 98.9083 358.921 98.9083C352.874 98.9083 348.123 97.6126 345.099 94.5892C342.076 91.5658 340.348 87.6785 340.348 82.4956ZM374.038 91.1339L381.38 81.6317C384.404 83.7913 387.859 85.519 390.45 86.3828C393.474 87.2466 396.065 87.6785 399.089 87.6785C402.112 87.6785 404.703 87.2466 406.863 85.9509C409.023 85.087 409.886 83.3594 409.886 81.6317C409.886 80.336 409.455 79.0402 408.159 78.1764C407.295 77.3126 405.567 76.8807 402.976 76.4487L392.61 74.7211C386.995 73.8573 383.108 72.1296 380.084 69.5381C377.061 66.9466 375.765 63.4913 375.765 58.7402C375.765 53.5573 377.925 49.2381 381.812 46.2147C386.131 43.1913 391.314 41.4636 398.657 41.4636C402.544 41.4636 406.431 41.8956 410.318 43.1913C414.206 44.487 417.661 46.2147 421.116 48.3743L414.206 57.8764C411.182 56.1487 408.159 54.853 405.567 53.9892C402.976 53.1253 399.952 52.6934 397.361 52.6934C394.769 52.6934 392.61 53.1253 390.882 53.9892C389.155 54.853 388.723 56.1487 388.723 57.8764C388.723 59.1721 389.155 60.4679 390.45 61.3317C391.746 62.1956 393.474 62.6275 396.065 63.0594L406.431 64.787C411.614 65.6509 415.933 67.3785 418.957 69.97C421.98 72.5615 423.276 76.0168 423.276 80.336C423.276 82.9275 422.844 85.519 421.548 87.6785C420.252 89.8381 418.525 91.5658 416.797 93.2934C414.638 95.0211 412.046 96.3168 409.023 97.1807C405.999 98.0445 402.976 98.4764 399.521 98.4764C394.338 98.4764 390.018 98.0445 385.267 96.7487C380.948 95.453 377.061 93.7253 374.038 91.1339Z" fill="#FFD502"/>
<path fill-rule="evenodd" clip-rule="evenodd" d="M78.3135 2.59157C72.6888 0.863857 66.6314 0 60.574 0C27.2583 0 0 27.2115 0 60.47C0 93.2966 25.9603 120.076 58.8433 120.94C58.8433 120.076 58.8433 119.644 58.8433 118.78L60.1413 107.55C34.181 107.55 13.4128 86.3857 13.4128 60.47C13.4128 34.5543 34.6137 13.3898 60.574 13.3898C64.0353 13.3898 67.4967 13.8217 70.9581 14.6856L78.3135 2.59157Z" fill="url(#paint0_linear_402_329)"/>
<path d="M105.452 98.0144C110.198 99.7443 115.375 101.042 120.983 101.042C143.848 101.042 162.83 82.445 162.83 59.0909C162.83 35.7368 143.848 17.5725 120.983 17.5725C117.532 17.5725 114.08 18.005 111.061 18.87L109.335 33.5744C112.786 31.412 116.669 30.547 120.983 30.547C136.945 30.547 149.456 43.5215 149.456 59.0909C149.456 74.6603 136.514 87.6348 120.983 87.6348C117.963 87.6348 115.375 87.2023 112.786 86.3374L105.452 98.0144Z" fill="url(#paint1_linear_402_329)"/>
<path d="M120.015 49.5401C120.447 49.1081 120.015 48.244 119.152 48.244H94.9948C94.5634 48.244 94.132 47.812 94.132 47.38L99.3086 3.74553C99.3086 2.88148 98.0145 2.44946 97.5831 3.31351L55.7386 71.1413C55.3072 71.5733 55.7386 72.4374 56.6013 72.4374H81.1904C81.6218 72.4374 82.0532 72.8694 82.0532 73.3014L76.8765 116.936C76.8765 117.8 78.1707 118.232 78.6021 117.368L120.015 49.5401Z" fill="#FFD502"/>
<defs>
<linearGradient id="paint0_linear_402_329" x1="39.1567" y1="0" x2="39.1567" y2="120.94" gradientUnits="userSpaceOnUse">
<stop stop-color="#477FFB"/>
<stop offset="1" stop-color="#477FFB" stop-opacity="0"/>
</linearGradient>
<linearGradient id="paint1_linear_402_329" x1="134.141" y1="17.5725" x2="134.141" y2="101.042" gradientUnits="userSpaceOnUse">
<stop stop-color="#477FFB" stop-opacity="0"/>
<stop offset="1" stop-color="#477FFB"/>
</linearGradient>
</defs>
</svg>
