<svg width="20" height="20" viewBox="0 0 20 20" fill="none" xmlns="http://www.w3.org/2000/svg">
<path fill-rule="evenodd" clip-rule="evenodd" d="M4 0H16C18.2091 0 20 1.79086 20 4V16C20 18.2091 18.2091 20 16 20H4C1.79086 20 0 18.2091 0 16V4C0 1.79086 1.79086 0 4 0ZM4.60341 6.24975C4.72657 6.36076 4.78947 6.52378 4.77277 6.68871V12.6272C4.80932 12.8414 4.74179 13.0602 4.59087 13.2166L3.17954 14.9286V15.1543H7.18145V14.9286L5.77012 13.2166C5.61809 13.0605 5.54638 12.8431 5.57567 12.6272V7.49137L9.08832 15.1543H9.49604L12.5132 7.49137V13.5992C12.5132 13.7622 12.5132 13.7935 12.4065 13.9002L11.3214 14.9537V15.1794H16.5903V14.9537L15.5428 13.9252C15.4503 13.8548 15.4045 13.7389 15.4236 13.6242V6.0679C15.4045 5.95323 15.4503 5.83738 15.5428 5.7669L16.6154 4.73848V4.51273H12.9021L10.255 11.1159L7.24418 4.51273H3.3489V4.73848L4.60341 6.24975Z" fill="white"/>
</svg>
