<svg width="21" height="17" viewBox="0 0 21 17" fill="none" xmlns="http://www.w3.org/2000/svg">
<path d="M20.8546 2.00617C20.088 2.34696 19.2629 2.57683 18.3972 2.6797C19.2811 2.15053 19.9589 1.31233 20.2785 0.312419C19.4517 0.803062 18.5365 1.15908 17.5615 1.35128C16.7813 0.519852 15.6692 0 14.4386 0C12.076 0 10.1604 1.91558 10.1604 4.27862C10.1604 4.61348 10.1981 4.93987 10.2713 5.25356C6.71533 5.07491 3.56234 3.37184 1.45203 0.783165C1.08373 1.41478 0.872912 2.14968 0.872912 2.93454C0.872912 4.41875 1.62814 5.72854 2.77622 6.49562C2.07518 6.47318 1.4152 6.28056 0.838199 5.9601C0.837775 5.97788 0.837775 5.99608 0.837775 6.01429C0.837775 8.08692 2.31267 9.81581 4.27016 10.2095C3.91117 10.3069 3.53313 10.3594 3.14282 10.3594C2.86681 10.3594 2.59884 10.3327 2.33764 10.2823C2.88247 11.982 4.46235 13.2194 6.33433 13.2537C4.87002 14.4014 3.02556 15.0855 1.02066 15.0855C0.675639 15.0855 0.334856 15.0651 0 15.0253C1.89399 16.2399 4.14273 16.9477 6.55869 16.9477C14.4289 16.9477 18.732 10.4284 18.732 4.77435C18.732 4.58893 18.7282 4.40393 18.7202 4.2202C19.5559 3.61822 20.2814 2.86427 20.8546 2.00617Z" fill="white"/>
</svg>
